<svg id="Layer_1" data-name="Layer 1" xmlns="http://www.w3.org/2000/svg" viewBox="0 0 753 428"><defs><style>.cls-1{font-size:300px;fill:#f2f2f2;font-family:Northwell;}.cls-2{fill:#fff;}</style></defs><text class="cls-1" transform="translate(170.82 249.08)">Joseph</text><path class="cls-2" d="M356.57,289.06c-1.7,1.89-3.32,3.84-4.84,5.88l6,9.25a40.64,40.64,0,0,0,2.19-9.94Z"/><path class="cls-2" d="M220.61,316.38a20.48,20.48,0,0,1-5.51,5,50,50,0,0,1,1.73,13.06c0,25.26-18.67,47.09-47,47.09s-46.81-21.83-46.81-47.09a47.28,47.28,0,0,1,16.36-36.31,70.72,70.72,0,0,1-2.54-7.61c-13.41,9.93-21.65,25.91-21.65,43.92,0,30.07,22.93,54.5,54.64,54.5s54.78-24.43,54.78-54.5A56.65,56.65,0,0,0,221.92,317Z"/><path class="cls-2" d="M64.45,287.38c17.7,0,27.59,7.83,33.49,13.6.83.82,1.37.82,2.06.27l3.85-3.57c.54-.55.13-1.23-1.1-2.47C92.86,285.19,79,280,64.17,280,32.6,280,8.3,303.31,8.3,334.47S32.6,389,64.17,389c14.83,0,28.69-5.21,38.58-15.23,1.23-1.24,1.64-1.93,1.1-2.48L100,367.7c-.69-.55-1.23-.55-2.06.27-5.9,5.77-15.65,13.59-33.49,13.59-30.62,0-48.33-23.61-48.33-47.09S33.83,287.38,64.45,287.38Z"/><path class="cls-2" d="M201.34,298.94c1.21-1.23,2.41-2.51,3.58-3.86l.45-.83c.19-.37.42-.78.66-1.21A54.74,54.74,0,0,0,169.88,280a59.05,59.05,0,0,0-9.22.73l.12.86-.51,1.35a20.53,20.53,0,0,0,.13,3.55c.06.59.11,1.18.15,1.78a51.29,51.29,0,0,1,9.33-.86C182.58,287.38,193.34,291.8,201.34,298.94Z"/><path class="cls-2" d="M328.72,280.93h-5.35a1.1,1.1,0,0,0-1.24,1.24v11.72a85.59,85.59,0,0,1,7.4-12.72A1.3,1.3,0,0,0,328.72,280.93Z"/><path class="cls-2" d="M514.06,381h-1.13a50.71,50.71,0,0,1-.59,7h1.72c1.1,0,1.51-.27,1.51-1.37v-4.39C515.57,381.42,515.16,381,514.06,381Z"/><path class="cls-2" d="M608.93,316.49c0-17.16-10.85-35.56-37.76-35.56H535.3c-.16.49-.31,1-.46,1.46-1.35,4.25-2.7,8.53-4,12.81v91.58a1.09,1.09,0,0,0,1.24,1.23h5.35a1.09,1.09,0,0,0,1.24-1.23V352.05h32.53c1.65,0,3.3-.14,5-.28l23.61,35a2,2,0,0,0,2.06,1.23H607c1.1,0,1.38-.68.83-1.64l-24.3-35.83C601.51,345.87,608.93,330.9,608.93,316.49ZM571.86,345H538.64V287.93h33.22c19.91,0,29.38,13.46,29.38,28.56S591.77,345,571.86,345Z"/><path class="cls-2" d="M659.59,330.08c-17.58-6.32-30.07-10.85-30.07-23.89,0-11.8,9.75-18.81,24-18.81a37.35,37.35,0,0,1,26.49,11,1.55,1.55,0,0,0,2.47-.28l2.75-3.29c.68-.83.41-1.51-.55-2.47A43,43,0,0,0,654,280c-20.46,0-32.26,12.36-32.26,26.22,0,14.69,12.76,22.24,29.65,29,13.45,4.8,30.34,9.61,30.34,24.85,0,9.88-7.28,21.41-26.36,21.41-17.85,0-26.36-10.43-30.06-14.69a1.51,1.51,0,0,0-2.06-.13l-3,3.57a1.42,1.42,0,0,0,.13,2.19c2.89,3.16,13.59,16.48,34.74,16.48s34.45-12.63,34.45-28.56C689.51,342.3,672.9,335.16,659.59,330.08Z"/><path class="cls-2" d="M483.43,381h-28V337.36h37.91q.87-3.57,1.64-7.14H455.44V287.93H501.5q.47-3.45.83-7H448.85c-1,0-1.23.28-1.23,1.24V386.78a1.09,1.09,0,0,0,1.23,1.23h33.76C482.84,385.64,483.1,383.3,483.43,381Z"/><path class="cls-2" d="M322.13,320.66v55.27L250.06,282a2.36,2.36,0,0,0-1.92-1.1H244v3.47l-2.12,0,0,0a6.48,6.48,0,0,1-1,1.49V386.78A1.09,1.09,0,0,0,242.1,388h5.35a1.09,1.09,0,0,0,1.24-1.23V292.46l72.07,94.46a2.38,2.38,0,0,0,1.92,1.09h6.18c.69,0,1.1-.41,1.1-1.23V334.49A44.12,44.12,0,0,1,322.13,320.66Z"/><path class="cls-2" d="M432.92,280.93h-5.35a2.05,2.05,0,0,0-2.06,1.24l-36.79,56-11-16.79a72.52,72.52,0,0,1-3.93,7.28l11.08,16.92v41.19c0,.82.27,1.23,1.23,1.23h5.35c1,0,1.24-.41,1.24-1.23V345.59l41.05-62.74C434.3,281.89,434.3,280.93,432.92,280.93Z"/></svg>