<svg id="Layer_1" data-name="Layer 1" xmlns="http://www.w3.org/2000/svg" viewBox="0 0 1864 962"><defs><style>.cls-1{fill:#c1272d;}</style></defs><path class="cls-1" d="M482.29,895c-.89-4.49-2-5.19-5.56-5.47l-6.21-.49c-15.75-1.24-32-2.52-47.79-5.6a140.08,140.08,0,0,1-42-15q21.69,16,52.58,22.08c16,3.12,32.37,4.36,48.67,5.64Z"/><path class="cls-1" d="M387.77,529.14l-.17-.08-2.53-1.15a28.39,28.39,0,0,0,7.68,5.5A11.19,11.19,0,0,0,387.77,529.14Z"/><path class="cls-1" d="M496.35,39.39c-.08.58-.18,1.16-.29,1.72V911a22.25,22.25,0,0,1,1.07,3.71c.7,4.11,1,8.29,1.42,12.43h4.51v-889Z"/><path d="M485.36,895.15c-1.05-5.9-2.87-8.14-8.38-8.58-18-1.44-36.05-2.6-53.67-6-53.58-10.49-86.18-43.38-98.67-98.59-11.43-50.49-.19-97.92,21-143.74.76-1.63,2.39-3.69,3.91-4,5.85-1.13,11.86-1.4,17.74-2.44,2.81-.5,6.23-1.28,8-3.2,4.2-4.52,8.62-9.34,11.11-14.87,9.09-20.12,13-41.54,13.06-63.55,0-5.84-1.79-11.87-3.8-17.44-.94-2.61-4-5.08-6.71-6.31-9.38-4.27-18.44-8.31-18.51-20.9,0-4.73-1.22-9.43-1.76-14.16-5-44.28,8-81.07,44.77-108.1,10.09-7.42,19.94-15.17,29.79-22.92,10.5-8.27,20.27-17.21,25.11-30.24.51-1.35,1.35-3.17,2.48-3.59,4.65-1.72,4.32-5.47,4.48-9.24,2.25-53.83,4.61-107.66,6.66-161.5.12-3.08-2.13-6.25-3.52-10-2.53,3-4.08,4.78-6.38,7.46.9-5.42,2-9.52,2.19-13.67.5-10.74-.08-21.58,1.1-32.23.77-7,.13-14,5.15-21,3.25-4.51.61-13.27.61-19.56-7.62-2.17-12.24-14-7.89-17,7.6-5.07,11.83-11.67,13.06-20.37l6.71-1.25v889h-4.51c-.45-4.14-.72-8.32-1.42-12.43-.42-2.43-1.52-4.74-2.38-7.3Z"/></svg>