<svg id="Layer_1" data-name="Layer 1" xmlns="http://www.w3.org/2000/svg" viewBox="0 0 753 428"><defs><style>.cls-1{fill:#582929;}.cls-2{fill:#283440;}</style></defs><path class="cls-1" d="M250,248.48c-1.2,3.9-1.5,6.9-4.5,9,1.2,2.7-.3,5.7-2.7,7.2,0,.6.3,1.2,1.2.9-1.2,3.6-4.8,6-4.2,9a4.84,4.84,0,0,0-1.8,3.9c-1.2,0-.6-1.2-.6-2.4-1.8,1.2,0,3.6-.9,5.7-.3.6-.9,0-1.5-.3,0,3.6-2.4,4.5-2.4,8.1-1.2.6-.3-1.2-.9-.9-.6.6,0,1.2-.3,2.1h-1.5c1.5,1.5-.3,2.1-1.5,3,0,.9,1.2.6.6,1.8-.3.6-1.2.6-1.8.3.3,1.5-1.2,5.1-3.9,5.1.6,1.8-.3,1.8,0,3.6-1.5-.3-1.8.3-2.1.6,0,.6.6.9,0,1.5-1.2.9-2.1.6-3.3.9,0,.9,1.8,0,1.5,1.5-1.8-.9-2.1.6-3-.6-.6.3,0,1.8-.6,2.1.6,1.2.9-.9,1.8-.9-1.5,3.6-4.8,6.6-7.5,7.5-1.2,3-4.5,5.4-7.21,5.4-1.19,2.1-3.89,3.9-6.29,3.3-5.71,4.2-18.6,3.6-24-.6-.9,0-.9.6-1.5.3-15.6-9-26.4-22.8-30-43.5-.6-.9.3-.9.6-1.5a22.72,22.72,0,0,1,0-9c.3-.6-.3-.6,0-1.5,1.5-9.3,3.6-17.7,6-27,2.1-4.5,3.9-9.9,6-15.3,5.1-9.9,10.5-19.8,17.4-28.5h.6v-1.5c8.7-8.7,17.41-17.4,31.51-21,0,.6,0,1.2.6,1.2-5.1,3.9-10.2,8.1-15,12.6,1.21.3.6-1.2,1.81-.9-.6.9-1.5,1.5-1.81,2.4.6-.3,3-1.2,3.31-3,2.1.3-.9,4.5-1.5,3-.6.3-.31,1.2-.6,1.8-9.61,9-15.61,21-22.21,31.8-2.4,6.6-4.8,13.5-7.8,19.5-2.1,9.6-7.2,22.8-5.4,35.7-.9,2.4,0,6.3,0,9.3,0,.6-.3.6-.3,1.5,1.8,8.7,4.8,16.2,9.9,22.2a46.68,46.68,0,0,0,10.81,2.4,32.49,32.49,0,0,0,21.6-5.4,74.1,74.1,0,0,0,13.2-12.3,35.72,35.72,0,0,1,2.7-4.5c.6-1.5,2.4-1.8,3-3.3,3.9-6.3,6.9-13.5,11.1-19.5,4.8-13.2,12.3-28.2,15.9-42.9,2.1-5.1,2.7-9.9,4.8-15.6.3-4.5,3-9,3.3-13.5.6-.6.6-1.5,1.2-1.8,4.8-22.5,11.1-44.7,13.5-67.8a79.37,79.37,0,0,0,2.7-18c1.5-7.5,1.8-14.7,2.7-21.9a241.34,241.34,0,0,0-74.1,21.9c-.9-.3-1.5-2.1-3.9-1.8-3-2.7-3.31-10.5,2.09-10.2.6-.3.6-.9.6-1.5a38.91,38.91,0,0,0,6.31-2.1,7.67,7.67,0,0,1,2.1-.9c2.7,0,6.6-3,10.5-3.9,8.1-2.7,16.5-5.4,24.9-7.5,1.2-.3,2.1.3,3.3,0,4.2-.61,7.8-2.7,12.3-3.3,6.3-.9,10.8-1.81,16.5-2.7,1.5-4.8-.6-11.11.9-15.31,4.2-.3,8.7,2.11,11.4,5.11-.3,3,1.2,5.4,0,8.4,15-.6,28.5-2.1,43.2.9,8.1,0,14.7,3.29,21.3,5.4,5.4,4.5,12.9,7.2,14.1,15.6-.3,2.7-.3,3-1.2,4.8a6.1,6.1,0,0,1-2.1-3.6c-19.8-16.2-48.6-15-75.3-11.7a232.43,232.43,0,0,0-3.3,28.2c-.9.3-.6,1.5-1.2,1.8a28.43,28.43,0,0,1-1.5,11.4c.6,2.1.6,3.6-.6,4.5a18.87,18.87,0,0,1-1.8,10.2c.6,1.5.9,4.8-1.2,6-.3.9.6.6.9.9-1.5,1.5-.3,5.4-2.1,6.3,0,1.5,0,.3.9.6-.6.3-.6,1.8-.6,2.4a3.29,3.29,0,0,0-2.4,0,2.56,2.56,0,0,0,.9,1.8c1.5,0-.6-.9.6-1.5.9.3.6,1.5.6,2.4-.9.3-2.1.3-2.7.6.6.9.6,2.4,2.1,1.8-.6,1.2-.6,2.7-1.5,2.7,0,.6,0,.6.6.3-.6,1.5-1.5.3-2.1.9.3.9,1.5.9,1.8,1.5-2.4,3.3-.9,8.4-3.3,11.4,0,.6.6.9.6,1.5a18.75,18.75,0,0,0-3.9,6c1.2.3.3-.9,1.5-.6.6.6-.3,1.8-.6,2.7-.9,0-.6-.6-.9-.6-.3,1.2-.6,1.8.3,2.4,1.5-.6,0-.3,0-1.5,2.4.3.6,2.1.6,3.9-.6,0-.9-.6-.6-1.2-.9,2.1.6,4.5-1.5,5.7.9,1.8.9,5.1-1.5,5.7.6,1.5,0,3-.3,4.5-.9,0-.3-1.2-.3-1.5-1.2-.3-.9.3-1.2.3.6,1.5.6,1.8.3,3.9h-1.8c0,.9,1.2.6,1.5.9-1.2,1.2-.9,2.1-1.2,3.6-.6.6-.9-.3-1.5.3.3,1.5,1.5-.3,2.4.6,0,1.5-1.5.6-1.8,1.2,0,.3.6.6.9,1.2.3,1.2-1.8.3-1.5,1.8,0,1.2.9-.9.9.3a4.12,4.12,0,0,1-1.5,3c-1.5,0-.9-.6-.9-1.8-.6.3-.3,1.8-.6,2.1,0,.9.6-.3,1.2.3-.6,4.8-1.8,9.3-5.1,11.7.6.3.9.6,1.5.9-1.5,2.4-1.2,3.9-1.5,6.3-1.2,1.2-3,1.8-3.6,3.3.9.3.9-.6,1.5-.6C249.13,248.48,249.13,248.78,250,248.48Zm-105.31,25.2v-.6h-.6v.6Zm1.8-12.9c0-.3.3-.3.3-.6h-.6a.29.29,0,0,0-.3.3C146.22,260.48,146.22,260.78,146.52,260.78Zm.3-2.7c.9-3.9,3-9.3,3.6-13.5-.9,1.2-1.2,3.3-2.4,4.8C148.92,251.78,145.92,255.68,146.82,258.08Zm9.3-27.6c-.3,0-.6-.3-.9-.3-1.8,4.5-3,8.4-4.5,12.9C153.12,239.78,154,234.38,156.12,230.48Zm.3,11.1V241h-.6v.6Zm2.4-20.1c.3.3.6.6.6.9-1.2,1.2-2.4,2.1-2.1,3.9,1.8-.9,2.4-3.3,3.3-5.4,1.2-.9,1.5-2.1,1.8-3.9-.9.6-1.5,1.8-1.8,3.9C159.72,220.88,159.42,221.48,158.82,221.48Zm-.9,19.5c0-.3,0-.6-.6-.6,0,.3,0,.9.3.9C157.62,241,157.62,240.68,157.92,241Zm1.5-6.9c.6,1.5-1.2,2.1,0,2.4C159.72,236.18,160.92,234.38,159.42,234.08Zm1.2-3.9v-.6H160v.6Zm.3,1.5c0,.3-.3.6,0,.6C160.92,232.28,161.52,232,160.92,231.68Zm2.7-5.7c-.6,1.5-1.8,2.4-2.1,4.2C163,229.88,163.92,227.48,163.62,226Zm.3-2.7v-.6h-.6v.6Zm.9-11.4c-1.2,0-1.2.9-1.2,1.5C164.82,213.68,164.22,212.48,164.82,211.88Zm.9-.3c-.6-.3-1.2,1.2-.3,1.2C165.42,212.48,165.72,212.18,165.72,211.58Zm2.4-4.5c0,.9-.9.6-.59,1.5C168.12,208.58,169,207.38,168.12,207.08Zm1.5,7.8c-.59,1.5-2.4,2.7-1.8,4.2C168.12,217.58,169.92,216.38,169.62,214.88Zm.91-9.9c.29-.9-1.21-1.2-1.5-.3C169.62,204.68,169.92,205.58,170.53,205Zm.59-3c-.3.6-.59.6-.59,1.5C171.72,204.08,171.72,202,171.12,202Zm-.59,10.8h.89C171.42,212.18,170.82,212.18,170.53,212.78Zm1.5-12.6c.29,1.2-.91.6-.61,1.5C171.72,202.28,173.53,200.48,172,200.18Zm1.19,6.6c-.6-.6-1.5,0-1.5,1.2C172.62,208,173.22,207.68,173.22,206.78Zm-1.19,3.3v.9C173.22,211.28,173.22,209.48,172,210.08Zm2.09-11.4c-.9-.3-1.5,1.2-.59,1.2C173.82,199.58,173.82,199.28,174.12,198.68Zm-.59,10.2c.29,0,0-.3,0,0C172.92,209.18,173.53,209.48,173.53,208.88Zm2.39-2.1v-1.2c-.6,0-.89.6-1.2.9C175.32,206.48,175.62,206.48,175.92,206.78Zm0-9.9V196h-.6v.9Zm.9,6.3c-.9-.3-1.2,1.5-.9,1.8C175.92,204.08,177.13,204.08,176.82,203.18Zm-.29-1.5v-.9h-.61v.9Zm1.79,0a1,1,0,0,1,1.5-.6c.31-.6.9-1.2,0-1.5-.29.9-.6.3-1.5.3C178.32,199.88,177.72,201.38,178.32,201.68Zm4.81-13.5c-.91,1.5-2.71,2.4-3.6,4.2C181,191.18,183.13,189.68,183.13,188.18Zm-1.81,11.4c0-.3,0-.9-.29-.9,0,.6-.61.6-.61.9Zm4.21-6.3c-.3.9-2.4,1.2-1.21,2.4C184.63,195.08,186.73,194.18,185.53,193.28Zm6.89-8.4v-.3h-.6v.3Zm1.21,2.7c-.31-.9.9-.6,1.19-1.2C195.42,186.68,194.53,187.58,193.63,187.58ZM195.42,319a2.1,2.1,0,0,0-1.19,1.5C195.13,320.48,195.42,319.88,195.42,319Zm-.6-4.2c-.29.6-.9.9,0,1.2C194.82,315.68,195.42,315.08,194.82,314.78Zm2.71,3.3c-1.2,0-1.5.3-1.8,1.2C196.92,319.58,197.53,319,197.53,318.08Zm1.2-5.7c-.9,0-1.2.9-1.5,1.5C197.83,313.58,198.73,313.58,198.73,312.38Zm.9,4.5c-.9,0-2.1,0-1.8,1.2C198.42,317.78,199.63,317.78,199.63,316.88Zm-.6,3.3c0-.6,0-.9-.61-.9,0,.6,0,1.2.31,1.2C198.73,320.18,198.73,319.88,199,320.18Zm4.2-11.7c-1.2,1.2-2.7,1.2-3.31,3A5.47,5.47,0,0,0,203.23,308.48Zm.9,4.5c-1.8,0-4.21,3-2.4,2.7C201.42,314.48,204.13,314.48,204.13,313Zm-.6,8.1c0-.6-.3-.6-.9-.6v.6Zm1.5-7.2c-.9,0-.9.6-.9,1.5C205,315.38,205,314.48,205,313.88Zm.3-1.8c.9-.3,3.3-2.4,2.1-2.7-.6.9-1.2,1.2-2.1.6Zm2.4-9c.6,0,1.2-.3,1.5-1.5,1.2,0-.3-1.2,0,0C208.33,301.88,207.73,302.48,207.73,303.08Zm3,3.3h.6c0-.6.6-.6.3-1.2-1.5.3-3,.9-3.3,2.4.9,0,1.2-.9,1.8-1.2C210.43,307,210.73,306.68,210.73,306.38Zm1.5.3c-.6,1.8-4.8,2.4-3,4.5C209.23,309.08,212.83,308.78,212.23,306.68Zm-1.5-.6v.3h-.6C210.43,306.08,210.43,306.08,210.73,306.08Zm2.1-2.4v-.6h-.3v.6Zm1.5,0c0,.6-.6.9-.3,1.5C214.93,305.18,214.93,304,214.33,303.68Zm-.3-3v.9C214.93,302.18,214.93,300.38,214,300.68Zm3-1.2c-.6.9-.6,1.8-1.2,2.7C217,302.48,217.63,300.38,217,299.48Zm-.6-2.7c.3.6-.3.9-.3,1.5C217,298.58,217.33,296.78,216.43,296.78Zm39.9-107.7c-3,6.3-2.7,15-6.3,21-2.4,13.5-8.4,26.4-11.7,39.3-2.4,2.1-2.1,6.3-4.2,8.7v2.4c-1.8,1.8-2.4,3.9-2.7,6.6a3.25,3.25,0,0,0-1.5,1.2c-.3,4.8-4.5,7.8-4.5,11.7-3.3,2.1-3.6,6.6-6,9.3.9.3.9.6.6.9-1.2-.3-2.7,4.5-2.1,4.8,3.6-4.8,5.7-11.1,9.6-15-.6-.6,0-1.5,0-2.7.6-.3,1.2.9,1.2-.3a45.77,45.77,0,0,1,5.7-13.5c-.3,0-.6-.6-.6-1.2.9,0,.3-1.2,1.2-1.2,3.3-9,6.3-16.8,9.6-25.5a28.08,28.08,0,0,1,3.3-11.1c1.2-8.1,4.5-16.2,6.9-25.2-.9-1.8.3-4.2.9-5.7,2.1-12,4.5-18.9,6.9-30.9-.3-4.8,2.7-8.7,1.8-12.6a8.35,8.35,0,0,1-1.2,3.6C261.73,166.58,257.83,176.78,256.33,189.08Zm-37.2,110.4v-1.2h-.6v1.2Zm.3-3.9c0,1.2-.6,1.2-.6,1.8C219.73,298.88,221.23,295.88,219.43,295.58Zm2.4-2.4c-.9-.6-1.2,1.5-.6,1.5C221.23,294.08,222.13,294.38,221.83,293.18Zm0,2.7v.9C222.73,297.38,222.73,295.58,221.83,295.88Zm3-5.7c-1.8-.9.6-1.8.3-3-1.2,1.2-3.9,4.2-3,5.4C223.33,292,223,290.18,224.83,290.18Zm-1.2,8.1c.3.9-1.2,1.2,0,1.8C223.33,299.18,225.43,298.28,223.63,298.28Zm3.3-13.8c-.9.3-1.8,1.2-1.5,1.5C226.33,286,226.93,285.68,226.93,284.48Zm-.3,12.3v-.9h-.9v.9Zm4.8-23.4c-1.5,3.9-3.3,7.5-4.8,10.8,1.2,0,.9-1.2,2.1-1.2,0-2.7,1.8-5.7,3.3-7.8-.3,0,0-1.5-.3-1.8h.3c.6-.3,2.1-2.4,1.2-3.6,0,1.5-2.1,2.7-1.5,3.6Zm-2.7,12.3c-.9,0-1.5,1.5-.9,1.8C227.83,286.58,228.73,286.28,228.73,285.68Zm0-1.8c-.6.9,1.2.9,1.2.3C229.33,284.18,229.33,283.88,228.73,283.88Zm1.5-1.8c.3-.3,1.2-.3.9-1.2.6-.3,1.2-1.5.3-1.5,0,.6-.6.6-.3,1.5C230.23,280.58,229.93,281.78,230.23,282.08Zm.9,2.7c.9.3.6-.9.9-1.5,1.2-.9,1.5-2.4,2.1-3.9-1.5.6-1.8,2.4-2.1,3.9C231.43,283.88,230.83,283.88,231.13,284.78Zm3-196.5c0,1.5-1.8-.3-1.5,1.5C233.53,90.08,235,89.17,234.13,88.28ZM235,277c-.9,0-.9.6-.9,1.2C235,278.48,235,277.88,235,277Zm1.2-15c0,2.4-3,4.5-1.8,6.3C235.33,266.48,237.73,263.48,236.23,262Zm-.3,8.7c-1.2.3-1.5.9-1.5,2.1C235.63,272.78,235,271,235.93,270.68Zm-.9,5.4c1.2,0,2.1-2.7,1.2-3,0,.6-.3.9-.9.6C235.93,274.88,235.63,275.18,235,276.08Zm1.2-7.5c-.3.6-.9,1.2,0,1.5C236.23,269.18,236.83,268.88,236.23,268.58ZM235.93,88h0Zm.9,173.1c1.5.3,1.2-1.2,1.2-2.4.9-1.5,2.4-3.9,2.7-5.4-1.8,1.2-2.4,3-2.7,5.4A6,6,0,0,0,236.83,261.08Zm1.5,6.3c-.3,1.5-.9,2.1-.9,3.6C238.33,270.68,238.93,268.58,238.33,267.38Zm2.4-3.9c-.6,1.2-1.8,2.1-1.8,3.6C240.73,266.78,241.33,264.08,240.73,263.48Zm-1.5-176.4c.3,0,.6,0,.6-.3C239.53,86.78,239.23,86.78,239.23,87.08Zm1.5,170.4c0,.6-.9.9-.9,1.8C240.73,259.58,241.33,257.78,240.73,257.48Zm0,3v-.3h-.9v.3Zm1.5-10.5c-1.5,0-1.5,1.8-2.1,2.7C241.93,253,241,250.58,242.23,250Zm0-163.5c-.6-.6-1.8-.6-1.5.6A1.94,1.94,0,0,0,242.23,86.48Zm.3,173.7c-1.5,0-1.2,2.1-1.8,2.4C241.93,262.58,241.93,261.08,242.53,260.18Zm.3-15.6c0,.6-.6,1.2-.3,2.4C243.13,247.28,243.43,244.88,242.83,244.58Zm-.3,3.3c.3,0,.3,0,.3-.3A.29.29,0,0,0,242.53,247.88Zm0,1.8c.3,0,.3,0,.3-.3A.29.29,0,0,0,242.53,249.68Zm.3,7.2c0,.6-.3,1.2-.3,1.8C243.43,259,244.33,257.18,242.83,256.88Zm.3-5.4v-.3h-.3v.3Zm2.1-11.1c-.3,0-.3-.3-.9-.3-.6.9-.6,2.1-1.2,3C244.63,242.78,244.63,241,245.23,240.38Zm.3,12.3c-2.1,0-1.8,2.4-2.4,3.6C244.63,255.68,244.93,253.88,245.53,252.68Zm-1.2-3.3c-.3.3-1.5,1.5,0,1.8C244.33,250.58,244.93,249.38,244.33,249.38Zm.9-9.6c-.3-.6,0-1.2-.6-1.2v.9C244.93,239.48,244.93,239.78,245.23,239.78Zm.3,5.4c0-.6,0-1.2-.6-.9v.6C245.23,244.88,245.23,245.18,245.53,245.18Zm2.4-159.3V84.67c-.9.31-2.1.61-2.4,1.5C247,85.88,247,86.17,247.93,85.88Zm-1.8,163.2c-.3.3-.9,1.5,0,1.8C246.43,250,247,249.08,246.13,249.08Zm-.3-14.7c.3.6-.6,2.1.3,2.4C246.73,236.48,247.33,234.38,245.83,234.38Zm1.8,19.2c.3-1.5-1.8-.6-1.5.3C247,254.18,247,253.58,247.63,253.58Zm-.6-5.4c0-.6,0-.9-.6-.9a1.1,1.1,0,0,1-.3.9Zm.3-14.1v-.9h-.9c0,.3.3.6.6.9Zm.3,12.3v-1.2H247v1.2Zm-.3-15.6c0,.6,0,1.2.6,1.2A1.56,1.56,0,0,0,247.33,230.78Zm.6-2.1c.3.6-.3.9-.3,1.2C248.83,230.18,249.13,228.68,247.93,228.68Zm0,22.2c-.3.3-.3.9.6,1.2C248.83,251.48,248.83,250.88,247.93,250.88Zm1.2-10.8c-.9.6-1.2,3-1.2,3.6C249.13,243.38,249.13,240.68,249.13,240.08Zm-.6-12.9v.6C249.13,228.38,249.13,226.58,248.53,227.18Zm0,8.1s.6,0,.6-.3C248.83,235,248.53,235,248.53,235.28Zm5.1-151.2c.6,1.8,2.1.3,3.3-.6.9,0,2.4,1.19,3.3,0-.6,0-.3-1.5-1.2-1.5-2.7,1.5-7.5,2.1-10.2,2.69C249.43,85.58,252.73,85.28,253.63,84.08Zm-4.5,140.1c.3,1.5-.3,1.5-.3,2.1C249.43,227.78,250.63,224.48,249.13,224.18Zm3.6-8.4h-.9c-.6,3.3-1.8,4.8-2.7,8.1C251.83,222.08,251.23,218.48,252.73,215.78Zm-2.7,16.8c0-.3-.3-.6-.9-.6v.6Zm.3,6.9c0-.6,0-1.2-.3-1.2-.3.3-.9.3-.9,1.2Zm-1.2,5.7s.3.3.3,0S249.13,244.88,249.13,245.18Zm1.8,1.8c-.6.3-.9,1.2-1.8.9C249.43,247.28,250.33,246.38,250.93,247Zm-.9-5.7c0,.6-.6,1.5.6,1.5C250.63,241.88,250.63,241.28,250,241.28Zm.6-4.8c0-.3,0-.9-.6-.9v.9Zm.9-10.2c-.6,0-.9.6-1.2,1.2C250.93,227.78,251.23,227.48,251.53,226.28Zm-1.2,14.7c.9.6.9-.9.3-.9,0,.3,0,.6-.3.3Zm1.5-7.2c-.6,0-.6-.9-1.2-.6v1.5C251.23,234.68,251.53,234.38,251.83,233.78Zm-.6-9.3c.6.6.9-.9.3-.9a.29.29,0,0,0-.3.3Zm.3,5.4a6.61,6.61,0,0,0-.3,2.4h.9a3.29,3.29,0,0,0,0-2.4c.6-.3,1.5-1.2,1.2-2.1-1.2,0-1.2,1.2-1.2,2.1Zm.9,6v-.6h-.6v.6Zm-.3-12.9c.3,0,.6,0,.6-.3C252.43,222.68,252.13,222.68,252.13,223Zm1.8-12.3c-1.2,0-2.1,3.6-1.2,4.2A22.1,22.1,0,0,0,253.93,210.68Zm0,16.8c-.3-1.8.3-2.1.9-3.3-2.1-.3-1.2,2.4-2.1,3.3Zm-.6-9.3c-.6.9.9,1.2.6.3C253.63,218.48,253.63,218.18,253.33,218.18Zm.9-8.7c0-.6,0-.9-.6-.9,0,.6,0,1.2.3,1.2C253.93,209.48,253.93,209.18,254.23,209.48Zm-.3-2.4c1.2.3,1.2-.6,1.2-1.5.3.3.6.6.6.3,0-.6,0-1.5-.9-1.8-.3.9.3.9.3,1.5C254.23,205.58,254.53,206.78,253.93,207.08Zm1.2,15c-.9-.3-1.2.3-1.2,1.2C254.83,223.28,255.73,222.68,255.13,222.08Zm-.9-7.2s-.6,1.2,0,1.2C253.93,215.48,255.43,214.88,254.23,214.88Zm1.5-3c-1.2,0-1.2.9-.9,1.5C255.73,213.68,255.13,212.18,255.73,211.88Zm0,8.1s0-.3-.6-.3a1.13,1.13,0,0,0,.3,1.8C255.43,220.88,256,221.18,255.73,220Zm1.2-18.9c-.6,0-.6-.3-1.2-.3.3,1.2-.9,2.4,0,3A23.79,23.79,0,0,0,256.93,201.08Zm-1.5,17.4v.9C256,220,256,218.18,255.43,218.48Zm.9-.6c0-.6-.6-.6-.6-.9,1.2,0,1.8-1.8,1.5-2.1-1.5,0-2.1,1.2-1.5,2.1C255.73,217.58,255.73,217.88,256.33,217.88Zm.6-19.5c-.3.3-1.2,1.5-.3,1.8C256.33,199.58,257.83,199,256.93,198.38Zm-.3,15c0,.3.3.6.6.9.3-.6,1.2-1.8.3-2.4,0,.9-.6.9-.9,1.5C256.33,213.08,256,213.38,256.63,213.38Zm.6,5.7c0,.3-.6.6-.6,1.5C257.83,221.18,257.83,219.08,257.23,219.08Zm.9-24.3c-1.2-.3-1.2,1.5-.3,1.5C257.83,195.68,258.13,195.68,258.13,194.78Zm0,15.9c.3-.3.3-.9.3-1.8h.3c.3-.3.3-.9.9-1.5-.6-.3-1.8,0-1.8-.9.3-.3,0-.3-.3-.3v2.4a1.1,1.1,0,0,1,.9.3C257.83,209.18,256.93,210.68,258.13,210.68Zm.9-21.6h.9c-.6-1.5,1.2-3.3,0-4.5-.9,3.3-2.1,6.6-2.1,9.6C259.33,193.28,259.33,190.88,259,189.08Zm-1.2,26.7c.6.6.9-.9.3-.9,0,0,0,.3-.3,0Zm.6-18c.3,1.2.6,2.1,1.5,2.1C259.93,198.68,259.93,197.78,258.43,197.78Zm1.8,5.4a12.35,12.35,0,0,1,.9-2.4c-1.2-.3-1.2.6-2.1.3C259.33,202,259.93,202.28,260.23,203.18Zm-.3-19.8c.3,0,.6,0,.6-.3C260.23,183.08,259.93,183.08,259.93,183.38Zm2.1-99.9c.9,0,.3-1.2,1.2-1.2.9,1.8,1.8-.9,3.3,0v-1.2c-2.1,1.2-5.4-.3-6.3,2.09C261.43,82.58,261.43,83.17,262,83.48ZM262,193c0,1.5-2.1,4.2-.3,4.8.6-1.5.3-4.5,1.5-6.3a7.16,7.16,0,0,0-2.7.6C260.23,193.28,262,192.38,262,193Zm-1.5-10.8c.9.6,1.2-1.2.6-.9-.3.3-.3.3-.6.3Zm.9,6.9c.3,1.2-.6,1.2-.3,2.1C262,191.48,262.33,189.08,261.43,189.08Zm.3-11.1c.3-.3.3,0,.3-.6C262,177.68,261.73,177.68,261.73,178Zm.3,8.4c.3.6-.3.6,0,1.5C262.63,188.18,263.53,186.08,262,186.38Zm1.2-12.3H262v2.1C263.23,176.18,262.63,174.68,263.23,174.08Zm-.3,15.3c-.6.6-.6,1.8.3,1.8C263.83,190.88,263.83,189.38,262.93,189.38Zm0,7.8c0,.3-.6.6,0,.6C262.93,197.78,263.53,197.48,262.93,197.18Zm.3-25.2c.6-.3.6-.9.6-1.8-1.2-.3-.6,1.2-.6,1.8C262,172,263.53,173.18,263.23,172Zm1.2,12.3c-.3,1.5-2.4,3.6-.9,4.8A5.83,5.83,0,0,0,264.43,184.28Zm-.6-16.8c-.3.6-.3,1.2.6,1.8C264.43,169,265,167.18,263.83,167.48Zm.6-5.1c0,.6-.3,2.1.3,2.1C265,163.58,265.93,162.38,264.43,162.38Zm.3,18c.3,1.2-.9,2.4,0,2.7C265,182.48,266.53,180.68,264.73,180.38Zm0-33.6a6.1,6.1,0,0,1-.3,1.5C265,148.58,266.23,146.78,264.73,146.78Zm-.3,18.9s0,.6.3,0C264.73,165.38,264.43,165.38,264.43,165.68Zm.3,14.4c1.5.3,1.2-2.4,1.2-3,.6,0-.6-1.2,0,0C264.73,177.68,264.73,178.58,264.73,180.08Zm1.2,4.8c-.3.3-1.2.3-.9,1.2C265.93,186.38,266.53,184.88,265.93,184.88Zm-.6-9c1.5-.3,1.8-1.8,2.1-3.6-.9,0-.9.6-1.2.3A4,4,0,0,1,265.33,175.88Zm.9,8.4c.3-.6.3-.9-.3-1.2a1.56,1.56,0,0,1-.6,1.2Zm.6-3.3c-.9-.3-.9,1.2-.3,1.2C266.53,181.88,267.13,181.58,266.83,181Zm.9-11.4h-1.2c0,.9,0,1.8,1.2,1.5Zm-.9,7.2c.3,1.2-.6,3,.6,3.6C266.83,178.88,268.63,177.68,266.83,176.78ZM271,81.67c-.3-.29.9-1.19,0-1.5-.9.91-3.6-.29-3.6,1.5C268.63,81.67,270.13,80.48,271,81.67Zm-3.6,68.41s.6,0,.6-.3C267.73,149.78,267.43,149.78,267.43,150.08Zm.3,15.9c0,1.2.6,1.5,1.2,1.2C268.93,166.28,268.33,166.28,267.73,166Zm.9,8.7c0-.6,0-.6-.6-.6,0,.3,0,.9.3.9C268.33,174.68,268.33,174.38,268.63,174.68Zm.6-3v-.9h-.6v.9Zm.6-17.1c-.6.3-.3,1.5.9,1.2C270.73,154.88,270.73,154.58,269.83,154.58Zm.3,6.6v-.3h-.6v.3Zm.9,4.2c-.3,0-.3-.3-.9,0a1.31,1.31,0,0,0-.3.9C270.73,166.58,271,166.28,271,165.38Zm1.8-6.3v-.9h-.3v.9Zm1.8-12.3c-.6.3-1.5.3-1.5,1.2C274,148,274.63,147.68,274.63,146.78Zm13.8-68.4c-.6-1.21-1.5.9,0,.6Zm1.8.29c-.3.61.3.61.9.61,0-1.5,1.8,0,2.1-1.5-.6-.3-1.2.3-2.1-.3-.3.6,0,1.5-.6,1.5A.3.3,0,0,0,290.23,78.67ZM295,79c.3-.9,2.1-1.2,1.8.3,1.5,0,1.8-.61,3-.3,0-1.2-1.2-1.2-1.5-1.81-.9.61.3,1.21-.3,1.5-.9-1.19-3.6-1.79-4.5-.29C294.43,78.08,294.43,79,295,79Zm3.9,3c.3,0,.9,0,.9-.31C299.53,81.67,298.93,81.67,298.93,82Zm2.7-3.6c.3-.9-.3-.9-.3-1.21-.3,0-1.8-.59-1.8,0,.6.61,1.5.91,1.5,1.81a2.86,2.86,0,0,1,2.7.3c-.3-.9,0-1.5.9-1.5.3,1.5,2.7-.61,2.7,1.2.6-.6,1.5-1.2,1.8-2.1a26.07,26.07,0,0,1-6.9.29C302.23,77.78,302.83,78.08,301.63,78.38Zm-.6,3.9a.29.29,0,0,0,.3-.3C301,82,301,82,301,82.28Zm9.6-4.5c-.9,0-1.5,0-1.5.89C309.43,79.28,310.93,79.28,310.63,77.78Zm-.3-.61a.66.66,0,0,0-.9-.29c0,.29,0,.6.6.6A.3.3,0,0,1,310.33,77.17Zm-.9,4.81c.3,0,.3.6,1.2.3C311.23,81.38,309.43,81.38,309.43,82Zm3.3-4.81h-1.8a10.22,10.22,0,0,0,2.7,1.81C313.93,77.78,312.73,78.08,312.73,77.17Zm-1.5,4.5c.3,1.5,3.6,1.21,3.9,0Zm2.7-4.19c0,1.8,1.2,1.5,1.8.3C315.43,77.48,314.53,77.48,313.93,77.48Zm2.7,4.19H316c0,.31-.3.31-.3.61C316,82.28,316.63,82.28,316.63,81.67Zm4.8-2.39c-.3-1.2.9,0,1.2,0,.6-.3,0-.9,0-1.8-1.8.6-3.6,0-5.7-.31a2.58,2.58,0,0,0-.6,1.81A14.79,14.79,0,0,1,321.43,79.28Zm3,3c-2.1.6-4.8-1.5-5.7.3C321.73,81.38,322.63,84.67,324.43,82.28Zm3.3-2.11c.3-.89-.6-.89-.3-1.79-1.5,0-2.1-.9-3,0C324.43,80.78,326.23,79.28,327.73,80.17Zm-1.5,3c.6-.29.6.31,1.2.31C327.73,82.58,325.93,82.58,326.23,83.17Zm1.8-5.39c-.6.89.3,1.2,0,2.1C329.23,80.17,328.93,77.78,328,77.78Zm5.1,3c.3-.61,1.8.3,1.5-.9-2.7-.3-3.9-2.1-5.4-.6C331,80.17,331.93,79.58,333.13,80.78Zm-3.9,2.7c.9,0,2.7,1.8,3,0-1.2.6-1.5-.31-2.1-1.2v.89C329.83,83.17,329.23,82.88,329.23,83.48Zm4.5.6c.3-.6-1.2-.6-.9-.3.3,0,.3,0,.3.3Zm1.8.9c0-.6,0-1.2-.6-1.2v.89C335.23,84.67,335.23,85,335.53,85Zm1.8-4.2c-.3,0-.3-.3-1.2-.3v.9C337,81.38,337.33,81.38,337.33,80.78Zm-1.2,3.89c.6,1.21,2.1.91,3.3.61A4.17,4.17,0,0,0,336.13,84.67Zm1.5-4.5c0,.61,0,1.21.9.91A.8.8,0,0,0,337.63,80.17Zm2.4,5.41c.6,1.2,3.6,2.09,4.8,1.8C344.53,85.88,341.53,86.78,340,85.58Zm1.8-3.6c-.9-.31-1.2-.9-1.5,0C340.33,82,341.53,82.88,341.83,82Zm0,.6c.6,0,.6.59,1.5.59C343.63,82,341.83,82,341.83,82.58Zm3.6.9c-.3.6.6,1.8,1.2.6C346,83.78,346,83.48,345.43,83.48Zm2.1,4.5c-.6,0-.6-.9-1.2,0C346,88.58,347.83,88.58,347.53,88ZM373,195.68c1.2.3,2.7-.3,3.6.6-.6,2.1.3,3,.9,4.2-4.2,2.4-8.1,5.1-12.6,7.2-.3-.9,0-.9-.3-2.1-.6.9-1.5,1.5-2.1,0-.9.3-.9,1.5-1.5,2.1,0,.3.6.3.6.6,1.2.6.9-.6.9-1.2,3,1.5-1.5,1.8-1.8,3.6-1.2,0-.6-1.2-1.8-.9-1.8.3,0,2.7-.9,3-1.2.3-.6-2.1-.3-2.1-1.8.6-2.4,2.1-3.9,3-1.2.3-.6-.9-1.5-.9-.6,0-.6.9-.6,1.8-1.2.3-.6-1.2-1.2-1.5-.9,0-1.5,1.5-2.4.3-1.2.6.9.9.6,1.8-1.5-.9-2.1.6-3.9-.6-.3,1.5,2.1.3,1.8,1.8-1.2,0-1.5.3-2.4,0v-1.5a13.45,13.45,0,0,1-3.3.3c-.3,1.2-.3,1.5-1.5.3-.9.9.9.9.3,2.4-5.1,1.5-18,.9-18.3,8.1-6.9,9.3-11.1,22.5-25.5,22.8-20.1-4.2-17.1-35.7-4.8-45.9,0-1.5.3-2.7-.3-3.9,2.1-21.6,28.8-18.9,38.1-5.7a18.77,18.77,0,0,1-.6,17.4A191.05,191.05,0,0,0,373,195.68Zm-82.2,44.1c10.8-1.8,14.7-10.2,19.5-18-6.6-.9-10.8-4.2-15.3-7.2C292.32,221.18,286.92,230.18,290.82,239.78Zm12.9-35.1c-1.8,1.5-3.9,3.6-3.9,6,3.9,2.1,10.8,2.7,15.6,2.1,2.7-7.2,7.8-17.4.6-23.1C310.62,193.58,301.32,195.68,303.72,204.68Zm24.6,13.5c-.6.9,1.2.9.9.3C328.92,218.48,328.92,217.88,328.32,218.18Zm3.9-.9c.6.6,1.5,1.5,1.8,0C333.72,217.28,332.22,216.68,332.22,217.28Zm.3-3.9c-.6,1.5,1.8,2.1,1.8.9C333.72,214,333.72,213.08,332.52,213.38Zm3.6,3.9c0-.3-.3.3,0,0C336.42,217.88,336.72,217.28,336.12,217.28Zm1.8-3.6h1.2c0-.9-.6-1.2-1.5-.9v.6C335.82,213.08,337.92,215.18,337.92,213.68Zm0,0a.29.29,0,0,1-.3-.3C337.92,213.38,337.92,213.38,337.92,213.68Zm6.9-1.2c-2.1-1.5-3.3,0-5.4-.6C339.42,214.58,343.92,213.38,344.82,212.48Zm11.1-2.7c-2.1-.3-4.2,0-6-.9.3,1.8-2.7.6-3,2.1C349.92,210.38,352.92,211.28,355.92,209.78Zm.9-.9c0-.9-.6-.9-1.2-.9v.9Zm2.4-.6c-.6,0-.6-.6-1.2-.6,0,.6-.3.6-.3,1.5C358.62,209.18,359.22,209.18,359.22,208.28Zm1.2-2.1c-2.1-.3-1.8,1.8-.6,1.8C359.52,207.08,360.42,207.08,360.42,206.18Zm66,7.5c.3,0,.3-.3.6-.3.3-.9-.6-.6-1.2-.6,8.1-7.5,16.8-13.5,24.9-20.7.3.6.6,1.2,1.5,1.2-1.5,5.1-3.3,9-7.8,11.1-.6,1.2.6.6,1.2.6-1.2,1.8-3,4.2-4.5,3.6-.9.3.3.6,0,1.5-3.3,1.2-5.1,2.1-6.6,5.4-4.2.3-7.5,4.5-11.1,6.6,2.7,1.5,3.6-3.3,7.2-3.3.3.9-.6.6-.6,1.5.9,0,.9-1.2,2.4-.9,0-1.2-.9-1.2-.3-2.4,2.7,1.2,3.6-2.4,6.3-2.4v2.1c-1.8,0-3,2.4-4.5,1.5,0,.6.3,1.2.6,1.2-6.9,7.2-17.4,12.6-24.9,18.6-.3,0-.3-.6-.6-.9-11.7,10.8-26.7,18.3-37.8,29.7.9,13.5,6.3,28.2,4.2,43.5a57.56,57.56,0,0,1-7.5,16.5c-6.3,5.4-16.5,12.6-27.6,8.7-8.1-4.8-12-13.8-14.7-23.7-.6-4.2-1.2-7.2,0-10.8,6.9-18,20.4-30.6,33.6-43.8.3-3.3-.6-6.3-.3-9.9h1.2c-1.5-10.5.6-21.3.9-35.4,4.8-10.2,6.9-20.7,15.9-26.7,5.7,2.4,12.3,5.4,10.2,12.3-3.9-.3-5.7,1.5-7.5,3-8.7,17.7-11.1,30.9-9,50.7,12-7.8,24.3-18,36.3-24.6,0-.6-.6-.6-.3-1.2,3.6-1.2,4.5-4.8,9.3-5.1,0-.6-.6-.9,0-1.2,1.2,0,0,.3.3,1.2,3.6-2.7,4.8-6,9.6-7.5C425.82,213.08,425.82,213.68,426.42,213.68Zm-95.1,80.1c.3.9-.6.9-.3,1.8C331.92,295.88,331.92,293.48,331.32,293.78Zm2.4-2.4c-.6.3-1.2,0-.9.9A.8.8,0,0,0,333.72,291.38Zm-.3-.6c1.5,0,1.5-1.2,1.8-2.4-.9-.3-1.5,0-1.5.6C335.52,289.58,333.42,289.58,333.42,290.78Zm3.9-5.7c-1.5,0-1.5,1.8-2.1,2.7C336.42,287.48,337,286.58,337.32,285.08Zm18,33c11.4-8.4,12.9-29.4,8.7-44.7a.29.29,0,0,0-.3-.3c-11.7,12-27,24.9-27.3,48C341.82,325.28,350.22,320.48,355.32,318.08ZM342.72,277c-.9,2.1-3,2.7-3.6,5.1C340.92,281.18,343.32,279.08,342.72,277Zm2.1-.9c0,.3.3.3.6.3-.3-1.8,1.5-2.1,1.8-3.6a4.23,4.23,0,0,0-3,3.3Zm3.3-5.1h1.2v-1.2h-.9c0,.3,0,.6-.3.6Zm6.6-5.7h-1.2c0,.3,0,.9.3.9C353.82,265.88,354.72,265.88,354.72,265.28Zm.6-1.2a1.87,1.87,0,0,0,1.5-.9c.9,0,1.2-.6,1.5-1.2-.9,0-1.2.6-1.5,1.2C355.92,262.88,355.62,263.48,355.32,264.08Zm4.5-14.4c.3,2.7-.3,5.1.6,6.9A18,18,0,0,0,359.82,249.68Zm11.7,8.4c.9-.3,1.2,0,1.2.9,2.1-.9,5.1-3,5.4-4.5-.6.6-.9,1.2-1.8,1.5,0-1.8,0-2.4-.9-3.3-.6.9.6,1.5-.3,2.1-.3,0-.6-1.5-.9-.3.6.3-.3,2.1-.9,2.1,0-.9-.9-1.2-.9-2.1.9-.3,1.2-1.8,1.8-2.7-1.5.3-1.8,1.2-3,1.5C370.92,256,373.32,256,371.52,258.08Zm3.6-6.3v-.6h-.6v.6Zm9.9-2.7c.3.6-1.2,1.2,0,1.5,0-.9,1.2-.3.9-1.5H385c.6-1.2-1.5-2.7.9-3,.6.6,0,1.2-.3,1.8,1.2-.6,1.8-.6,1.2.9,3-1.5,5.1-4.2,8.1-5.4,0-1.2-1.8-.9-2.1-1.8.6-.9,1.2-1.8,2.4-1.8.3.6-1.8,1.2-.6,2.1,3.9.6,5.1-3.6,8.7-4.5-.6-1.2.9-2.1.9-3.9,1.8-.3,6-3.6,6.6-5.1,0,.9-.9.9-1.2,0,0-.9,1.5-.3,1.2-1.2-2.4,1.2-5.1,1.8-6,4.2,0,.6.9,0,.9.6-.6.3-.9.9-2.1.9-1.8-1.5-7.5,2.7-9,5.1.6,0,1.8-.6,1.8.3-.6,0-.6.6-1.2.6a2.9,2.9,0,0,0-2.4-.6c-.9.6-1.2,3.6-2.1,2.7,0-.6.9-.3.6-1.2-2.7,1.5-8.7,4.5-7.2,7.2-4.8-1.8-7.2,3-7.2,7.5,1.5.3.6-1.8,2.1-1.5,0,.9-.6,1.2.6,1.5.6-.6.9-1.5,2.1-1.5v-.6C383.52,252.08,383.52,249.68,385,249.08Zm-6.9,2.7c-.9.3-.6-1.5.3-.9C378.42,251.18,378.12,251.48,378.12,251.78Zm.3-2.1c.6,0,.9.6.6,1.5-.3,0-.3-.3-.6-.3Zm2.1.3c.9.3,1.2,1.2,1.2,2.4C380.82,252.08,379.32,250.88,380.52,250Zm2.7-.9v.6c-.9-.6-.9.3-1.5-.3,0-.6.9,0,.9-.6C382.92,248.48,382.92,248.78,383.22,249.08Zm2.1-3.3a11.23,11.23,0,0,1,3.9-3.6C388.62,244,386.82,244.88,385.32,245.78Zm3.9,0c-.3-.9.6-.6,1.2-.6A1.56,1.56,0,0,1,389.22,245.78Zm4.2-6.9v.9h-.6v-.9Zm8.1-1.8c0,.9-1.8,0-1.2,1.2-1.8-1.5,1.8-3,3.3-3.6C403.62,235.88,400.32,235.88,401.52,237.08Zm19.8-16.2c-3.9.3-6,2.4-8.1,4.5,1.2.6,1.5-.3,2.4.6.6-2.4,2.7-3.6,5.4-4.2-3,6.6-9.9,7.5-14.1,13.2,4.5-2.7,9.3-5.1,12.9-9-.9-.6-1.2,1.5-1.5.3,1.2-1.2,5.4-1.2,4.8-3.3-.3,1.5-1.5.3-1.5-.6.9-.9,3.3-2.1,2.4-3.6,1.5,0,2.1-1.8,3-1.2-.3-2.1-2.4-.3-3.3,0,0,.6.3.6.3,1.2A2.63,2.63,0,0,0,421.32,220.88Zm-8.7,1.5c-1.2.3-2.1.6-2.1,1.8C411.72,224.18,412,223,412.62,222.38Zm.3,3.3c-.9,0-1.8.3-1.8,1.5C412.32,227.18,413.22,226.88,412.92,225.68Zm5.4-1.2v-.6h-.6v.6Zm6.3-9.9c-.9,0-1.2.3-1.2.6A1.56,1.56,0,0,0,424.62,214.58Zm7.5.3c.3-5.1-4.5,0-5.1,1.5C429.42,216.68,430.32,212.78,432.12,214.88Zm-3.6-3.3c1.2-.3,1.8-1.2,2.7-1.8-.6-.6-2.4.9-2.7,1.8C427.92,211.88,428.52,211.88,428.52,211.58Zm5.4,1.8c0-1.2-.9-1.2-1.5-1.8,0,.3-.3.3-.3.6C433,212.48,432.72,213.68,433.92,213.38Zm0-5.7a10.45,10.45,0,0,0,3.9-3.3c.6.3,1.5-.9.6-1.2,0,.6-.6.6-.6,1.2A10.45,10.45,0,0,0,433.92,207.68Zm3.6,3.6c-1.2-1.5,0-1.5.3-3-1.2.6-3.9,1.5-3,3C435.42,210.38,436.32,211.58,437.52,211.28Zm1.8,3.6c-1.2-2.7,2.7-3.3,5.1-3.9C443.82,213.38,441.72,214.28,439.32,214.88Zm3.9-10.8c-2.1.6-2.7,1.5-3.9,3.3,3-.6,4.5-3.9,5.4-4.8-.3-.9-1.2.3-1.8.3C442.92,203.48,442.92,203.78,443.22,204.08Zm-.3-3.6c.3-.3,0-.6,0,0C442.32,200.78,442.92,200.78,442.92,200.48Zm1.5,9.6c-.6-1.8,1.2-1.5,2.1-2.1C446.22,209.18,445,209.48,444.42,210.08Zm1.8-9.6c-.3.6-1.2.3-.9.9C446.22,201.68,447.12,200.48,446.22,200.48Zm.9-3.6c-1.2-.3-1.8,1.5-.6,1.8C446.22,197.48,447.12,197.48,447.12,196.88Zm35.4-1.8c-3.6,9-12.3,13.2-18.9,19.2-5.7,1.2-12.6,5.1-18,1.2-3.3,4.5-3.6,9.9-5.1,16.5,12.3,8.7,30.3-2.7,42.9-6.6a218.77,218.77,0,0,1,22.2-11.1c.9-1.2,2.7-1.5,3.6-2.4.9,2.7-5.4,4.2-7.5,6.3,0,.6.6.3,1.2.3-8.4,7.5-17.7,12-28.8,15.9,2.1,0,6.6,0,9.3-1.5-.3,1.5-1.5,1.8-2.7,2.4,0,.6,1.8-.3,1.2.9-3.6,1.2-6.9,4.8-8.7,3.6-1.5.6-.3,1.2-.9,2.1-8.1,3.6-13.5,6-24,6-14.4-3-16.2-17.1-14.4-30,5.4-16.5,17.1-34.8,33.6-42.9,3-1.5,6.6-.9,9.6-.9,2.4.3,3,2.1,5.1,2.4.6,3.6,3,5.4,5.1,7.5C486.42,189.08,487.32,192.38,482.52,195.08Zm-15.6-6.6a70.34,70.34,0,0,0-13.5,13.2c9.9-5.1,18.9-11.1,24.6-20.1-5.1,2.1-11.1,3.6-14.1,7.8C465.12,189.68,466,187.28,466.92,188.48Zm-5.4,50.4c1.5-.9,2.4-1.5,3.9,0,.6-.6-.6-1.8.6-1.8,2.1,0,5.7-1.5,7.5-2.7-4.5,2.4-10.2.9-13.8,2.7C460.62,237.38,461.82,236.48,461.52,238.88Zm77.1,9.9c.3,0,.3-.3.3-.6-.3,0-.3.3-.3.6-.6-.3-.6,1.8,0,1.5.6,3.3-2.4,7.5-3.6,11.4-8.4,27.6-18.6,56.4-23.1,82.5-1.2,8.1-.6,15.3-4.2,24.6,3,.6-1.5,4.5.6,5.4,0,1.2-1.2,1.2-1.5,2.1.3,2.1.3,12.6-2.1,16.2.9,9.9-3.6,17.4-2.4,27.6-2.7,1.8-4.5-.3-6.6-.6a10.78,10.78,0,0,0-.6-3.3c-1.2,0,.6,2.7-1.2,2.1,0-.6-.3-1.5,0-2.1-3.9-3-6.6-10.2-6-15.3.3-35.7,14.4-60.3,16.2-92.4,2.7-13.8,4.5-25.5,5.1-39.9,4.2-19.5,3.3-41.7,7.2-57.9-.6-8.7,1.2-15.3,0-23.1,6.9-2.4,14.1,3.9,13.5,11.1-.9,13.8-2.7,27.6-3.9,41.4-1.2.3,0,1.5-1.5,1.8a36.56,36.56,0,0,1-.9,13.8c9.6-23.7,18.6-48,34.2-66a249.7,249.7,0,0,0-28.2,54c-.3,1.2,1.2.3.6,1.5-2.1-.6-3.6,4.2-2.4,6.3-3.3,2.1-5.7,11.7-5.4,17.1,6.3-19.2,16.2-41.1,24.6-59.4l.9.9c0-2.7,3.9-5.1,2.7-6.6a5.79,5.79,0,0,0,3-4.2c5.4-8.1,11.7-14.7,17.4-22.2,5.1-5.1,13.5-7.8,19.5-2.4,0,.6-.3.9-.9.6a16.64,16.64,0,0,1,6.6,4.2c-1.5,1.8,1.2,2.4,1.8,3.6,4.2,7.8-.6,25.5-5.4,33.3-.6,1.2-2.4,1.8-3.3,3-3,4.5-3.6,8.7-7.2,11.7-4.2,4.2-8.1,8.4-13.5,10.8-1.5.6-2.7-.9-3,.6-6.3-4.2-13.5-15.3-5.4-21.6a50.07,50.07,0,0,1-1.5,5.4c0,2.4,3.3.6,2.1,3.6,15.3-10.5,31.8-32.1,25.2-51-2.1.3-3.6,3.3-5.7,2.7-19.2,19.2-29.7,42.6-41.4,68.7h-.3C538.62,249.38,539.22,249.68,538.62,248.78ZM492.12,382c.6,0,0-.3,0,0C491.22,382,492.42,383.48,492.12,382Zm3-13.2c-.3-1.5,1.2-1.2.3-2.7.6,0,1.2-1.8,0-2.1,0,1.5-.6,0-1.2,0,0,1.2.9,1.5,1.2,2.1C494.22,366.68,493.92,368.18,495.12,368.78Zm.9-5.7c.6-2.1,1.2-3,.9-4.5.9-1.2.6-3,.9-5.1a7.78,7.78,0,0,0-.9,5.1C495.42,358.58,494.82,362.18,496,363.08Zm2.4-12.3c-.3-.6-.3-.9-.9-.9,0,.6,0,1.2.3,1.2C497.82,350.78,498.12,350.78,498.42,350.78Zm8.1-18.3c.3.6-.3,2.1.3,2.1C506.52,333.38,508.32,332.48,506.52,332.48Zm5.1-31.8c-.3,1.2-1.2,3.9-.3,4.2C510.72,304.28,513.42,301.58,511.62,300.68Zm.3-1.8c-.3.6-.6,1.5.9,1.2C512.82,299.48,512.52,299.18,511.92,298.88Zm.9-2.1c-.3.6-.6.6-.9.9C512.82,298.28,513.72,296.78,512.82,296.78Zm7.8-6.3c0,1.2-1.2,3.6,0,3.6C520,292.88,522.42,290.78,520.62,290.48Zm.3-8.1c-.3.3-.6,1.8.3,1.8C520.62,283.28,521.82,283,520.92,282.38Zm1.2-2.1c0-1.5.6-1.2.9-.6,0-.9,1.2-.6.9-1.8a1.56,1.56,0,0,1-1.2-.6c1.2-.3,1.2-1.2.9-2.1.3-.3.9-.6,1.2-.9a2.17,2.17,0,0,0-.6-2.4,1.85,1.85,0,0,0,.3,2.1C522.42,274.28,521.82,277.88,522.12,280.28Zm.6,4.5c-.3.6-1.2,1.2,0,1.5C522.42,285.68,523.92,285.08,522.72,284.78Zm3.9-16.2c-1.2-.3,0-1.2-.6-1.8,2.1-.3,1.2-1.8,3-2.7-3.6-.9-3,3.6-4.2,5.7C525.72,270.38,526.32,269.18,526.62,268.58Zm2.4-10.5c0,.9-1.2,1.5,0,1.8C528.72,259.28,529.92,258.38,529,258.08Zm2.7-4.5c-.6,0-.6-.6-.9-.9-.6.6-1.2,3.3.6,2.7C531.12,254.18,531.12,254.48,531.72,253.58Zm1.5-4.5H532c-.3.3-.6,2.1,0,2.4C532.32,250.28,533.52,250.58,533.22,249.08Zm1.8-3.6c-.6.3-.6,0-.6-.6.3-.3.3-1.2.9-1.8.9.3,1.2,1.5,1.8,1.8,0-.6,1.2-.3,1.2-1.2-.6-.6-1.5.6-1.5-.3v-.6c1.2,0-.3-1.5,0,0-1.8-.9-.3-2.4-.3-3.3-2.7,2.4-2.4,5.1-3.9,8.7.6,0,.6.3,1.2.3V247C534.72,247,534.72,246.08,535,245.48Zm3-11.1c-.3.6-1.2,1.8-.6,2.1C537.72,236.18,538.62,234.68,538,234.38Zm.6-.3c0-.6,1.5,0,1.8-.6-.3-3.3,1.8-5.1,3-7.2.3-1.2-1.2-.3-.9-1.5h2.1c0-.9-.9-1.2-1.8-1.5a2.25,2.25,0,0,0-.3,1.5C540.72,227.18,539.22,231.68,538.62,234.08Zm2.4,3.3c-.6,0-.9.3-.9.6C540.72,238,541,237.68,541,237.38Zm22.8-48.3h-.3c-.3.9-1.2,1.2-1.2,2.1H562a148.89,148.89,0,0,0-17.7,30.3.29.29,0,0,0-.3.3c-.6.3,0,.6,0,0,.3,0,.3,0,.3-.3,1.5-.6,1.5-2.4,2.7-3.3v.3a1.59,1.59,0,0,0,2.1-1.2c-1.2,0-1.2.9-2.1.9,3.3-9,11.1-18.6,15.3-27a2.25,2.25,0,0,1,1.5-.3v-1.8a4.16,4.16,0,0,0,2.4-2.1c2.1-2.1,6-5.7,6.9-8.7-2.4,2.7-5.4,4.8-6.9,8.7A3.36,3.36,0,0,0,563.82,189.08Zm-17.7,34.2c-.6,0-1.2,0-.9.6C545.82,224.18,546.12,223.88,546.12,223.28Zm3.6-9.3v.9C550.92,215.48,550.92,213.38,549.72,214Zm8.4-24.6c0,.3,0,.6-.3.3A.29.29,0,0,1,558.12,189.38Zm5.1-6.3c-1.5,2.4-3,4.8-5.1,6.3A17.54,17.54,0,0,1,563.22,183.08Zm.3,11.4c-.6,0-.6-.3-1.2-.3,0,.6-.3.9-.3,1.5C563.22,196,563.22,195.08,563.52,194.48Zm0-11.4c.9-2.4,2.1-4.2,4.2-5.1C566.82,180.38,565,181.58,563.52,183.08Zm.3,51.6c10.8-6.3,15-15,20.4-26.4,1.2-.3,2.4-2.7,1.2-3,0,1.2-.9,1.2-1.2,3C577.92,217.58,572.52,227.78,563.82,234.68Zm1.8-41.7c0,.6-.6.9,0,1.2C565.62,193.58,566.22,193.28,565.62,193Zm3.9-3.9a1.56,1.56,0,0,0-.6-1.2c-.3.9-1.8.3-1.5,1.5C568.32,189.38,569.22,189.38,569.52,189.08Zm-.6-12.3c1.8-2.1,2.7-3,5.7-3.9C572.82,174.08,570.42,176.78,568.92,176.78Zm2.1,6.9c0,.3-.6.9,0,1.2C571,184.28,571.62,184,571,183.68Zm3.9-6.9c0,.6-.6.6-.6,1.2C574.92,178.28,575.82,177.08,574.92,176.78Zm2.1-4.2c-.6,0-.6-.3-.9-.3,0-.3.3-.6.3-.9A1.56,1.56,0,0,1,577,172.58Zm-.9,3.6c1.2,0,1.8-.3,2.1-1.2.9.3,2.4-.6,1.5-.9-.3.6-1.5,0-1.5.9C577,175,576.72,175.88,576.12,176.18Zm15.3,25.8c-.3-.9.6-.9.6-1.8-.9.3-.6-.6-1.2-.6.3-.3.6-.9,0-1.2-.3.3-.6,1.2,0,1.2C590.52,200.48,589.92,202.28,591.42,202Zm40.5-19.5a.45.45,0,1,0,0,.9v1.2H631c-.89,4.8-5.09,11.4-8.39,13.8.89,3.9-5.11,6.9-3.31,10.8-1.8.9-3,5.4-2.39,8.1-2.71.6-1.81,4.8-3.31,6.6,10.2-8.7,18.6-23.7,35.4-25.5a2.25,2.25,0,0,0,2.7,1.8,6.86,6.86,0,0,1,1.8,2.7,6.63,6.63,0,0,1,2.7.3c5.41,11.7,0,33,10.5,41.4.61,0,0-1.5,1.21-1.2-.3.9.6.9.9,1.8,6.6-.3,12.6-1.2,16.8-6,20.4-12.6,38.7-29.7,59.1-43.5.3,7.5-8.4,9-10.5,15.3-.6,0-.9-.6-.6-1.2-1.2,1.5-3.6,1.8-3.6,4.2-1.2.3-3.3.6-3.3,2.7-.6,0-.6-.6-1.2-.9-.6,3-3.6,1.5-3.9,5.1,1.8-.6,1.5-1.5,3.6-1.8-.3,3.9-4.5,2.4-5.4,5.7.3.6.6,0,1.2,0-.3,2.4-3,3.6-4.5,3.6,0,1.5,1.5,1.8.6,3-1.2.3-1.2-.9-1.5-1.5-1.5,5.1-7.5,5.7-8.7,11.1-.6,0-.9,0-1.2-.3-4.8,6.9-14.4,13.8-23.7,16.5-22.81.6-32.4-20.4-36-43.2-17.09,12.6-27,32.1-41.09,47.7v2.1c-2.41,2.4-3.61,0-6.31-.3-2.7-4.2-5.7-10.5-6.6-15.3,3.3-11.4,7.5-24.6,10.5-36.9-.3-.6-.59,0-1.2,0,0-1.8-1.5-4.2.61-5.7.59,0,.89.3.89.6,5.11-7.5,6.3-19.5,7.5-29.1.61,0,.3.6.9.6,1.21-5.7,4.21-12,3.3-17.1,1.2.9,2.41-3,.91-3.6,0-.6.89-.3,1.19,0,0-1.2,0-2.1.6-2.7,0-.6-1.2-.3-.6-1.5,3-1.5.6-6.3,3.31-8.1-.31-.6-.61-.3-1.21-.3,1.21-.3.9-1.8,1.8-2.4,0-1.2-.9.3-1.2-.6a7.26,7.26,0,0,0,2.4-3.9c0-.9-1.2,0-.9.6.61-2.7,1.2-6,3-8.7-.3-1.2-.89,1.5-1.19,0s.59-1.8,1.8-2.1c.59-7.2,3.59-11.4,3.59-18.3.61,0,.61.6,1.2.3.3-4.2,2.41-8.4,2.41-12.9.59,0,.3.9.89,1.2.3-.9.61-2.1.91-3-.3-.9-.91.9-.91,1.2-.59-2.1,2.11-4.2,2.7-6.61,0-1.19-1.2.91-.9-.29-.3-1.21.31-1.21.9-.9,0-3,2.1-4.5,1.5-8.1,1.21,0,1.21-1.21,1.8-1.8,0-.3-.59-.6-.59,0,1.5-4.8,2.7-7.8,4.79-14.11-.29-1.19-.59,1.2-.89,1.5-1.2-3.3,4.19-4.8,2.1-8.39h1.2c-.3-2.11-.61-4.8,1.8-5.7-.6-1.21-.3-1.21,0-2.41.59,2.11,1.2-1.8,1.79-3a3.65,3.65,0,0,0,.61-3.89C657.12,31,657.71,10,676,11.77c1.8,3.3,6,4.2,9,6.61,5.4,9,3.9,19.2,2.1,30-1.2-.3-.9.59-1.5.89,0,.61.3,1.2,1.2.9-1.2,1.5-.6,4.21-2.1,4.8.9,6.61-3.9,13.81-4.8,21-.6.6-.9,0-1.8,0v1.8c.3-.3.3-.61.3-1.2,1.5,3.59-2.71,7.5-2.71,12-.89.59-.89-.3-2.39,0,.3.59,1.2.59,1.5.9-2.11,8.1-6.3,14.7-7.5,21.9-.61-.3-1.2-.9-1.8-.3-.9.6,1.5,1.2,1.19,2.7-1.19,2.4-4.5,4.5-3,7.5h-1.5c.91.9,0,1.8-.89,1.8.3,1.2,0,1.5,0,2.7-1.2.3-1.2-.3-1.81-.3,0,.9.31,1.5,1.2,1.5,0,2.4-3.29,2.4-2.09,5.1-3,.3-1.5,5.4-4.5,5.7,1.8,3.3-4.5,6.9-2.7,10.2-.6,1.2-3,.9-2.41,3.6-1.19.3-.89-.9-1.5-.9.91,2.4-.89,3.6.31,5.4-6.31,5.7-5.4,14.7-12.31,19.2,0,.6,1.2.3,1.2.6-.29,1.2-.9,2.4-1.79,1.2,1.2,3-1.8,4.2-2.41,6.3h-.59Zm-29.71,57.3v-.9h-.9v.9Zm0-4.2v1.2C603.11,237.38,603.11,235.28,602.21,235.58Zm1.8-4.5c-.3.9-2.4,3,0,3.3C603.42,232.88,604.92,231.68,604,231.08Zm.3-3c0,1.2-.6,2.1.3,2.7.9-1.8,2.1-3.9.31-5.4-.91.9.89,1.5.59,3C604.92,228.38,604.61,228.38,604.31,228.08Zm3.9-9.6c-.6,1.5-3.6,5.1-.9,6.3C607,222.38,609.11,220.58,608.21,218.48Zm7.5,7.8c-1.5.6-3.6,2.7-3,4.5C613.31,229,615.11,228.38,615.71,226.28Zm1.5-58.2c.6-.6.6-1.8-.29-1.8,0,.9-1.21.3-1.21.9C616.61,167.18,616.31,168.38,617.21,168.08Zm.3,56.1c-.59.3-1.5,0-1.2,1.2C617.21,225.38,617.81,225.08,617.51,224.18Zm1.2-62.7c-.6,0-.6-.9-1.5-.6a15.15,15.15,0,0,1-.29,3.9C618.11,164.48,618.42,163,618.71,161.48Zm.6-3.9c0,.3,0,.9-.6.6-.29-1.2,2.1-2.1.3-2.7,0,1.5-1.5,2.4-.59,3.9C619.61,160,620.21,158.18,619.31,157.58Zm-.89,69.6v.9C619.31,228.68,619.31,226.58,618.42,227.18Zm2.69-6.9c-1.19.3-1.5,1.5-2.1,2.4A2.55,2.55,0,0,0,621.11,220.28Zm-.3-69.3a1.32,1.32,0,0,0,1.5-.3c-.3-1.5,1.2-3.3-.6-3.6-1.2,1.8-1.79,5.4-2.4,7.5C621.11,154.28,620.51,152.18,620.81,151Zm.3,3.6c-.9,0-.9.9-.9,1.5C621.11,156.38,621.11,155.48,621.11,154.58Zm1.2,3c-.89.3-1.8.3-1.8,1.5C621.42,159.08,621.71,158.18,622.31,157.58Zm.31,65.4c-1.2.3-2.41,2.1-1.81,2.7C621.71,225.08,622.92,224.78,622.62,223Zm-.61-56.1c-.59,0-.9.3-1.2.9C621.42,167.78,621.71,167.48,622,166.88Zm1.8-23.4c-.3,1.2-.89-.3-1.5,0-.6.6-.6,1.8,0,2.1C623.21,145.58,624.71,144.38,623.81,143.48Zm-1.5-2.4c0,.9.9,1.2,1.5,1.8.61-.9-.6-1.2-.3-2.1a1.12,1.12,0,0,1,.91.3c.29-.9-.91-2.4,0-3,0,.6,0,1.2.29,1.2.91-.9.91-1.8-.29-2.1,0,.3-.61.3-.91.6A5.4,5.4,0,0,1,622.31,141.08Zm.61,77.7c.89.6,1.2-1.2.59-1.2-.3.3-.3.6-.59.6Zm2.39,1.8c-1.19.3-2.1.9-1.8,2.1A3.21,3.21,0,0,0,625.31,220.58Zm-1.19-73.2c-.31.6-.31,1.5-.61,1.8C624.42,149.78,625,147.68,624.12,147.38Zm0-24c0-.6.3-.6.3-1.5C625,121.88,625,124,624.12,123.38Zm1.8,13.8c-.61-2.4,1.2-4.2,0-5.4-.3,1.5-1.21.3-1.8,1.2C625,134.18,625,136.28,625.92,137.18Zm-1.8-2.7c0,.6,0,1.5.3,1.5C625,135.38,625,134.78,624.12,134.48Zm1.19,81c-.3.6-1.5,1.5-.6,1.8C625,216.68,626.81,216.08,625.31,215.48Zm-.6-95.1v-.6c.3,0,.3,0,.6-.3C625.92,119.18,625.62,121,624.71,120.38Zm1.21,26.7c.29,1.2-.61.9-.3,1.8C626.51,149.18,627.42,146.78,625.92,147.08Zm1.79-18c-.9.3-2.4.3-2.09,1.5C626.51,130.28,628,130.58,627.71,129.08Zm12.91,19.5c4.5-9,10.2-20.4,14.09-32.4.61,0,1.21,1.5,1.21,0,.29-1.2-1.21-.3-.91-1.5,7.51-15.6,11.7-28.2,17.41-45.3-1.5-.3-.6,1.5-1.5,1.79,2.7-15.29,11.1-33,8.4-51.9-5.7.3-6.3,7.2-9.61,8.7-5.69,12.61-11.09,26.11-16.2,38.41,0,1.2.61,1.79.61,3-3.91,4.79-4.8,15-8.11,20.1-4.8,26.4-15.89,53.7-19.8,80.7,5.71-10.5,10.21-21.9,16.5-31.8,7.21-17.7,16.21-39.3,24.61-57.9-7.5,26.4-20.7,48.6-29.11,72.9-4.2,3.3-6.29,11.7-9.29,17.1,3.29-1.5,4.79-6.3,5.39-9.6,2.4.3,3-4.5,3-6.9.9,0,.9.6,1.5.3.9-1.8.61-4.2,1.81-5.7C640.92,149.18,641.21,148.58,640.62,148.58Zm-13.2-25.5c.29,1.5-2.41,3.6-.3,4.2C627.12,126.38,629.21,123.68,627.42,123.08Zm-.3,65.7a1.12,1.12,0,0,0,.3,1.8C627.71,190.28,628,189.08,627.12,188.78Zm0-45c0,.9-.61,2.1.3,2.4C626.81,145,628.62,143.78,627.12,143.78Zm1.8,73.2h-1.21c0,.9-.59.9-.29,1.8C628.62,218.78,628.62,217.88,628.92,217Zm.29-95.1c0-.6-.29-.9-1.2-.6v.6ZM631,115c-.59,0-.59-.3-1.2-.3-.89,1.2-.6,3.6-.89,5.1A5.62,5.62,0,0,0,631,115Zm-.3,99c0,1.8-1.79,1.2-1.79,2.7C629.51,217.58,632.51,214.58,630.71,214Zm-1.5-88.2c1.5,0,2.1-3,1.5-4.2-.59.6-.29,2.1-1.5,1.8C629.81,124.88,629.81,124.58,629.21,125.78Zm.91,55.5c0,.6-.91.3-.61,1.2C630.12,182.78,631,181.58,630.12,181.28Zm.59-61.2v-.6h-.9v.6Zm.6-6.3c0-1.2,0-1.8-1.19-1.5v1.5Zm0,17.4a4,4,0,0,1,.31-2.7c-1.2,0-2.11,3-.91,3.3A.65.65,0,0,1,631.31,131.18ZM631,112c.91,0,1.8-1.8.61-1.8,0,.3-.61.3-.91.3A1.34,1.34,0,0,0,631,112Zm.91-3.3c.89,0,.29,1.2,1.5.9.59-.6,0-2.7-.91-2.7a2.54,2.54,0,0,0-.59,1.8C630.42,108.38,631.92,109.58,631.92,108.68Zm1.2,103.2c0,.6-1.81,1.5-.61,2.1C632.51,213.38,634.62,212.48,633.12,211.88Zm-.61-97.5c.91.6.91-1.2.3-1.2,0,.3,0,.6-.3.6Zm2.41-10.2a4.45,4.45,0,0,0-.3-2.1h-1.2c.89,1.5-.61,1.2-.61,2.7C634,104.48,633.71,103.58,634.92,104.18Zm-2.11,64.5h.61c.29-.3.29-.9-.3-.9a.3.3,0,0,1-.31.3Zm.61-48.3c0,.3-.91,1.5,0,1.5C633.71,121.58,634.31,120.68,633.42,120.38Zm0-14.7c0,.6-.61.9,0,1.2C633.42,106.28,634,106,633.42,105.68Zm.29,12.9c1.21-.3,1.5-1.2,1.8-2.4-.59-.6-1.8.3-2.09,1.2C634.62,117.68,634,117.68,633.71,118.58Zm1.8-17.1a12.91,12.91,0,0,0,0-4.8c-.3,0-.89,0-.89.3,1.19.9-1.5,2.7,0,3.6C635.21,99.38,634.31,102.08,635.51,101.48Zm.61,9.6c-.91.6-.91,2.1-1.2,3.3C635.81,114.08,636.42,111.68,636.12,111.08Zm.89-15.9c-.89-.9.91-1.8-.59-2.1a14.54,14.54,0,0,1-.91,2.1Zm-.59,5.4c-.61.6-.3,1.8-.3,2.7C637.62,103.28,637,101.48,636.42,100.58Zm1.79-9.9c.3-1.2-.59-1.51-1.5-1.51.3.91-.59.91-.29,1.81C637.62,91.28,637.31,89.78,638.21,90.68Zm-.9,16.2V106h-.6v.9Zm-.6,1.8c0,.6.3.9.6.9C637.31,109,637,108.68,636.71,108.68Zm1.8-15.9c0-.6-.3-.9-1.2-.6v.6Zm1.81-9c-1.51-1.2-3.61,3-2.11,3.6A7.17,7.17,0,0,1,640.32,83.78Zm0,5.39c0,1.51-2.4,3.31-.61,3.91C639.12,91.28,642.42,90.38,640.32,89.17Zm-1.2-3c.3.61-.31,2.11.59,1.81C639.71,87.38,640.32,86.48,639.12,86.17Zm1.8-9.89c-.3,1.5-1.8,5.39-.91,5.7C641.21,80.48,641.21,78.08,640.92,76.28Zm.9,20.1c-1.81,0,.3-2.1-1.2-1.8-.3,1.2-.3,2.7-.61,3.6C640.92,98.18,641.21,97,641.82,96.38Zm-.9,67.2c.59,1.5-1.5,2.1-.3,3C640.62,165.68,642.71,163.88,640.92,163.58Zm-.3-63c0,.9.59,1.2,1.2,1.5C641.82,101.18,641.21,100.88,640.62,100.58Zm1.2-8.1v-.9h-.9v.9Zm-.9,113.4v.9C642.12,207.38,642.12,205.28,640.92,205.88Zm.59-131.1c-.3.89,0,1.5.61,1.5C642.71,75.67,642.42,74.48,641.51,74.78Zm.61,3.3c0,.59-1.2,2.09-.3,2.4C641.82,79.88,643,78.67,642.12,78.08Zm.3,5.4v-.9h-.6v.9Zm1.79-11.7c-.59,0-.29-.9-1.5-.61.3,1.21-.89.91-.59,2.11C643,73,643.92,72.67,644.21,71.78Zm-.59,5.39c0,1.5-.91,2.11-1.2,3C643.62,80.17,644.82,77.48,643.62,77.17Zm-.3-6.59c.89.3.89-1.2.3-1.2,0,.29,0,.29-.3.29Zm0,21.9v.9C644.21,94,644.21,91.88,643.32,92.48Zm.89-17.1c0,.6-.59.9-.29,1.5C644.82,77.48,644.82,75.38,644.21,75.38Zm0-9.91c-.29.31-.59,2.7,0,3.31C644.51,67.88,645.71,65.78,644.21,65.47Zm1.21,13.2c-.3,1.21-1.5,3.31-.3,4.5C644.51,81.08,647.21,79.58,645.42,78.67Zm-.3,67.51c-.3,0-.91,1.2,0,1.2C645.12,147.38,646,146.18,645.12,146.18Zm0-81.6c-.3.89.89,1.8.89.89C645.42,65.47,645.42,64.88,645.12,64.58Zm0,87.6h.59c0-.3,0-.3.3-.3V151h-.59c0,.3,0,.6-.3.6Zm.59-90.3c1.21-.6,1.5-2.1,1.8-3.6a2.34,2.34,0,0,0,1.2-1.2c-1.5.59-.29-1.5-1.2-1.5a2.9,2.9,0,0,0,0,2.7C646.32,58.88,645.12,60.67,645.71,61.88Zm1.21,3.9V67C647.82,67.28,647.82,65.17,646.92,65.78Zm1.2,3c0,.3-.3.6-.3,1.19C648.71,70.58,648.71,68.47,648.12,68.78ZM649,52c-.59.61-1.5,2.41-.3,3C648.71,54.38,649.92,52.58,649,52Zm1.5,6.91v-.6c-.59,0-.59-.31-.89-.31-.3.31-1.8,1.5-.3,2.11C649.32,59.17,649.62,58.88,650.51,58.88Zm-1.8-3.6a1.81,1.81,0,0,0,.91,1.8C649.62,56.17,649.62,55.28,648.71,55.28ZM651.12,49c0,.3,0,1.2.3,1.2.59-.29.9-2.7-.6-2.4-.9.9-1.2,2.4-1.81,3.61C650.82,51.67,650.21,49.58,651.12,49Zm.3,6.31c0-.61-.3-.9-.91-.61v.61Zm1.2,3.6v-.6h-.91v.6Zm0-14.11c.89,0,.89-.6,1.8,0,.29-1.5-1.8-1.19-2.1-.89A1.09,1.09,0,0,0,652.62,44.77Zm.89-4.8c0,.3-.3.61-.3,1.2C654.42,41.47,654.71,40,653.51,40Zm-.3,84.61c0,.3,0,1.2.3,1.2C653.51,125.18,654.71,124.28,653.21,124.58Zm1.5-86.41c-1.5-.29-1.2,1.5,0,1.21Zm.61,93c.3-1.2-1.2-1.2-1.2-.3C654.71,130.88,654.71,131.48,655.32,131.18Zm.6-6c-.3-.6.29-1.8-.91-1.5,0,.6-.59.9-.3,1.5ZM655,37c.91.61,1.2-1.2.31-1.2,0,.31,0,.61-.31.61Zm1.5,4.2c-1.19-.29-1.5,1.5-.59,1.8C655.92,42.38,656.82,42.38,656.51,41.17Zm0,73.51c0-.3,0-.9-.59-.6,0,.3-.3.9.29.9A.29.29,0,0,1,656.51,114.68Zm1.81,5.1c-.9,0-1.5,0-1.5,1.2C657.71,121,658,120.38,658.32,119.78Zm1.8-8.7c.3,1.2-.91.9-.61,1.8A1,1,0,0,0,660.12,111.08Zm1.2-84.91c0-.6-.61-.9-1.2-.6v.6Zm3.89-5.4c-.59.61-.59,2.4.61,2.11C665.21,22,666.42,21.07,665.21,20.77Zm2.41,70.81c.3,1.2-1.2.9-.6,2.4C667.62,93.68,669.12,91.58,667.62,91.58Zm1.8-15.6c-.6,0-.6-.6-.6-1.2A1.56,1.56,0,0,1,669.42,76Zm-.3,8.4c.9.6.9-1.21.3-.9,0,.3,0,.3-.3.3Zm1.5,8.4v-.6h-.91v.6Zm1.5-25.2v1.2C673,69.08,673,67,672.12,67.58ZM674.21,64v-.59h-.89V64Zm4.51-7.5a2.23,2.23,0,0,1-.3,1.5C679.92,58,679.62,56.78,678.72,56.47Zm3-11.7c0-.89-.9-.89-1.8-.89v.89Zm-.3-9c0,.9,0,1.81.6,1.81C682.62,37.27,682.32,35.77,681.42,35.77Zm20.1,197.11V232h-.6v.9Zm2.4-3c-.9,0-2.1,1.2-.6,1.5C703.62,230.78,703.92,230.48,703.92,229.88Zm6.3-4.5a8.39,8.39,0,0,0-5.4,4.8C706.62,228.68,708.72,227.48,710.22,225.38Zm15.3-12.3c-4.8,4.2-10.8,7.2-15,12.3C715.62,221.48,723.12,217,725.52,213.08Zm-9,11.4c0,1.2-2.1.3-1.8,1.8C715.92,226.28,718.32,225.08,716.52,224.48Zm1.2-1.8v1.2C718.62,224.48,718.62,222.08,717.72,222.68Zm3.3-2.1c-1.8-.6-2.4,1.8-.9,1.8A1.81,1.81,0,0,0,721,220.58Zm8.7-10.8c-.6,1.5-3.3,1.2-3,3.3C727.32,213.38,731.52,210.68,729.72,209.78Zm-3,8.7a2,2,0,0,1,2.1-1.8C728.52,217.58,727.62,217.88,726.72,218.48Zm3-1.8c-.6-.3-.3-.9-.6-1.5C730.62,214.88,729.72,216.38,729.72,216.68Zm2.4-8.4c-.9,0-2.1,1.2-1.2,1.5C731.22,209.18,732.42,209.48,732.12,208.28Zm.6-.3h.9c.3-.6.3-.9-.3-1.2-.3.3-.3.6-.6.6Zm6.9-5.7a8.85,8.85,0,0,0-4.2,3.9C737.52,205.58,738.42,203.78,739.62,202.28Z"/><path class="cls-2" d="M356.57,289.06c-1.7,1.89-3.32,3.84-4.84,5.88l6,9.25a40.64,40.64,0,0,0,2.19-9.94Z"/><path class="cls-2" d="M220.61,316.38a20.48,20.48,0,0,1-5.51,5,50,50,0,0,1,1.73,13.06c0,25.26-18.67,47.09-47,47.09s-46.81-21.83-46.81-47.09a47.28,47.28,0,0,1,16.36-36.31,70.72,70.72,0,0,1-2.54-7.61c-13.41,9.93-21.65,25.91-21.65,43.92,0,30.07,22.93,54.5,54.64,54.5s54.78-24.43,54.78-54.5A56.65,56.65,0,0,0,221.92,317Z"/><path class="cls-2" d="M64.45,287.38c17.7,0,27.59,7.83,33.49,13.6.83.82,1.37.82,2.06.27l3.85-3.57c.54-.55.13-1.23-1.1-2.47C92.86,285.19,79,280,64.17,280,32.6,280,8.3,303.31,8.3,334.47S32.6,389,64.17,389c14.83,0,28.69-5.21,38.58-15.23,1.23-1.24,1.64-1.93,1.1-2.48L100,367.7c-.69-.55-1.23-.55-2.06.27-5.9,5.77-15.65,13.59-33.49,13.59-30.62,0-48.33-23.61-48.33-47.09S33.83,287.38,64.45,287.38Z"/><path class="cls-2" d="M201.34,298.94c1.21-1.23,2.41-2.51,3.58-3.86l.45-.83c.19-.37.42-.78.66-1.21A54.74,54.74,0,0,0,169.88,280a59.05,59.05,0,0,0-9.22.73l.12.86-.51,1.35a20.53,20.53,0,0,0,.13,3.55c.06.59.11,1.18.15,1.78a51.29,51.29,0,0,1,9.33-.86C182.58,287.38,193.34,291.8,201.34,298.94Z"/><path class="cls-2" d="M328.72,280.93h-5.35a1.1,1.1,0,0,0-1.24,1.24v11.72a85.59,85.59,0,0,1,7.4-12.72A1.3,1.3,0,0,0,328.72,280.93Z"/><path class="cls-2" d="M514.06,381h-1.13a50.71,50.71,0,0,1-.59,7h1.72c1.1,0,1.51-.27,1.51-1.37v-4.39C515.57,381.42,515.16,381,514.06,381Z"/><path class="cls-2" d="M608.93,316.49c0-17.16-10.85-35.56-37.76-35.56H535.3c-.16.49-.31,1-.46,1.46-1.35,4.25-2.7,8.53-4,12.81v91.58a1.09,1.09,0,0,0,1.24,1.23h5.35a1.09,1.09,0,0,0,1.24-1.23V352.05h32.53c1.65,0,3.3-.14,5-.28l23.61,35a2,2,0,0,0,2.06,1.23H607c1.1,0,1.38-.68.83-1.64l-24.3-35.83C601.51,345.87,608.93,330.9,608.93,316.49ZM571.86,345H538.64V287.93h33.22c19.91,0,29.38,13.46,29.38,28.56S591.77,345,571.86,345Z"/><path class="cls-2" d="M659.59,330.08c-17.58-6.32-30.07-10.85-30.07-23.89,0-11.8,9.75-18.81,24-18.81a37.35,37.35,0,0,1,26.49,11,1.55,1.55,0,0,0,2.47-.28l2.75-3.29c.68-.83.41-1.51-.55-2.47A43,43,0,0,0,654,280c-20.46,0-32.26,12.36-32.26,26.22,0,14.69,12.76,22.24,29.65,29,13.45,4.8,30.34,9.61,30.34,24.85,0,9.88-7.28,21.41-26.36,21.41-17.85,0-26.36-10.43-30.06-14.69a1.51,1.51,0,0,0-2.06-.13l-3,3.57a1.42,1.42,0,0,0,.13,2.19c2.89,3.16,13.59,16.48,34.74,16.48s34.45-12.63,34.45-28.56C689.51,342.3,672.9,335.16,659.59,330.08Z"/><path class="cls-2" d="M483.43,381h-28V337.36h37.91q.87-3.57,1.64-7.14H455.44V287.93H501.5q.47-3.45.83-7H448.85c-1,0-1.23.28-1.23,1.24V386.78a1.09,1.09,0,0,0,1.23,1.23h33.76C482.84,385.64,483.1,383.3,483.43,381Z"/><path class="cls-2" d="M322.13,320.66v55.27L250.06,282a2.36,2.36,0,0,0-1.92-1.1H244v3.47l-2.12,0,0,0a6.48,6.48,0,0,1-1,1.49V386.78A1.09,1.09,0,0,0,242.1,388h5.35a1.09,1.09,0,0,0,1.24-1.23V292.46l72.07,94.46a2.38,2.38,0,0,0,1.92,1.09h6.18c.69,0,1.1-.41,1.1-1.23V334.49A44.12,44.12,0,0,1,322.13,320.66Z"/><path class="cls-2" d="M432.92,280.93h-5.35a2.05,2.05,0,0,0-2.06,1.24l-36.79,56-11-16.79a72.52,72.52,0,0,1-3.93,7.28l11.08,16.92v41.19c0,.82.27,1.23,1.23,1.23h5.35c1,0,1.24-.41,1.24-1.23V345.59l41.05-62.74C434.3,281.89,434.3,280.93,432.92,280.93Z"/></svg>