<svg id="Layer_1" data-name="Layer 1" xmlns="http://www.w3.org/2000/svg" viewBox="0 0 753 428"><defs><style>.cls-1{fill:#f2f2f2;}.cls-2{fill:#fff;}</style></defs><path class="cls-1" d="M722.52,223.58C723.72,222.08,721,224.78,722.52,223.58Zm6.3-6.9a2,2,0,0,0-2.1,1.8C727.62,217.88,728.52,217.58,728.82,216.68Zm.3-1.5c.3.6,0,1.2.6,1.5C729.72,216.38,730.62,214.88,729.12,215.18Zm-92.41-40.8h0C637.31,175.58,637.62,173.18,636.71,174.38Zm-24.6-3.6Zm12.31-48.9c0,.9-.3.9-.3,1.5C625,124,625,121.88,624.42,121.88Zm.89-2.4c-.3.3-.3.3-.6.3v.6C625.62,121,625.92,119.18,625.31,119.48Zm2.11-8.1C627.12,111.38,627.71,111.68,627.42,111.38ZM667.62,79h0C666.71,80.18,668.82,78.38,667.62,79Zm1.2-4.2c0,.6,0,1.2.6,1.2A1.56,1.56,0,0,0,668.82,74.78Zm.89-1.8C670,71.48,669.42,75.08,669.71,73Zm-27.29-11.4C642.42,61.28,642.71,61.58,642.42,61.58ZM648.71,46h0C648.71,44.48,647.21,46,648.71,46Zm-47.4,193.8v-.9h.9v.9Zm.9-3v-1.2C603.11,235.28,603.11,237.38,602.21,236.78Zm97.21-3.3h0C700.62,232.58,698.52,234.68,699.42,233.48Zm1.5-.6V232h.6v.9ZM604,234.38c-2.4-.3-.3-2.4,0-3.3C604.92,231.68,603.42,232.88,604,234.38Zm99.31-3c-1.5-.3-.3-1.5.6-1.5C703.92,230.48,703.62,230.78,703.32,231.38ZM617.21,229h0C617.21,228.68,617.51,229,617.21,229Zm1.21-.9v-.9C619.31,226.58,619.31,228.68,618.42,228.08Zm-5.71,2.7c-.6-1.8,1.5-3.9,3-4.5C615.11,228.38,613.31,229,612.71,230.78Zm-7.2-2.4c.3-1.5-1.5-2.1-.59-3,1.79,1.5.59,3.6-.31,5.4-.9-.6-.3-1.5-.3-2.7C604.61,228.38,604.92,228.38,605.51,228.38Zm99.31,1.8a8.39,8.39,0,0,1,5.4-4.8C708.72,227.48,706.62,228.68,704.82,230.18ZM613,225.38h0C612.71,225.08,613.31,225.38,613,225.38Zm101.71.9c-.3-1.5,1.8-.6,1.8-1.8C718.32,225.08,715.92,226.28,714.72,226.28Zm-98.41-.9c-.3-1.2.61-.9,1.2-1.2C617.81,225.08,617.21,225.38,616.31,225.38Zm4.5.3c-.6-.6.61-2.4,1.81-2.7C622.92,224.78,621.71,225.08,620.81,225.68Zm96.91-1.8v-1.2C718.62,222.08,718.62,224.48,717.72,223.88Zm2.4-1.5c-1.5,0-.9-2.4.9-1.8A1.81,1.81,0,0,1,720.12,222.38Zm-96.61.3c-.3-1.2.61-1.8,1.8-2.1A3.21,3.21,0,0,1,623.51,222.68Zm-4.5,0c.6-.9.91-2.1,2.1-2.4A2.55,2.55,0,0,1,619,222.68Zm3-2.7h0C621.71,219.68,622.31,220,622,220Zm3.91-.9h0C626.51,217.88,627.12,220.28,625.92,219.08Zm-18.61,5.7c-2.7-1.2.3-4.8.9-6.3C609.11,220.58,607,222.38,607.31,224.78Zm15.61-6.6c.29,0,.29-.3.59-.6.61,0,.3,1.8-.59,1.2Zm4.5.6c-.3-.9.29-.9.29-1.8h1.21C628.62,217.88,628.62,218.78,627.42,218.78Zm-2.71-1.5c-.9-.3.3-1.2.6-1.8C626.81,216.08,625,216.68,624.71,217.28Zm4.21-.6c0-1.5,1.79-.9,1.79-2.7C632.51,214.58,629.51,217.58,628.92,216.68Zm81.6,8.7c4.2-5.1,10.2-8.1,15-12.3C723.12,217,715.62,221.48,710.52,225.38Zm-78-11.4c-1.2-.6.61-1.5.61-2.1C634.62,212.48,632.51,213.38,632.51,214Zm94.21-.9c-.3-2.1,2.4-1.8,3-3.3C731.52,210.68,727.32,213.38,726.72,213.08Zm4.2-3.3c-.9-.3.3-1.5,1.2-1.5C732.42,209.48,731.22,209.18,730.92,209.78Zm1.8-2.4c.3,0,.3-.3.6-.6.6.3.6.6.3,1.2h-.9Zm-91.8-.6v-.9C642.12,205.28,642.12,207.38,640.92,206.78Zm-3-1.8h0C638.51,203.78,638.81,206.18,637.92,205Zm97.5,1.2a8.85,8.85,0,0,1,4.2-3.9C738.42,203.78,737.52,205.58,735.42,206.18Zm7.8-7.8h0C743.22,198.08,743.52,198.38,743.22,198.38Zm-115.8-7.8a1.12,1.12,0,0,1-.3-1.8C628,189.08,627.71,190.28,627.42,190.58Zm-1.21-6.3h0C626.81,182.78,626.81,185.78,626.21,184.28Zm3.3-1.8c-.3-.9.61-.6.61-1.2C631,181.58,630.12,182.78,629.51,182.48Zm9-12.3h0C638.81,168.68,638.81,171.68,638.51,170.18Zm-23.09-.3h0C615.42,169.58,615.71,170.18,615.42,169.88Zm17.39-1.8a.3.3,0,0,0,.31-.3c.59,0,.59.6.3.9h-.61Zm-12-.3c.3-.6.61-.9,1.2-.9C621.71,167.48,621.42,167.78,620.81,167.78Zm-5.1-.6c0-.6,1.21,0,1.21-.9.89,0,.89,1.2.29,1.8C616.31,168.38,616.61,167.18,615.71,167.18Zm24.91-.6c-1.2-.9.89-1.5.3-3C642.71,163.88,640.62,165.68,640.62,166.58Zm-23.7-1.8a15.15,15.15,0,0,0,.29-3.9c.9-.3.9.6,1.5.6C618.42,163,618.11,164.48,616.92,164.78Zm3-4.8h0C619.92,159.08,621.42,160.58,619.92,160Zm24-.6h0C643.62,159.38,644.21,159.68,643.92,159.38Zm-20.11,0h0C623.51,159.38,624.12,159.68,623.81,159.38Zm-3.3-.3c0-1.2.91-1.2,1.8-1.5C621.71,158.18,621.42,159.08,620.51,159.08Zm19.2-3.3h0C639.42,155.78,639.71,156.08,639.71,155.78Zm-18,0h0C621.42,155.78,621.71,156.08,621.71,155.78Zm-3.29,3.6c-.91-1.5.59-2.4.59-3.9,1.8.6-.59,1.5-.3,2.7.6.3.6-.3.6-.6C620.21,158.18,619.61,160,618.42,159.38Zm1.79-3.3c0-.6,0-1.5.9-1.5C621.11,155.48,621.11,156.38,620.21,156.08Zm19.5-1.5h0C639.42,154.58,639.71,154.88,639.71,154.58Zm5.41-3c.3,0,.3-.3.3-.6H646v.9c-.3,0-.3,0-.3.3h-.59Zm-21.61-2.4c.3-.3.3-1.2.61-1.8C625,147.68,624.42,149.78,623.51,149.18Zm2.11-.3c-.31-.9.59-.6.3-1.8C627.42,146.78,626.51,149.18,625.62,148.88Zm-6.31,5.7c.61-2.1,1.2-5.7,2.4-7.5,1.8.3.3,2.1.6,3.6a1.32,1.32,0,0,1-1.5.3C620.51,152.18,621.11,154.28,619.31,154.58Zm25.81-7.2c-.91,0-.3-1.2,0-1.2C646,146.18,645.12,147.38,645.12,147.38Zm-17.7-1.2c-.91-.3-.3-1.5-.3-2.4C628.62,143.78,626.81,145,627.42,146.18Zm-5.11-.6c-.6-.3-.6-1.5,0-2.1.61-.3,1.2,1.2,1.5,0C624.71,144.38,623.21,145.58,622.31,145.58Zm3-3h0C626.21,141.08,625.62,143.78,625.31,142.58Zm.61-1.5h0C625.62,140.78,626.21,141.38,625.92,141.08Zm23.4-3h0C650.51,137.18,648.42,139.28,649.32,138.08Zm-25.81-.3c.3-.3.91-.3.91-.6,1.2.3,1.2,1.2.29,2.1-.29,0-.29-.6-.29-1.2-.91.6.29,2.1,0,3a1.12,1.12,0,0,0-.91-.3c-.3.9.91,1.2.3,2.1-.6-.6-1.5-.9-1.5-1.8A5.4,5.4,0,0,0,623.51,137.78Zm24.61-1.2Zm-21-.9h0C627.12,134.18,626.81,137.78,627.12,135.68Zm-2.7.3c-.3,0-.3-.9-.3-1.5C625,134.78,625,135.38,624.42,136Zm27-3.3h0C652,131.18,652,134.18,651.42,132.68Zm-.91-.6h0C650.21,131.78,650.51,132.38,650.51,132.08Zm-22.5,0h0C628,131.78,628.31,132.38,628,132.08Zm-3.89.9c.59-.9,1.5.3,1.8-1.2,1.2,1.2-.61,3,0,5.4C625,136.28,625,134.18,624.12,133Zm30-2.1c0-.9,1.5-.9,1.2.3C654.71,131.48,654.71,130.88,654.12,130.88Zm-25.81-1.5h0C630.12,127.58,627.12,130.88,628.31,129.38Zm-2.69,1.2c-.31-1.2,1.19-1.2,2.09-1.5C628,130.58,626.51,130.28,625.62,130.58Zm5.09,1.2c-1.2-.3-.29-3.3.91-3.3a4,4,0,0,0-.31,2.7A.65.65,0,0,0,630.71,131.78Zm23.71-5.1h0C655,125.48,655.62,127.88,654.42,126.68Zm-.91-.9c-.3,0-.3-.9-.3-1.2C654.71,124.28,653.51,125.18,653.51,125.78Zm1.2-.6c-.29-.6.3-.9.3-1.5,1.2-.3.61.9.91,1.5Zm2.41-1.8h0C657.71,122.18,658.32,124.58,657.12,123.38Zm-30,3.9c-2.11-.6.59-2.7.3-4.2C629.21,123.68,627.12,126.38,627.12,127.28Zm27-4.2h0C653.82,122.78,654.12,123.38,654.12,123.08Zm-24.91.3c1.21.3.91-1.2,1.5-1.8.6,1.2,0,4.2-1.5,4.2C629.81,124.58,629.81,124.88,629.21,123.38Zm32.41-1.8h0C661.32,121.58,661.92,121.88,661.62,121.58Zm-33.61.3v-.6c.91-.3,1.2,0,1.2.6Zm5.41,0c-.91,0,0-1.2,0-1.5C634.31,120.68,633.71,121.58,633.42,121.88Zm25.2-1.5Zm-1.8.6c0-1.2.6-1.2,1.5-1.2C658,120.38,657.71,121,656.82,121Zm-1.5-.9h0C655.62,119.18,656.82,120.38,655.32,120.08Zm5.39-.3h0C661.92,118.88,659.82,121,660.71,119.78Zm-30.9.3v-.6h.9v.6Zm1.81-1.5h0C631.92,117.38,631.31,121,631.62,118.58Zm.3-2.1h0C632.51,115.28,633.12,117.68,631.92,116.48Zm1.5.9c.29-.9,1.5-1.8,2.09-1.2-.3,1.2-.59,2.1-1.8,2.4C634,117.68,634.62,117.68,633.42,117.38Zm3.29-1.8h0C636.42,115.28,637,115.58,636.71,115.58Zm-7.79,4.2c.29-1.5,0-3.9.89-5.1.61,0,.61.3,1.2.3A5.62,5.62,0,0,1,628.92,119.78Zm29.7-5.4h0C659.21,112.88,659.21,115.88,658.62,114.38Zm-2.41.6c-.59,0-.29-.6-.29-.9.59-.3.59.3.59.6A.29.29,0,0,0,656.21,115Zm-24.9-.6h0C631,114.38,631.62,114.68,631.31,114.38Zm31.81-1.2h0C664.62,113.48,662.52,115.28,663.12,113.18Zm-30.61.6c.3,0,.3-.3.3-.6.61,0,.61,1.8-.3,1.2Zm-2.39,0v-1.5c1.19-.3,1.19.3,1.19,1.5Zm29.39-.9c-.3-.9.91-.6.61-1.8A1,1,0,0,1,659.51,112.88Zm-24.59,1.5c.29-1.2.29-2.7,1.2-3.3C636.42,111.68,635.81,114.08,634.92,114.38Zm-4.21-3.9c.3,0,.91,0,.91-.3,1.19,0,.3,1.8-.61,1.8A1.34,1.34,0,0,1,630.71,110.48Zm6.6-.9c-.3,0-.6-.3-.6-.9C637,108.68,637.31,109,637.31,109.58Zm1.5-1.2h0C640,107.48,637.92,109.58,638.81,108.38Zm-6.89.3a2.54,2.54,0,0,1,.59-1.8c.91,0,1.5,2.1.91,2.7-1.21.3-.61-.9-1.5-.9C631.92,109.58,630.42,108.38,631.92,108.68Zm4.79-1.8V106h.6v.9Zm-3.29,0c-.61-.3,0-.6,0-1.2C634,106,633.42,106.28,633.42,106.88Zm28.79-3Zm-29.4.9c0-1.5,1.5-1.2.61-2.7h1.2a4.45,4.45,0,0,1,.3,2.1C633.71,103.58,634,104.48,632.81,104.78Zm9-2.7c-.61-.3-1.2-.6-1.2-1.5C641.21,100.88,641.82,101.18,641.82,102.08Zm-5.7,1.2c0-.9-.31-2.1.3-2.7C637,101.48,637.62,103.28,636.12,103.28Zm.59-3h0C636.42,100.28,637,100.58,636.71,100.28Zm4.8-2.4h0C641.82,96.38,641.82,99.38,641.51,97.88Zm-6.89,2.7c-1.5-.9,1.19-2.7,0-3.6,0-.3.59-.3.89-.3a12.91,12.91,0,0,1,0,4.8C634.31,102.08,635.21,99.38,634.62,100.58Zm7.5-4.5h0C642.12,94.88,643.62,96.38,642.12,96.08Zm-3.31-.9Zm1.2,3c.31-.9.31-2.4.61-3.6,1.5-.3-.61,1.8,1.2,1.8C641.21,97,640.92,98.18,640,98.18Zm-4.5-3a14.54,14.54,0,0,0,.91-2.1c1.5.3-.3,1.2.59,2.1Zm7.81-1.8v-.9C644.21,91.88,644.21,94,643.32,93.38Zm26.39-.6v-.6h.91v.6Zm-32.4,0v-.6c.9-.3,1.2,0,1.2.6ZM667,94c-.6-1.5.9-1.2.6-2.4C669.12,91.58,667.62,93.68,667,94Zm-26.1-1.5v-.9h.9v.9Zm-2.41-1.8Zm6.61-.9h0C644.82,89.78,645.12,90.08,645.12,89.78Zm-5.41,3.3c-1.79-.6.61-2.4.61-3.9C642.42,90.38,639.12,91.28,639.71,93.08ZM636.42,91c-.3-.9.59-.9.29-1.8.91,0,1.8.3,1.5,1.5C637.31,89.78,637.62,91.28,636.42,91Zm6.29-2.4h0C642.71,88.28,643,88.58,642.71,88.58Zm-3-.6c-.9.3-.29-1.2-.59-1.8C640.32,86.48,639.71,87.38,639.71,88Zm29.41-4.2c.3,0,.3,0,.3-.3.6-.3.6,1.5-.3.9Zm-30.91,3.6c-1.5-.6.6-4.8,2.11-3.6A7.21,7.21,0,0,0,638.21,87.38Zm3.61-3.9v-.9h.6v.9Zm.6-1.8h0C642.42,81.38,642.71,82,642.42,81.68Zm-1.5,0h0C640.92,81.38,641.21,82,640.92,81.68Zm4.2,1.5c-1.2-1.2,0-3.3.3-4.5C647.21,79.58,644.51,81.08,645.12,83.18Zm-3.3-2.7c-.9-.3.3-1.8.3-2.4C643,78.68,641.82,79.88,641.82,80.48Zm.6-.3c.29-.9,1.2-1.5,1.2-3C644.82,77.48,643.62,80.18,642.42,80.18ZM640,82c-.89-.3.61-4.2.91-5.7C641.21,78.08,641.21,80.48,640,82Zm3.91-5.1c-.3-.6.29-.9.29-1.5C644.82,75.38,644.82,77.48,643.92,76.88Zm-1.8-.6c-.61,0-.91-.6-.61-1.5C642.42,74.48,642.71,75.68,642.12,76.28Zm2.39-1.5Zm2.7-.6h0C647.51,72.68,647.51,75.38,647.21,74.18Zm-2.09-.6h0C644.82,73.58,645.12,73.88,645.12,73.58Zm0-1.8h0C644.82,71.78,645.12,72.08,645.12,71.78Zm-3,1.5c-.3-1.2.89-.9.59-2.1,1.21-.3.91.6,1.5.6C643.92,72.68,643,73,642.12,73.28Zm8.39-3.6h0C650.21,69.68,650.51,70,650.51,69.68Zm-7.19,0c.3,0,.3,0,.3-.3.59,0,.59,1.5-.3,1.2Zm4.5.3c0-.6.3-.9.3-1.2C648.71,68.48,648.71,70.58,647.82,70Zm24.3-1.2v-1.2C673,67,673,69.08,672.12,68.78ZM646.92,67v-1.2C647.82,65.18,647.82,67.28,646.92,67Zm-2.71,1.8c-.59-.6-.29-3,0-3.3C645.71,65.78,644.51,67.88,644.21,68.78Zm1.8-3.3c0,.9-1.19,0-.89-.9C645.42,64.88,645.42,65.48,646,65.48Zm5.7-1.2h0C652.32,62.78,652.32,65.78,651.71,64.28Zm21.61-.3v-.6h.89V64Zm-25.5-.3h0C648.42,62.48,649,64.88,647.82,63.68Zm-2.7-.9h0C646.62,63.08,644.51,64.88,645.12,62.78Zm29.09-2.1h0C675.71,61,673.62,62.78,674.21,60.68Zm-22.5-1.8v-.6h.91v.6Zm-2.39,1.2c-1.5-.6,0-1.8.3-2.1.3,0,.3.3.89.3v.6C649.62,58.88,649.32,59.18,649.32,60.08Zm29.1-2.1a2.25,2.25,0,0,0,.3-1.5C679.62,56.78,679.92,58,678.42,58Zm-30.91.3a2.9,2.9,0,0,1,0-2.7c.91,0-.3,2.1,1.2,1.5a2.27,2.27,0,0,1-1.2,1.2c-.3,1.5-.59,3-1.8,3.6C645.12,60.68,646.32,58.88,647.51,58.28Zm2.11-1.2a1.8,1.8,0,0,1-.91-1.8C649.62,55.28,649.62,56.18,649.62,57.08Zm.89-1.8v-.6c.61-.3.91,0,.91.6Zm1.2-.9h0C651.71,54.08,652,54.38,651.71,54.38Zm-3,.6c-1.2-.6-.29-2.4.3-3C649.92,52.58,648.71,54.38,648.71,55Zm6-3.9h0C655.32,49.88,655.62,52.58,654.71,51.08Zm-5.7.3c.61-1.2.91-2.7,1.81-3.61,1.5-.29,1.19,2.11.6,2.41-.3,0-.3-.91-.3-1.2C650.21,49.58,650.82,51.68,649,51.38Zm7.2-4.2h0C656.51,45.68,656.51,48.38,656.21,47.18Zm23.71-2.41v-.89c.9,0,1.8,0,1.8.89Zm-27.6-.89c.3-.3,2.39-.61,2.1.89-.91-.59-.91,0-1.8,0A1.07,1.07,0,0,1,652.32,43.88Zm28.8-2.11h0C681.42,40.27,681.42,43,681.12,41.77ZM655.92,43c-.91-.31-.6-2.1.59-1.81C656.82,42.38,655.92,42.38,655.92,43Zm25.5-2.71h0C681.12,40,681.72,40.58,681.42,40.27Zm-28.21.9c0-.59.3-.9.3-1.19C654.71,40,654.42,41.48,653.21,41.17Zm7.5-1.19h0C661.92,39.08,659.82,41.17,660.71,40Zm-6-.6c-1.2.29-1.5-1.5,0-1.21ZM682,37.58c-.6,0-.6-.91-.6-1.81C682.32,35.77,682.62,37.27,682,37.58Zm-27-1.2c.31,0,.31-.3.31-.61.89,0,.6,1.81-.31,1.21Zm26.71-1.21h0C681.42,35.17,682,35.48,681.72,35.17Zm-25.51-2.09h0C657.42,34,655,34.27,656.21,33.08Zm3.3-4.51h0C659.51,27.38,659.21,31,659.51,28.57Zm5.41-1.8h0C664.62,26.77,664.92,27.07,664.92,26.77Zm-4.8-.6v-.6c.59-.3,1.2,0,1.2.6Zm3.59-1.79h0C664,22.88,663.42,26.48,663.71,24.38Zm2.11-1.5c-1.2.29-1.2-1.5-.61-2.11C666.42,21.07,665.21,22,665.82,22.88Zm-25.2,125.7c-1.2,1.5-.91,3.9-1.81,5.7-.6.3-.6-.3-1.5-.3,0,2.4-.6,7.2-3,6.9-.6,3.3-2.1,8.1-5.39,9.6,3-5.4,5.09-13.8,9.29-17.1,8.41-24.3,21.61-46.5,29.11-72.9-8.4,18.6-17.4,40.2-24.61,57.9-6.29,9.9-10.79,21.3-16.5,31.8,3.91-27,15-54.3,19.8-80.7,3.31-5.1,4.2-15.3,8.11-20.1,0-1.2-.61-1.8-.61-3,5.11-12.3,10.51-25.8,16.2-38.4,3.31-1.5,3.91-8.41,9.61-8.71,2.7,18.9-5.7,36.61-8.4,51.91.9-.3,0-2.1,1.5-1.8-5.71,17.1-9.9,29.7-17.41,45.3-.3,1.2,1.2.3.91,1.5,0,1.5-.6,0-1.21,0-3.89,12-9.59,23.4-14.09,32.4C641.21,148.58,640.92,149.18,640.62,148.58Zm28.5-129h0C668.82,19.57,669.42,19.88,669.12,19.57Zm-37.2,163.81h.59c.61-2.1,3.61-3.3,2.41-6.3.89,1.2,1.5,0,1.79-1.2,0-.3-1.2,0-1.2-.6,6.91-4.5,6-13.5,12.31-19.2-1.2-1.8.6-3-.31-5.4.61,0,.31,1.2,1.5.9-.59-2.7,1.81-2.4,2.41-3.6-1.8-3.3,4.5-6.9,2.7-10.2,3-.3,1.5-5.4,4.5-5.7-1.2-2.7,2.09-2.7,2.09-5.1-.89,0-1.2-.6-1.2-1.5.61,0,.61.6,1.81.3,0-1.2.3-1.5,0-2.7.89,0,1.8-.9.89-1.8h1.5c-1.5-3,1.81-5.1,3-7.5.31-1.5-2.09-2.1-1.19-2.7.6-.6,1.19,0,1.8.3,1.2-7.2,5.39-13.8,7.5-21.9-.3-.3-1.2-.3-1.5-.9,1.5-.3,1.5.6,2.39,0,0-4.5,4.21-8.4,2.71-12,0,.6,0,.9-.3,1.2V76c.9,0,1.2.6,1.8,0,.9-7.2,5.7-14.4,4.8-21,1.5-.6.9-3.3,2.1-4.8-.9.3-1.2-.3-1.2-.91.6-.29.3-1.19,1.5-.89,1.8-10.8,3.3-21-2.1-30-3-2.41-7.2-3.31-9-6.61C657.71,10,657.12,31,649.32,42.08a3.67,3.67,0,0,1-.61,3.9c-.59,1.2-1.2,5.1-1.79,3-.3,1.2-.6,1.2,0,2.4-2.41.9-2.1,3.6-1.8,5.7h-1.2c2.09,3.6-3.3,5.1-2.1,8.4.3-.3.6-2.7.89-1.5-2.09,6.3-3.29,9.3-4.79,14.1,0-.6.59-.3.59,0-.59.6-.59,1.8-1.8,1.8.6,3.6-1.5,5.1-1.5,8.1-.59-.3-1.2-.3-.9.9-.3,1.2.9-.9.9.3-.59,2.4-3.29,4.5-2.7,6.6,0-.3.61-2.1.91-1.2-.3.9-.61,2.1-.91,3-.59-.3-.3-1.2-.89-1.2,0,4.5-2.11,8.7-2.41,12.9-.59.3-.59-.3-1.2-.3,0,6.9-3,11.1-3.59,18.3-1.21.3-2.11.6-1.8,2.1s.89-1.2,1.19,0c-1.8,2.7-2.39,6-3,8.7-.3-.6.9-1.5.9-.6a7.26,7.26,0,0,1-2.4,3.9c.3.9,1.2-.6,1.2.6-.9.6-.59,2.1-1.8,2.4.6,0,.9-.3,1.21.3-2.71,1.8-.31,6.6-3.31,8.1-.6,1.2.6.9.6,1.5-.6.6-.6,1.5-.6,2.7-.3-.3-1.19-.6-1.19,0,1.5.6.29,4.5-.91,3.6.91,5.1-2.09,11.4-3.3,17.1-.6,0-.29-.6-.9-.6-1.2,9.6-2.39,21.6-7.5,29.1,0-.3-.3-.6-.89-.6-2.11,1.5-.61,3.9-.61,5.7.61,0,.9-.6,1.2,0-3,12.3-7.2,25.5-10.5,36.9.9,4.8,3.9,11.1,6.6,15.3,2.7.3,3.9,2.7,6.31.3v-2.1c14.09-15.6,24-35.1,41.09-47.7,3.61,22.8,13.2,43.8,36,43.2,9.3-2.7,18.9-9.6,23.7-16.5.3.3.6.3,1.2.3,1.2-5.4,7.2-6,8.7-11.1.3.6.3,1.8,1.5,1.5.9-1.2-.6-1.5-.6-3,1.5,0,4.2-1.2,4.5-3.6-.6,0-.9.6-1.2,0,.9-3.3,5.1-1.8,5.4-5.7-2.1.3-1.8,1.2-3.6,1.8.3-3.6,3.3-2.1,3.9-5.1.6.3.6.9,1.2.9,0-2.1,2.1-2.4,3.3-2.7,0-2.4,2.4-2.7,3.6-4.2-.3.6,0,1.2.6,1.2,2.1-6.3,10.8-7.8,10.5-15.3-20.4,13.8-38.7,30.9-59.1,43.5-4.2,4.8-10.2,5.7-16.8,6-.3-.9-1.2-.9-.9-1.8-1.21-.3-.6,1.2-1.21,1.2-10.5-8.4-5.09-29.7-10.5-41.4a6.63,6.63,0,0,0-2.7-.3,6.86,6.86,0,0,0-1.8-2.7,2.25,2.25,0,0,1-2.7-1.8c-16.8,1.8-25.2,16.8-35.4,25.5,1.5-1.8.6-6,3.31-6.6-.61-2.7.59-7.2,2.39-8.1-1.8-3.9,4.2-6.9,3.31-10.8,3.3-2.4,7.5-9,8.39-13.8h.91v-1.2a.45.45,0,1,1,0-.9Zm-129.3,226.8h0C504.12,410.48,502.62,409,502.62,410.18ZM533.82,247C533.52,247,533.82,246.68,533.82,247Zm-2.4-6h0C532.92,241.28,531.42,239.78,531.42,241Zm48.6-7.2C580,233.48,580.32,234.08,580,233.78Zm-41.1-9C538.92,224.48,539.22,225.08,538.92,224.78Zm3.3-7.5h0C542.52,218.48,542.52,215.78,542.22,217.28Zm11.4-18C553.32,199.28,553.62,198.68,553.62,199.28Zm4.2-9.6c.3.3.3,0,.3-.3A.29.29,0,0,0,557.82,189.68Zm.3-.3c2.1-1.5,3.6-3.9,5.1-6.3A17.54,17.54,0,0,0,558.12,189.38Zm9.6-11.4c-2.1.9-3.3,2.7-4.2,5.1C565,181.58,566.82,180.38,567.72,178Zm0,0h0C569.22,178.28,567.72,176.78,567.72,178Zm3.3-.9h0C570.42,175.88,569.82,178.28,571,177.08Zm3.6-4.2c-3,.9-3.9,1.8-5.7,3.9C570.42,176.78,572.82,174.08,574.62,172.88Zm1.8-1.5c0,.3-.3.6-.3.9.3,0,.3.3.9.3A1.56,1.56,0,0,0,576.42,171.38Zm-73.8,230.7Zm-14.4-6h0C488.82,394.88,489.42,397.28,488.22,396.08Zm3.9-14.1c0-.3.6,0,0,0C492.42,383.48,491.22,382,492.12,382Zm.3-1.5Zm11.4-3.6h0C503.82,376,505.32,377.48,503.82,376.88Zm-8.4-10.8c-.3-.6-1.2-.9-1.2-2.1.6,0,1.2,1.5,1.2,0,1.2.3.6,2.1,0,2.1.9,1.5-.6,1.2-.3,2.7C493.92,368.18,494.22,366.68,495.42,366.08Zm1.5-7.5a7.78,7.78,0,0,1,.9-5.1c-.3,2.1,0,3.9-.9,5.1.3,1.5-.3,2.4-.9,4.5C494.82,362.18,495.42,358.58,496.92,358.58Zm.6-6h0C498.12,351.38,498.42,354.08,497.52,352.58Zm.3-1.5c-.3,0-.3-.6-.3-1.2.6,0,.6.3.9.9C498.12,350.78,497.82,350.78,497.82,351.08Zm9-16.5c-.6,0,0-1.5-.3-2.1C508.32,332.48,506.52,333.38,506.82,334.58Zm0-3.3h0C507.12,330.08,508.32,331.58,506.82,331.28Zm.9-3.3h0C508.32,326.78,508.62,329.48,507.72,328Zm.6-1.8Zm2.1-18.9h0C510.42,307,510.72,307.28,510.42,307.28Zm8.7-5.1h0C519.12,301.88,519.42,302.48,519.12,302.18Zm-7.8,2.7c-.9-.3,0-3,.3-4.2C513.42,301.58,510.72,304.28,511.32,304.88Zm6.3-4.2h0C517.92,299.48,519.12,301,517.62,300.68Zm-4.8-.6c-1.5.3-1.2-.6-.9-1.2C512.52,299.18,512.82,299.48,512.82,300.08Zm-.9-2.4c.3-.3.6-.3.9-.9C513.72,296.78,512.82,298.28,511.92,297.68Zm8.7-3.6c-1.2,0,0-2.4,0-3.6C522.42,290.78,520,292.88,520.62,294.08Zm.3-4.2Zm.9-1.8h0C522.12,286.88,522.72,289.58,521.82,288.08Zm.9-1.8c-1.2-.3-.3-.9,0-1.5C523.92,285.08,522.42,285.68,522.72,286.28Zm-1.5-2.1c-.9,0-.6-1.5-.3-1.8C521.82,283,520.62,283.28,521.22,284.18Zm0-2.7h0C521.82,280.28,522.12,283,521.22,281.48Zm3.6-3.9Zm-.3-3.6a1.85,1.85,0,0,1-.3-2.1,2.17,2.17,0,0,1,.6,2.4c-.3.3-.9.6-1.2.9.3.9.3,1.8-.9,2.1a1.56,1.56,0,0,0,1.2.6c.3,1.2-.9.9-.9,1.8-.3-.6-.9-.9-.9.6C521.82,277.88,522.42,274.28,524.52,274Zm3.6-6h0C528.12,267.68,528.42,268.28,528.12,268Zm-3.3,1.8c1.2-2.1.6-6.6,4.2-5.7-1.8.9-.9,2.4-3,2.7.6.6-.6,1.5.6,1.8C526.32,269.18,525.72,270.38,524.82,269.78Zm2.7-7.5h0C527.52,261.08,529,262.58,527.52,262.28Zm1.5-2.4c-1.2-.3,0-.9,0-1.8C529.92,258.38,528.72,259.28,529,259.88Zm2.4-4.5c-1.8.6-1.2-2.1-.6-2.7.3.3.3.9.9.9C531.12,254.48,531.12,254.18,531.42,255.38Zm.6-3.9c-.6-.3-.3-2.1,0-2.4h1.2C533.52,250.58,532.32,250.28,532,251.48Zm6-10.2h0C538.32,239.78,538.32,242.78,538,241.28Zm-4.2,5.7v1.5c-.6,0-.6-.3-1.2-.3,1.5-3.6,1.2-6.3,3.9-8.7,0,.9-1.5,2.4.3,3.3-.3-1.5,1.2,0,0,0v.6c0,.9.9-.3,1.5.3,0,.9-1.2.6-1.2,1.2-.6-.3-.9-1.5-1.8-1.8-.6.6-.6,1.5-.9,1.8,0,.6,0,.9.6.6C534.72,246.08,534.72,247,533.82,247Zm6.3-9c0-.3.3-.6.9-.6C541,237.68,540.72,238,540.12,238Zm-2.7-1.5c-.6-.3.3-1.5.6-2.1C538.62,234.68,537.72,236.18,537.42,236.48Zm5.1-6.6h0C543.42,228.08,541.92,231.38,542.52,229.88Zm2.7-6c-.3-.6.3-.6.9-.6C546.12,223.88,545.82,224.18,545.22,223.88Zm-2.7.9a2.25,2.25,0,0,1,.3-1.5c.9.3,1.8.6,1.8,1.5h-2.1c-.3,1.2,1.2.3.9,1.5-1.2,2.1-3.3,3.9-3,7.2-.3.6-1.8,0-1.8.6C539.22,231.68,540.72,227.18,542.52,224.78Zm7.2-9.9V214C550.92,213.38,550.92,215.48,549.72,214.88Zm3.9-6.3h0C554.22,207.08,554.22,210.08,553.62,208.58Zm30.6-.3c.3-1.8,1.2-1.8,1.2-3,1.2.3,0,2.7-1.2,3-5.4,11.4-9.6,20.1-20.4,26.4C572.52,227.78,577.92,217.58,584.22,208.28Zm-27.9-4.2h0C556,204.08,556.62,204.38,556.32,204.08Zm33.9-.3h0C591.42,202.88,589.32,205,590.22,203.78Zm.6-4.2c-.6,0-.3-.9,0-1.2.6.3.3.9,0,1.2.6,0,.3.9,1.2.6,0,.9-.9.9-.6,1.8C589.92,202.28,590.52,200.48,590.82,199.58Zm-29.1-1.8h0C562,196.28,562,199.28,561.72,197.78Zm.3-2.1c0-.6.3-.9.3-1.5.6,0,.6.3,1.2.3C563.22,195.08,563.22,196,562,195.68Zm28.8-1.8h0C590.82,193.58,591.12,193.88,590.82,193.88Zm-25.2.3c-.6-.3,0-.6,0-1.2C566.22,193.28,565.62,193.58,565.62,194.18Zm1.8-4.8c-.3-1.2,1.2-.6,1.5-1.5a1.56,1.56,0,0,1,.6,1.2C569.22,189.38,568.32,189.38,567.42,189.38Zm3.6-4.5c-.6-.3,0-.9,0-1.2C571.62,184,571,184.28,571,184.88Zm-4.8,2.1c1.5-3.9,4.5-6,6.9-8.7-.9,3-4.8,6.6-6.9,8.7a4.16,4.16,0,0,1-2.4,2.1v1.8a2.25,2.25,0,0,0-1.5.3c-4.2,8.4-12,18-15.3,27,.9,0,.9-.9,2.1-.9a1.59,1.59,0,0,1-2.1,1.2v-.3c-1.2.9-1.2,2.7-2.7,3.3,0,.3,0,.3-.3.3,0,.6-.6.3,0,0a.29.29,0,0,1,.3-.3,148.89,148.89,0,0,1,17.7-30.3h.3c0-.9.9-1.2,1.2-2.1h.3A3.36,3.36,0,0,1,566.22,187Zm8.1-9c0-.6.6-.6.6-1.2C575.82,177.08,574.92,178.28,574.32,178Zm3.9-3c0-.9,1.2-.3,1.5-.9.9.3-.6,1.2-1.5.9-.3.9-.9,1.2-2.1,1.2C576.72,175.88,577,175,578.22,175Zm-39.6,75.3h.3c11.7-26.1,22.2-49.5,41.4-68.7,2.1.6,3.6-2.4,5.7-2.7,6.6,18.9-9.9,40.5-25.2,51,1.2-3-2.1-1.2-2.1-3.6a50.07,50.07,0,0,0,1.5-5.4c-8.1,6.3-.9,17.4,5.4,21.6.3-1.5,1.5,0,3-.6,5.4-2.4,9.3-6.6,13.5-10.8,3.6-3,4.2-7.2,7.2-11.7.9-1.2,2.7-1.8,3.3-3,4.8-7.8,9.6-25.5,5.4-33.3-.6-1.2-3.3-1.8-1.8-3.6a16.64,16.64,0,0,0-6.6-4.2c.6.3.9,0,.9-.6-6-5.4-14.4-2.7-19.5,2.4-5.7,7.5-12,14.1-17.4,22.2a5.79,5.79,0,0,1-3,4.2c1.2,1.5-2.7,3.9-2.7,6.6l-.9-.9c-8.4,18.3-18.3,40.2-24.6,59.4-.3-5.4,2.1-15,5.4-17.1-1.2-2.1.3-6.9,2.4-6.3.6-1.2-.9-.3-.6-1.5a249.7,249.7,0,0,1,28.2-54c-15.6,18-24.6,42.3-34.2,66a36.56,36.56,0,0,0,.9-13.8c1.5-.3.3-1.5,1.5-1.8,1.2-13.8,3-27.6,3.9-41.4.6-7.2-6.6-13.5-13.5-11.1,1.2,7.8-.6,14.4,0,23.1-3.9,16.2-3,38.4-7.2,57.9-.6,14.4-2.4,26.1-5.1,39.9-1.8,32.1-15.9,56.7-16.2,92.4-.6,5.1,2.1,12.3,6,15.3-.3.6,0,1.5,0,2.1,1.8.6,0-2.1,1.2-2.1a10.78,10.78,0,0,1,.6,3.3c2.1.3,3.9,2.4,6.6.6-1.2-10.2,3.3-17.7,2.4-27.6,2.4-3.6,2.4-14.1,2.1-16.2.3-.9,1.5-.9,1.5-2.1-2.1-.9,2.4-4.8-.6-5.4,3.6-9.3,3-16.5,4.2-24.6,4.5-26.1,14.7-54.9,23.1-82.5,1.2-3.9,4.2-8.1,3.6-11.4-.6.3-.6-1.8,0-1.5,0-.3,0-.6.3-.6,0,.3,0,.6-.3.6C539.22,249.68,538.62,249.38,538.62,250.28Zm-56.1-15.6h0C483.12,236.18,483.12,233.48,482.52,234.68Zm27.9-23.4h0C509.82,211.58,510.42,211.88,510.42,211.28Zm0,0C510.42,211,511,211.28,510.42,211.28Zm-50.7,25.8c3.6-1.8,9.3-.3,13.8-2.7-1.8,1.2-5.4,2.7-7.5,2.7-1.2,0,0,1.2-.6,1.8-1.5-1.5-2.4-.9-3.9,0C461.82,236.48,460.62,237.38,459.72,237.08Zm2.4-46.5h0C462.12,190.28,462.42,190.88,462.12,190.58Zm1.8-1.2c3-4.2,9-5.7,14.1-7.8-5.7,9-14.7,15-24.6,20.1a70.34,70.34,0,0,1,13.5-13.2C466,187.28,465.12,189.68,463.92,189.38Zm23.4-5.4c-2.1-2.1-4.5-3.9-5.1-7.5-2.1-.3-2.7-2.1-5.1-2.4-3,0-6.6-.6-9.6.9-16.5,8.1-28.2,26.4-33.6,42.9-1.8,12.9,0,27,14.4,30,10.5,0,15.9-2.4,24-6,.6-.9-.6-1.5.9-2.1,1.8,1.2,5.1-2.4,8.7-3.6.6-1.2-1.2-.3-1.2-.9,1.2-.6,2.4-.9,2.7-2.4-2.7,1.5-7.2,1.5-9.3,1.5,11.1-3.9,20.4-8.4,28.8-15.9-.6,0-1.2.3-1.2-.3,2.1-2.1,8.4-3.6,7.5-6.3-.9.9-2.7,1.2-3.6,2.4a218.77,218.77,0,0,0-22.2,11.1c-12.6,3.9-30.6,15.3-42.9,6.6,1.5-6.6,1.8-12,5.1-16.5,5.4,3.9,12.3,0,18-1.2,6.6-6,15.3-10.2,18.9-19.2C487.32,192.38,486.42,189.08,487.32,184Zm-108.9,66.9c-.9-.6-1.2,1.2-.3.9C378.12,251.48,378.42,251.18,378.42,250.88Zm3.3,1.5c0-1.2-.3-2.1-1.2-2.4C379.32,250.88,380.82,252.08,381.72,252.38Zm-3.3-1.5c.3,0,.3.3.6.3.3-.9,0-1.5-.6-1.5Zm4.2-2.1c0,.6-.9,0-.9.6.6.6.6-.3,1.5.3v-.6C382.92,248.78,382.92,248.48,382.62,248.78Zm-1.8-.6h0C379.62,249.68,382.62,246.38,380.82,248.18Zm1.8-.3Zm7.8-2.7c-.6,0-1.5-.3-1.2.6A1.56,1.56,0,0,0,390.42,245.18Zm1.2-2.7Zm-2.4-.3a11.23,11.23,0,0,0-3.9,3.6C386.82,244.88,388.62,244,389.22,242.18Zm3.6-3.3v.9h.6v-.9Zm6-3.3h0C399.42,236.78,399.72,234.38,398.82,235.58Zm4.8-.9c-1.5.6-5.1,2.1-3.3,3.6-.6-1.2,1.2-.3,1.2-1.2C400.32,235.88,403.62,235.88,403.62,234.68Zm3.6-4.5h0C406.32,231.38,408.42,229.58,407.22,230.18Zm23.4-11.7Zm3-2.1Zm10.8-5.4c-2.4.6-6.3,1.2-5.1,3.9C441.72,214.28,443.82,213.38,444.42,211Zm2.1-3c-.9.6-2.7.3-2.1,2.1C445,209.48,446.22,209.18,446.52,208Zm-78.9,117.3h0C367.32,325.28,367.92,325.58,367.62,325.28Zm-5.4-7.5h0C361.92,317.78,362.52,318.08,362.22,317.78ZM331,295.58c-.3-.9.6-.9.3-1.8C331.92,293.48,331.92,295.88,331,295.58Zm1.8-3.3c-.3-.9.3-.6.9-.9A.8.8,0,0,1,332.82,292.28Zm.9-3.3c0-.6.6-.9,1.5-.6-.3,1.2-.3,2.4-1.8,2.4C333.42,289.58,335.52,289.58,333.72,289Zm1.5-1.2c.6-.9.6-2.7,2.1-2.7C337,286.58,336.42,287.48,335.22,287.78Zm2.1-3.6Zm1.2-.9Zm.6-1.2c.6-2.4,2.7-3,3.6-5.1C343.32,279.08,340.92,281.18,339.12,282.08Zm4.8-5.4h0C345.12,275.78,343,277.88,343.92,276.68Zm-7.5,44.4c.3-23.1,15.6-36,27.3-48a.29.29,0,0,1,.3.3c4.2,15.3,2.7,36.3-8.7,44.7C350.22,320.48,341.82,325.28,336.42,321.08Zm7.8-45a4.23,4.23,0,0,1,3-3.3c-.3,1.5-2.1,1.8-1.8,3.6-.3,0-.6,0-.6-.3Zm3.9-5.7c.3,0,.3-.3.3-.6h.9V271h-1.2Zm5.7-4.2c-.3,0-.3-.6-.3-.9h1.2C354.72,265.88,353.82,265.88,353.82,266.18Zm3-3c.3-.6.6-1.2,1.5-1.2-.3.6-.6,1.2-1.5,1.2a1.87,1.87,0,0,1-1.5.9C355.62,263.48,355.92,262.88,356.82,263.18Zm15-3.3h0C371.82,259.58,372.12,260.18,371.82,259.88Zm1.5-5.4h0C373.32,254.18,373.62,254.78,373.32,254.48Zm-2.1-1.2c1.2-.3,1.5-1.2,3-1.5-.6.9-.9,2.4-1.8,2.7,0,.9.9,1.2.9,2.1.6,0,1.5-1.8.9-2.1.3-1.2.6.3.9.3.9-.6-.3-1.2.3-2.1.9.9.9,1.5.9,3.3.9-.3,1.2-.9,1.8-1.5-.3,1.5-3.3,3.6-5.4,4.5,0-.9-.3-1.2-1.2-.9C373.32,256,370.92,256,371.22,253.28Zm3.3-1.5v-.6h.6v.6Zm-14.1,4.8c-.9-1.8-.3-4.2-.6-6.9A18,18,0,0,1,360.42,256.58Zm44.7-21h0C406.32,235,404.22,236.78,405.12,235.58Zm-.3-.9h0C404.52,234.38,404.82,235,404.82,234.68Zm9.6-6.6h0C415.62,227.18,413.52,229.28,414.42,228.08Zm-2.4-.3h0C413.22,226.88,411.12,229,412,227.78Zm-30.3,24.6v.6c-1.2,0-1.5.9-2.1,1.5-1.2-.3-.6-.6-.6-1.5-1.5-.3-.6,1.8-2.1,1.5,0-4.5,2.4-9.3,7.2-7.5-1.5-2.7,4.5-5.7,7.2-7.2.3.9-.6.6-.6,1.2.9.9,1.2-2.1,2.1-2.7a2.9,2.9,0,0,1,2.4.6c.6,0,.6-.6,1.2-.6,0-.9-1.2-.3-1.8-.3,1.5-2.4,7.2-6.6,9-5.1,1.2,0,1.5-.6,2.1-.9,0-.6-.9,0-.9-.6.9-2.4,3.6-3,6-4.2.3.9-1.2.3-1.2,1.2.3.9,1.2.9,1.2,0-.6,1.5-4.8,4.8-6.6,5.1,0,1.8-1.5,2.7-.9,3.9-3.6.9-4.8,5.1-8.7,4.5-1.2-.9.9-1.5.6-2.1-1.2,0-1.8.9-2.4,1.8.3.9,2.1.6,2.1,1.8-3,1.2-5.1,3.9-8.1,5.4.6-1.5,0-1.5-1.2-.9.3-.6.9-1.2.3-1.8-2.4.3-.3,1.8-.9,3h.9c.3,1.2-.9.6-.9,1.5-1.2-.3.3-.9,0-1.5C383.52,249.68,383.52,252.08,381.72,252.38Zm32.4-25.8h0C415,225.38,414.42,227.78,414.12,226.58Zm-3,.6c0-1.2.9-1.5,1.8-1.5C413.22,226.88,412.32,227.18,411.12,227.18Zm-3.3-1.5h0C408.12,224.48,409.32,226,407.82,225.68Zm1.8-.9Zm8.1-.3v-.6h.6v.6Zm-7.2-.3c0-1.2.9-1.5,2.1-1.8C412,223,411.72,224.18,410.52,224.18Zm16.5-1.8h0C426.72,222.38,427.32,222.68,427,222.38Zm5.7-3.3h0C433.32,217.58,433.32,220.58,432.72,219.08Zm-7.5,0h0C425.52,217.58,425.52,220.58,425.22,219.08Zm-1.2-.3c0-.6-.3-.6-.3-1.2.9-.3,3-2.1,3.3,0-.9-.6-1.5,1.2-3,1.2.9,1.5-1.5,2.7-2.4,3.6,0,.9,1.2,2.1,1.5.6.6,2.1-3.6,2.1-4.8,3.3.3,1.2.6-.9,1.5-.3-3.6,3.9-8.4,6.3-12.9,9,4.2-5.7,11.1-6.6,14.1-13.2-2.7.6-4.8,1.8-5.4,4.2-.9-.9-1.2,0-2.4-.6,2.1-2.1,4.2-4.2,8.1-4.5A2.63,2.63,0,0,1,424,218.78Zm-1.8-3h0C421.32,217.28,421,214.88,422.22,215.78Zm1.2-.6c0-.3.3-.6,1.2-.6A1.56,1.56,0,0,1,423.42,215.18Zm3.6,1.2c.6-1.5,5.4-6.6,5.1-1.5C430.32,212.78,429.42,216.68,427,216.38Zm5.1-4.2c0-.3.3-.3.3-.6.6.6,1.5.6,1.5,1.8C432.72,213.68,433,212.48,432.12,212.18Zm-3.6-.6c.3-.9,2.1-2.4,2.7-1.8-.9.6-1.5,1.5-2.7,1.8C428.52,211.88,427.92,211.88,428.52,211.58Zm6.3-.3c-.9-1.5,1.8-2.4,3-3-.3,1.5-1.5,1.5-.3,3C436.32,211.58,435.42,210.38,434.82,211.28Zm3.6-3.3h0C439,206.48,439,209.48,438.42,208Zm-.6-3.6c0-.6.6-.6.6-1.2.9.3,0,1.5-.6,1.2a10.45,10.45,0,0,1-3.9,3.3A10.45,10.45,0,0,1,437.82,204.38Zm5.1-1.5c.6,0,1.5-1.2,1.8-.3-.9.9-2.4,4.2-5.4,4.8,1.2-1.8,1.8-2.7,3.9-3.3C442.92,203.78,442.92,203.48,442.92,202.88Zm2.4-1.5c-.3-.6.6-.3.9-.9C447.12,200.48,446.22,201.68,445.32,201.38Zm-2.4-.9c0-.6.3-.3,0,0C442.92,200.78,442.32,200.78,442.92,200.48Zm1.5-1.2h0C445.62,198.38,443.52,200.48,444.42,199.28Zm2.1-.6c-1.2-.3-.6-2.1.6-1.8C447.12,197.48,446.22,197.48,446.52,198.68Zm.9-2.1h0C447.42,196.28,447.72,196.58,447.42,196.58Zm-21.6,16.2c-4.8,1.5-6,4.8-9.6,7.5-.3-.9.9-1.2-.3-1.2-.6.3,0,.6,0,1.2-4.8.3-5.7,3.9-9.3,5.1-.3.6.3.6.3,1.2-12,6.6-24.3,16.8-36.3,24.6-2.1-19.8.3-33,9-50.7,1.8-1.5,3.6-3.3,7.5-3,2.1-6.9-4.5-9.9-10.2-12.3-9,6-11.1,16.5-15.9,26.7-.3,14.1-2.4,24.9-.9,35.4h-1.2c-.3,3.6.6,6.6.3,9.9-13.2,13.2-26.7,25.8-33.6,43.8-1.2,3.6-.6,6.6,0,10.8,2.7,9.9,6.6,18.9,14.7,23.7,11.1,3.9,21.3-3.3,27.6-8.7a57.56,57.56,0,0,0,7.5-16.5c2.1-15.3-3.3-30-4.2-43.5,11.1-11.4,26.1-18.9,37.8-29.7.3.3.3.9.6.9,7.5-6,18-11.4,24.9-18.6-.3,0-.6-.6-.6-1.2,1.5.9,2.7-1.5,4.5-1.5v-2.1c-2.7,0-3.6,3.6-6.3,2.4-.6,1.2.3,1.2.3,2.4-1.5-.3-1.5.9-2.4.9,0-.9.9-.6.6-1.5-3.6,0-4.5,4.8-7.2,3.3,3.6-2.1,6.9-6.3,11.1-6.6,1.5-3.3,3.3-4.2,6.6-5.4.3-.9-.9-1.2,0-1.5,1.5.6,3.3-1.8,4.5-3.6-.6,0-1.8.6-1.2-.6,4.5-2.1,6.3-6,7.8-11.1-.9,0-1.2-.6-1.5-1.2-8.1,7.2-16.8,13.2-24.9,20.7.6,0,1.5-.3,1.2.6-.3,0-.3.3-.6.3C425.82,213.68,425.82,213.08,425.82,212.78Zm-88.2.6a.29.29,0,0,0,.3.3C337.92,213.38,337.92,213.38,337.62,213.38Zm-8.4,5.1c.3.6-1.5.6-.9-.3C328.92,217.88,328.92,218.48,329.22,218.48Zm2.4-.6h0C331.92,216.68,332.52,219.08,331.62,217.88Zm4.5-.6c-.3.3,0-.3,0,0C336.72,217.28,336.42,217.88,336.12,217.28Zm-1.8,0h0C334.62,216.38,335.82,217.88,334.32,217.28Zm-.3,0c-.3,1.5-1.2.6-1.8,0C332.22,216.68,333.72,217.28,334,217.28Zm3.3-.6h0C337.92,215.48,338.52,217.88,337.32,216.68Zm-5.7-1.8h0C331.32,214.58,331.62,215.18,331.62,214.88Zm-36.6-.3c4.5,3,8.7,6.3,15.3,7.2-4.8,7.8-8.7,16.2-19.5,18C286.92,230.18,292.32,221.18,295,214.58Zm39.3-.3c0,1.2-2.4.6-1.8-.9C333.72,213.08,333.72,214,334.32,214.28Zm3.3-.9v-.6c.9-.3,1.5,0,1.5.9h-1.2C337.92,215.18,335.82,213.08,337.62,213.38Zm1.8-1.5c2.1.6,3.3-.9,5.4.6C343.92,213.38,339.42,214.58,339.42,211.88Zm-16.5-.3h0C322.62,211.58,323.22,211.88,322.92,211.58Zm24-.6c.3-1.5,3.3-.3,3-2.1,1.8.9,3.9.6,6,.9C352.92,211.28,349.92,210.38,346.92,211Zm8.7-2.1V208c.6,0,1.2,0,1.2.9Zm2.1.3c0-.9.3-.9.3-1.5.6,0,.6.6,1.2.6C359.22,209.18,358.62,209.18,357.72,209.18Zm2.1-1.2c-1.2,0-1.5-2.1.6-1.8C360.42,207.08,359.52,207.08,359.82,208Zm5.4-2.4h0C365.52,204.38,366.72,205.88,365.22,205.58Zm4.2-2.1h0C369.72,202,369.72,204.68,369.42,203.48Zm-45-4.5h0C324.12,199,324.42,199.28,324.42,199Zm-8.4-9.3c7.2,5.7,2.1,15.9-.6,23.1-4.8.6-11.7,0-15.6-2.1,0-2.4,2.1-4.5,3.9-6C301.32,195.68,310.62,193.58,316,189.68Zm12.3,21a18.77,18.77,0,0,0,.6-17.4c-9.3-13.2-36-15.9-38.1,5.7.6,1.2.3,2.4.3,3.9-12.3,10.2-15.3,41.7,4.8,45.9,14.4-.3,18.6-13.5,25.5-22.8.3-7.2,13.2-6.6,18.3-8.1.6-1.5-1.2-1.5-.3-2.4,1.2,1.2,1.2.9,1.5-.3a13.45,13.45,0,0,0,3.3-.3v1.5c.9.3,1.2,0,2.4,0,.3-1.5-2.1-.3-1.8-1.8,1.8,1.2,2.4-.3,3.9.6.3-.9-1.8-1.2-.6-1.8.9,1.2,1.5-.3,2.4-.3.6.3,0,1.8,1.2,1.5,0-.9,0-1.8.6-1.8.9,0,.3,1.2,1.5.9,1.5-.9,2.1-2.4,3.9-3-.3,0-.9,2.4.3,2.1.9-.3-.9-2.7.9-3,1.2-.3.6.9,1.8.9.3-1.8,4.8-2.1,1.8-3.6,0,.6.3,1.8-.9,1.2,0-.3-.6-.3-.6-.6.6-.6.6-1.8,1.5-2.1.6,1.5,1.5.9,2.1,0,.3,1.2,0,1.2.3,2.1,4.5-2.1,8.4-4.8,12.6-7.2-.6-1.2-1.5-2.1-.9-4.2-.9-.9-2.4-.3-3.6-.6A191.05,191.05,0,0,1,328.32,210.68Zm-118.19,95.7h.6v-.3C210.43,306.08,210.43,306.08,210.13,306.38Zm39-58.5c.9.3,1.2-.6,1.8-.9C250.33,246.38,249.43,247.28,249.13,247.88Zm-58.2-58.5Zm3.9-3c-.3.6-1.5.3-1.2,1.2C194.53,187.58,195.43,186.68,194.83,186.38Zm5.7,135.9h0C201.73,321.38,199.63,323.18,200.53,322.28Zm-4.2-1.2h0C196,321.08,196.33,321.38,196.33,321.08Zm6.3,0v-.6c.6,0,.9,0,.9.6Zm3.6-.9h0C206.23,319,206.83,321.08,206.23,320.18Zm-7.5.3c-.3,0-.3-.6-.3-1.2.6,0,.6.3.6.9C198.73,319.88,198.73,320.18,198.73,320.48Zm-4.5,0a2.11,2.11,0,0,1,1.2-1.5C195.43,319.88,195.13,320.48,194.23,320.48Zm1.5-1.2c.3-.9.6-1.2,1.8-1.2C197.53,319,196.93,319.58,195.73,319.28Zm12.6-1.8h0C210.13,317.78,208.33,319.28,208.33,317.48Zm-10.5.6c-.3-1.2.9-1.2,1.8-1.2C199.63,317.78,198.43,317.78,197.83,318.08Zm-3-2.1c-.9-.3-.3-.6,0-1.2C195.43,315.08,194.83,315.68,194.83,316Zm9.3-.6c0-.9,0-1.5.9-1.5C205,314.48,205,315.38,204.13,315.38Zm-2.4.3c-1.8.3.6-2.7,2.4-2.7C204.13,314.48,201.43,314.48,201.73,315.68Zm-4.5-1.8c.3-.6.6-1.5,1.5-1.5C198.73,313.58,197.83,313.58,197.23,313.88Zm1.8-1.5h0C199,312.08,199.33,312.68,199,312.38Zm8.4-.3Zm3.9-.6Zm3.3-.9h0C214.63,310.28,214.93,310.58,214.63,310.58Zm-9.3-.6c.9.6,1.5.3,2.1-.6,1.2.3-1.2,2.4-2.1,2.7Zm-5.4,1.5c.6-1.8,2.1-1.8,3.3-3A5.45,5.45,0,0,1,199.93,311.48Zm9.3-.3c-1.8-2.1,2.4-2.7,3-4.5C212.83,308.78,209.23,309.08,209.23,311.18Zm.9-4.8c-.6.3-.9,1.2-1.8,1.2.3-1.5,1.8-2.1,3.3-2.4.3.6-.3.6-.3,1.2h-.6C210.73,306.68,210.43,307,210.13,306.38Zm2.1-1.8Zm-6,0h0C207.13,303.08,206.83,305.48,206.23,304.58Zm7.8.6c-.3-.6.3-.9.3-1.5C214.93,304,214.93,305.18,214,305.18Zm-1.5-1.5v-.6h.3v.6Zm2.7-.6h0C216.43,302.48,214.63,304.28,215.23,303.08Zm-6-1.5c-.3-1.2,1.2,0,0,0-.3,1.2-.9,1.5-1.5,1.5C207.73,302.48,208.33,301.88,209.23,301.58Zm4.8,0v-.9C214.93,300.38,214.93,302.18,214,301.58Zm1.8.6c.6-.9.6-1.8,1.2-2.7C217.63,300.38,217,302.48,215.83,302.18Zm-.3-3.3h0C215.23,298.88,215.53,299.18,215.53,298.88Zm8.1,1.2c-1.2-.6.3-.9,0-1.8C225.43,298.28,223.33,299.18,223.63,300.08Zm-5.1-.6v-1.2h.6v1.2Zm-2.4-1.2c0-.6.6-.9.3-1.5C217.33,296.78,217,298.58,216.13,298.28Zm9.6-1.5v-.9h.9v.9Zm-3.9,0v-.9C222.73,295.58,222.73,297.38,221.83,296.78Zm-3,.6c0-.6.6-.6.6-1.8C221.23,295.88,219.73,298.88,218.83,297.38Zm5.1-3.9h0C224.83,292.28,224.53,294.68,223.93,293.48Zm-2.7,1.2c-.6,0-.3-2.1.6-1.5C222.13,294.38,221.23,294.08,221.23,294.68Zm.9-2.1c-.9-1.2,1.8-4.2,3-5.4.3,1.2-2.1,2.1-.3,3C223,290.18,223.33,292,222.13,292.58Zm5.7-5.1c-.6-.3,0-1.8.9-1.8C228.73,286.28,227.83,286.58,227.83,287.48Zm-2.4-1.5c-.3-.3.6-1.2,1.5-1.5C226.93,285.68,226.33,286,225.43,286Zm4.5-1.8c0,.6-1.8.6-1.2-.3C229.33,283.88,229.33,284.18,229.93,284.18Zm6-4.2h0C235.63,280,235.93,280.28,235.93,280Zm-3.9,3.3c.3-1.5.6-3.3,2.1-3.9-.6,1.5-.9,3-2.1,3.9-.3.6,0,1.8-.9,1.5C230.83,283.88,231.43,283.88,232,283.28Zm-.9-2.4c-.3-.9.3-.9.3-1.5.9,0,.3,1.2-.3,1.5.3.9-.6.9-.9,1.2C229.93,281.78,230.23,280.58,231.13,280.88Zm3-2.7c0-.6,0-1.2.9-1.2C235,277.88,235,278.48,234.13,278.18Zm1.2-4.5c.6.3.9,0,.9-.6.9.3,0,3-1.2,3C235.63,275.18,235.93,274.88,235.33,273.68Zm-91.21,0v-.6h.61v.6Zm90.31-.9c0-1.2.3-1.8,1.5-2.1C235,271,235.63,272.78,234.43,272.78Zm-2.7.6c-.6-.9,1.5-2.1,1.5-3.6.9,1.2-.6,3.3-1.2,3.6h-.3c.3.3,0,1.8.3,1.8-1.5,2.1-3.3,5.1-3.3,7.8-1.2,0-.9,1.2-2.1,1.2,1.5-3.3,3.3-6.9,4.8-10.8Zm4.5-3.3c-.9-.3-.3-.9,0-1.5C236.83,268.88,236.23,269.18,236.23,270.08Zm1.2.9c0-1.5.6-2.1.9-3.6C238.93,268.58,238.33,270.68,237.43,271Zm4.8-6h0C242.53,264.08,242.83,266.48,242.23,265Zm-3.3,2.1c0-1.5,1.2-2.4,1.8-3.6C241.33,264.08,240.73,266.78,238.93,267.08Zm5.1-4.8h0C244.93,261.68,243.13,263.48,244,262.28Zm-9.6,6c-1.2-1.8,1.8-3.9,1.8-6.3C237.73,263.48,235.33,266.48,234.43,268.28Zm6.3-5.7c.6-.3.3-2.4,1.8-2.4C241.93,261.08,241.93,262.58,240.73,262.58Zm-.9-2.1v-.3h.9v.3Zm-93.91,0a.3.3,0,0,1,.31-.3h.6c0,.3-.31.3-.31.6C146.23,260.78,146.23,260.48,145.92,260.48Zm93.91-1.2c0-.9.9-1.2.9-1.8C241.33,257.78,240.73,259.58,239.83,259.28Zm2.7-.6c0-.6.3-1.2.3-1.8C244.33,257.18,243.43,259,242.53,258.68Zm-4.5,0c.3-2.4.9-4.2,2.7-5.4-.3,1.5-1.8,3.9-2.7,5.4,0,1.2.3,2.7-1.2,2.4A6,6,0,0,1,238,258.68Zm8.1-4.8c-.3-.9,1.8-1.8,1.5-.3C247,253.58,247,254.18,246.13,253.88Zm-3,2.4c.6-1.2.3-3.6,2.4-3.6C244.93,253.88,244.63,255.68,243.13,256.28Zm-.3-4.8v-.3h.3v.3Zm5.7.6c-.9-.3-.9-.9-.6-1.2C248.83,250.88,248.83,251.48,248.53,252.08Zm-8.4.6c.6-.9.6-2.7,2.1-2.7C241,250.58,241.93,253,240.13,252.68Zm8.7-3h0C249.73,249.08,247.93,250.88,248.83,249.68Zm-6-.3c0,.3,0,.3-.3.3A.29.29,0,0,1,242.83,249.38Zm1.5,1.8c-1.5-.3-.3-1.5,0-1.8C244.93,249.38,244.33,250.58,244.33,251.18Zm1.8-.3c-.9-.3-.3-1.5,0-1.8C247,249.08,246.43,250,246.13,250.88Zm-3.3-3.3c0,.3,0,.3-.3.3A.29.29,0,0,1,242.83,247.58Zm3.3.6a1.1,1.1,0,0,0,.3-.9c.6,0,.6.3.6.9Zm-4.8-1.5h0C242.53,245.78,240.73,247.58,241.33,246.68Zm5.7-.3v-1.2h.6v1.2Zm2.4-1.2c0,.3-.3,0-.3,0C249.13,244.88,249.43,244.88,249.43,245.18Zm-6.9,1.8c-.3-1.2.3-1.8.3-2.4C243.43,244.88,243.13,247.28,242.53,247ZM148,249.38c1.21-1.5,1.5-3.6,2.4-4.8-.59,4.2-2.69,9.6-3.59,13.5C145.92,255.68,148.92,251.78,148,249.38Zm96.91-4.5v-.6c.6-.3.6.3.6.9C245.23,245.18,245.23,244.88,244.93,244.88Zm.9-2.7h0C246.43,241.28,246.73,243.38,245.83,242.18Zm4.8.6c-1.2,0-.6-.9-.6-1.5C250.63,241.28,250.63,241.88,250.63,242.78Zm-94.8-1.2V241h.59v.6Zm1.79-.3c-.29,0-.29-.6-.29-.9.6,0,.6.3.6.6C157.62,240.68,157.62,241,157.62,241.28Zm92.71-.9c.3.3.3,0,.3-.3.6,0,.6,1.5-.3.9Zm-2.4,3.3c0-.6.3-3,1.2-3.6C249.13,240.68,249.13,243.38,247.93,243.68Zm-4.8-.6c.6-.9.6-2.1,1.2-3,.6,0,.6.3.9.3C244.63,241,244.63,242.78,243.13,243.08Zm3.9-3.6h0C247.93,238.58,246.13,240.68,247,239.48Zm-2.4,0v-.9c.6,0,.3.6.6,1.2C244.93,239.78,244.93,239.48,244.63,239.48Zm4.5,0c0-.9.6-.9.9-1.2.3,0,.3.6.3,1.2Zm-92.4-.9h0C157.93,237.68,156.12,239.48,156.73,238.58Zm2.1-.6h0C158.83,239.48,157.33,238.28,158.83,238Zm88.8-1.2Zm2.4-.3v-.9c.6,0,.6.6.6.9Zm1.8-.6v-.6h.6v.6Zm-2.7-.9c0,.3-.6.3-.6.3C248.53,235,248.83,235,249.13,235Zm-3,1.8c-.9-.3,0-1.8-.3-2.4C247.33,234.38,246.73,236.48,246.13,236.78Zm-86.7-.3c-1.2-.3.59-.9,0-2.4C160.93,234.38,159.73,236.18,159.43,236.48Zm91.2-1.8v-1.5c.6-.3.6.6,1.2.6C251.53,234.38,251.23,234.68,250.63,234.68Zm-3.6-.6c-.3-.3-.6-.6-.6-.9h.9v.9Zm2.1-1.5V232c.6,0,.9.3.9.6Zm-88.2-.3c-.31,0,0-.3,0-.6C161.52,232,160.93,232.28,160.93,232.28Zm87-.3c-.6,0-.6-.6-.6-1.2A1.56,1.56,0,0,1,247.93,232Zm-88.5-.9h0C159.73,229.88,159.12,233.18,159.43,231.08Zm-8.7,12c1.5-4.5,2.69-8.4,4.5-12.9.29,0,.6.3.89.3C154,234.38,153.12,239.78,150.73,243.08Zm9.29-12.9v-.6h.6v.6Zm87.61-.3c0-.3.6-.6.3-1.2C249.13,228.68,248.83,230.18,247.63,229.88Zm-91.51-1.2h0C157,230.18,154.62,229.88,156.12,228.68Zm96,1.2c0-.9,0-2.1,1.2-2.1.3.9-.6,1.8-1.2,2.1a3.29,3.29,0,0,1,0,2.4h-.9a6.61,6.61,0,0,1,.3-2.4Zm-3.6-2.1v-.6C249.13,226.58,249.13,228.38,248.53,227.78Zm1.8-.3c.3-.6.6-1.2,1.2-1.2C251.23,227.48,250.93,227.78,250.33,227.48Zm-88.81,2.7c.31-1.8,1.5-2.7,2.1-4.2C163.93,227.48,163,229.88,161.52,230.18Zm91.21-2.7c.9-.9,0-3.6,2.1-3.3-.6,1.2-1.2,1.5-.9,3.3Zm-3.9-1.2c0-.6.6-.6.3-2.1C250.63,224.48,249.43,227.78,248.83,226.28Zm2.4-2.4a.29.29,0,0,1,.3-.3c.6,0,.3,1.5-.3.9Zm1.5-1.2c0,.3-.3.3-.6.3C252.13,222.68,252.43,222.68,252.73,222.68Zm-89.4.6v-.6h.6v.6Zm90.6,0c0-.9.3-1.5,1.2-1.2C255.73,222.68,254.83,223.28,253.93,223.28Zm-1.2-1.8Zm2.7,0a1.13,1.13,0,0,1-.3-1.8c.6,0,.6.3.6.3C256,221.18,255.43,220.88,255.43,221.48Zm-2.1-1.5h0C253.63,219.08,253.63,221.18,253.33,220Zm-86.4-.3h0C166.62,219.68,167.23,220,166.93,219.68Zm-1.5-.3Zm91.2,1.2c0-.9.6-1.2.6-1.5C257.83,219.08,257.83,221.18,256.63,220.58Zm-1.2-1.2v-.9C256,218.18,256,220,255.43,219.38Zm-1.5-.9c.3.9-1.2.6-.6-.3C253.63,218.18,253.63,218.48,253.93,218.48Zm-87.6-1.2h0C166.62,216.08,166.62,218.48,166.33,217.28Zm-5.71,3.6c.31-2.1.9-3.3,1.81-3.9-.31,1.8-.6,3-1.81,3.9-.89,2.1-1.5,4.5-3.29,5.4-.31-1.8.9-2.7,2.1-3.9,0-.3-.31-.6-.6-.9C159.43,221.48,159.73,220.88,160.62,220.88Zm88.51,3c.9-3.3,2.1-4.8,2.7-8.1h.9C251.23,218.48,251.83,222.08,249.13,223.88Zm-81.3-4.8c-.6-1.5,1.2-2.7,1.79-4.2C169.93,216.38,168.12,217.58,167.83,219.08Zm90-4.2c.3.3.3,0,.3,0,.6,0,.3,1.5-.3.9Zm-2.1,2.1c-.6-.9,0-2.1,1.5-2.1.3.3-.3,2.1-1.5,2.1,0,.3.6.3.6.9C255.73,217.88,255.73,217.58,255.73,217Zm-1.5-.9c-.6,0,0-1.2,0-1.2C255.43,214.88,253.93,215.48,254.23,216.08Zm-90.9-1.2h0C164.23,213.68,163.33,217,163.33,214.88Zm8.1-2.1h-.9C170.83,212.18,171.43,212.18,171.43,212.78Zm85.2.6c.3-.6.9-.6.9-1.5.9.6,0,1.8-.3,2.4-.3-.3-.6-.6-.6-.9C256,213.38,256.33,213.08,256.63,213.38Zm-1.8,0c-.3-.6-.3-1.5.9-1.5C255.13,212.18,255.73,213.68,254.83,213.38Zm-91.21,0c0-.6,0-1.5,1.21-1.5C164.23,212.48,164.83,213.68,163.62,213.38Zm1.81-.6c-.91,0-.31-1.5.3-1.2C165.73,212.18,165.43,212.48,165.43,212.78Zm91.5-1.2h0C256.63,211.58,257.23,211.88,256.93,211.58Zm-4.2,3.3c-.9-.6,0-4.2,1.2-4.2A22.1,22.1,0,0,1,252.73,214.88ZM172,211v-.9C173.23,209.48,173.23,211.28,172,211Zm81.9-1.2c-.3,0-.3-.6-.3-1.2.6,0,.6.3.6.9C253.93,209.18,253.93,209.48,253.93,209.78Zm-80.4-.9c0-.3.3,0,0,0C173.53,209.48,172.93,209.18,173.53,208.88Zm-2.41-.3h0C171.73,207.08,171.43,209.48,171.12,208.58Zm85.21-.3h0C256.93,206.78,256.63,209.18,256.33,208.28Zm-88.8.3c-.3-.9.59-.6.59-1.5C169,207.38,168.12,208.58,167.53,208.58Zm4.2-.6c0-1.2.89-1.8,1.5-1.2C173.23,207.68,172.62,208,171.73,208Zm86.7.9a1.1,1.1,0,0,0-.9-.3v-2.4c.3,0,.6,0,.3.3,0,.9,1.2.6,1.8.9-.6.6-.6,1.2-.9,1.5h-.3c0,.9,0,1.5-.3,1.8C256.93,210.68,257.83,209.18,258.43,208.88Zm-83.7-2.4c.3-.3.6-.9,1.2-.9v1.2C175.62,206.48,175.33,206.48,174.73,206.48Zm80.4-.9c0-.6-.6-.6-.3-1.5.9.3.9,1.2.9,1.8,0,.3-.3,0-.6-.3,0,.9,0,1.8-1.2,1.5C254.53,206.78,254.23,205.58,255.13,205.58Zm-86.1-.9c.3-.9,1.8-.6,1.5.3C169.93,205.58,169.62,204.68,169,204.68Zm5.4-.6h0C174.73,202.88,174.73,205.28,174.43,204.08Zm83.4-.3Zm-81.9,1.2c-.31-.3,0-2.1.9-1.8C177.13,204.08,175.93,204.08,175.93,205Zm-5.4-1.5c0-.9.3-.9.59-1.5C171.73,202,171.73,204.08,170.53,203.48Zm88.5-2.4c.9.3.9-.6,2.1-.3a12.35,12.35,0,0,0-.9,2.4C259.93,202.28,259.33,202,259,201.08Zm-3.3,2.7c-.9-.6.3-1.8,0-3,.6,0,.6.3,1.2.3A23.79,23.79,0,0,1,255.73,203.78Zm-79.8-2.1v-.9h.6v.9Zm-4.5,0c-.31-.9.9-.3.6-1.5C173.53,200.48,171.73,202.28,171.43,201.68Zm6.9-1.8c.9,0,1.2.6,1.5-.3.9.3.3.9,0,1.5a1,1,0,0,0-1.5.6C177.73,201.38,178.33,199.88,178.33,199.88Zm2.1-.3c0-.3.6-.3.6-.9.3,0,.3.6.3.9Zm-6.9.3c-.91,0-.3-1.5.59-1.2C173.83,199.28,173.83,199.58,173.53,199.88Zm87-1.2h0C261.13,197.78,261.43,199.88,260.53,198.68Zm-3.9,1.5c-.9-.3,0-1.5.3-1.8C257.83,199,256.33,199.58,256.63,200.18Zm3.3-.3c-.9,0-1.2-.9-1.5-2.1C259.93,197.78,259.93,198.68,259.93,199.88Zm3-2.1c-.6,0,0-.3,0-.6C263.53,197.48,262.93,197.78,262.93,197.78Zm-6-.3h0C257.83,196.28,257.83,199,256.93,197.48Zm-81.6-.6V196h.6v.9Zm7.5-.9h0C183.43,195.08,183.73,197.48,182.83,196Zm76.2-.3h0C259.93,195.08,258.13,196.88,259,195.68Zm-1.2.6c-.9,0-.9-1.8.3-1.5C258.13,195.68,257.83,195.68,257.83,196.28Zm5.7-2.1h0C263.83,193,263.83,195.68,263.53,194.18Zm-3.3,0h0C260.53,193,260.53,195.68,260.23,194.18Zm-82.8,0h0C178.33,193.28,176.53,195.38,177.43,194.18Zm6.9,1.5c-1.2-1.2.9-1.5,1.2-2.4C186.73,194.18,184.63,195.08,184.33,195.68Zm76.2-3.6a7.16,7.16,0,0,1,2.7-.6c-1.2,1.8-.9,4.8-1.5,6.3-1.8-.6.3-3.3.3-4.8C262,192.38,260.23,193.28,260.53,192.08Zm-75.9-.9Zm78.6,0c-.9,0-.9-1.2-.3-1.8C263.83,189.38,263.83,190.88,263.23,191.18Zm-2.1,0c-.3-.9.6-.9.3-2.1C262.33,189.08,262,191.48,261.13,191.18Zm-73.2-2.7Zm-8.4,3.9c.9-1.8,2.7-2.7,3.6-4.2C183.13,189.68,181,191.18,179.53,192.38Zm4.8-4.5h0C185.23,187,183.43,189.08,184.33,187.88Zm.9-.6h0C185.53,186.08,185.53,188.48,185.23,187.28Zm76.8.6c-.3-.9.3-.9,0-1.5C263.53,186.08,262.63,188.18,262,187.88Zm3-1.8c-.3-.9.6-.9.9-1.2C266.53,184.88,265.93,186.38,265,186.08Zm-7.2,8.1c0-3,1.2-6.3,2.1-9.6,1.2,1.2-.6,3,0,4.5H259C259.33,190.88,259.33,193.28,257.83,194.18Zm-66-9.3v-.3h.6v.3Zm71.7,4.2c-1.5-1.2.6-3.3.9-4.8A5.83,5.83,0,0,1,263.53,189.08Zm1.8-4.8a1.56,1.56,0,0,0,.6-1.2c.6.3.6.6.3,1.2Zm-4.8-1.2c0,.3-.3.3-.6.3C259.93,183.08,260.23,183.08,260.53,183.08Zm-65.4,0h0C194.83,183.08,195.13,183.38,195.13,183.08Zm65.4-1.5c.3,0,.3,0,.6-.3.6-.3.3,1.5-.6.9Zm6,.6c-.6,0-.6-1.5.3-1.2C267.13,181.58,266.53,181.88,266.53,182.18Zm-1.8.9c-.9-.3.3-1.5,0-2.7C266.53,180.68,265,182.48,264.73,183.08Zm-.3-4.8Zm-2.4-.9c0,.6,0,.3-.3.6C261.73,177.68,262,177.68,262,177.38Zm5.4,3c-1.2-.6-.3-2.4-.6-3.6C268.63,177.68,266.83,178.88,267.43,180.38Zm-1.5-3.3c-.6-1.2.6,0,0,0,0,.6.3,3.3-1.2,3C264.73,178.58,264.73,177.68,265.93,177.08Zm-3.9-.9v-2.1h1.2C262.63,174.68,263.23,176.18,262,176.18Zm6.3-1.2c-.3,0-.3-.6-.3-.9.6,0,.6,0,.6.6C268.33,174.38,268.33,174.68,268.33,175Zm.6-1.5C270.13,174.38,269.83,172,268.93,173.48Zm-2.7-.9c.3.3.3-.3,1.2-.3-.3,1.8-.6,3.3-2.1,3.6A4,4,0,0,0,266.23,172.58Zm2.4-.9v-.9h.6v.9Zm-5.4.3c0-.6-.6-2.1.6-1.8,0,.9,0,1.5-.6,1.8C263.53,173.18,262,172,263.23,172Zm4.5-.9c-1.2.3-1.2-.6-1.2-1.5h1.2Zm.3-2.7h0C267.73,168.08,268.33,168.38,268,168.38Zm-1.5-.6h0C266.23,167.78,266.53,168.08,266.53,167.78Zm-2.1,1.5c-.9-.6-.9-1.2-.6-1.8C265,167.18,264.43,169,264.43,169.28Zm4.5-2.1c-.6.3-1.2,0-1.2-1.2C268.33,166.28,268.93,166.28,268.93,167.18Zm-4.2-1.5c-.3.6-.3,0-.3,0C264.43,165.38,264.73,165.38,264.73,165.68Zm5.1.6a1.31,1.31,0,0,1,.3-.9c.6-.3.6,0,.9,0C271,166.28,270.73,166.58,269.83,166.28Zm-5.1-1.8c-.6,0-.3-1.5-.3-2.1C265.93,162.38,265,163.58,264.73,164.48Zm4.8-3.3v-.3h.6v.3Zm3-2.1v-.9h.3v.9Zm-1.2-1.8h0C271.33,157,271.63,157.28,271.33,157.28Zm-1.5,0h0C270.73,156.68,268.93,158.48,269.83,157.28Zm.9-1.5c-1.2.3-1.5-.9-.9-1.2C270.73,154.58,270.73,154.88,270.73,155.78Zm-7.5-2.1a8.35,8.35,0,0,0,1.2-3.6c.9,3.9-2.1,7.8-1.8,12.6-2.4,12-4.8,18.9-6.9,30.9-.6,1.5-1.8,3.9-.9,5.7-2.4,9-5.7,17.1-6.9,25.2a28.08,28.08,0,0,0-3.3,11.1c-3.3,8.7-6.3,16.5-9.6,25.5-.9,0-.3,1.2-1.2,1.2,0,.6.3,1.2.6,1.2a45.77,45.77,0,0,0-5.7,13.5c0,1.2-.6,0-1.2.3,0,1.2-.6,2.1,0,2.7-3.9,3.9-6,10.2-9.6,15-.6-.3.9-5.1,2.1-4.8.3-.3.3-.6-.6-.9,2.4-2.7,2.7-7.2,6-9.3,0-3.9,4.2-6.9,4.5-11.7a3.25,3.25,0,0,1,1.5-1.2c.3-2.7.9-4.8,2.7-6.6v-2.4c2.1-2.4,1.8-6.6,4.2-8.7,3.3-12.9,9.3-25.8,11.7-39.3,3.6-6,3.3-14.7,6.3-21C257.83,176.78,261.73,166.58,263.23,153.68Zm4.8-3.9c0,.3-.6.3-.6.3C267.43,149.78,267.73,149.78,268,149.78Zm5.1-1.8c0-.9.9-.9,1.5-1.2C274.63,147.68,274,148,273.13,148Zm-8.7.3a6.1,6.1,0,0,0,.3-1.5C266.23,146.78,265,148.58,264.43,148.28Zm8.4-10.8h0C272.83,136.28,272.53,139.58,272.83,137.48Zm-6.3,0h0C266.23,137.48,266.53,137.78,266.53,137.48Zm-33.9-47.7c-.3-1.8,1.5,0,1.5-1.5C235,89.18,233.53,90.08,232.63,89.78Zm3.6-1.8h0Zm110.1,0c.6-.9.6,0,1.2,0C347.83,88.58,346,88.58,346.33,88Zm-1.2,0Zm-106.8-.6h0C238.93,86.18,238.63,88.28,238.33,87.38Zm1.5-.6c0,.3-.3.3-.6.3C239.23,86.78,239.53,86.78,239.83,86.78Zm.9.3c-.3-1.2.9-1.2,1.5-.6A1.94,1.94,0,0,1,240.73,87.08Zm104.1.3c-1.2.3-4.2-.6-4.8-1.8C341.53,86.78,344.53,85.88,344.83,87.38Zm-5.4-2.1c-1.2.3-2.7.6-3.3-.6A4.17,4.17,0,0,1,339.43,85.28Zm-93.9.9c.3-.9,1.5-1.2,2.4-1.5v1.2C247,86.18,247,85.88,245.53,86.18Zm89.4-1.5v-.9c.6,0,.6.6.6,1.2C335.23,85,335.23,84.68,334.93,84.68Zm-1.8-.6c0-.3,0-.3-.3-.3-.3-.3,1.2-.3.9.3Zm13.5,0c-.6,1.2-1.5,0-1.2-.6C346,83.48,346,83.78,346.63,84.08Zm-2.7-.6Zm-16.5,0c-.6,0-.6-.6-1.2-.3C325.93,82.58,327.73,82.58,327.43,83.48Zm15.9-.3c-.9,0-.9-.6-1.5-.6C341.83,82,343.63,82,343.33,83.18Zm-13.2,0v-.9c.6.9.9,1.8,2.1,1.2-.3,1.8-2.1,0-3,0C329.23,82.88,329.83,83.18,330.13,83.18Zm-5.4-.6h0C324.43,82.58,325,82.88,324.73,82.58Zm-23.4-.6a.29.29,0,0,1-.3.3C301,82,301,82,301.33,82Zm-52.5,2.7c2.7-.6,7.5-1.2,10.2-2.7.9,0,.6,1.5,1.2,1.5-.9,1.2-2.4,0-3.3,0-1.2.9-2.7,2.4-3.3.6C252.73,85.28,249.43,85.58,248.83,84.68Zm69.9-2.1c.9-1.8,3.6.3,5.7-.3C322.63,84.68,321.73,81.38,318.73,82.58Zm-3-.3c0-.3.3-.3.3-.6h.6C316.63,82.28,316,82.28,315.73,82.28Zm-.6-.6c-.3,1.2-3.6,1.5-3.9,0Zm-4.5.6c-.9.3-.9-.3-1.2-.3C309.43,81.38,311.23,81.38,310.63,82.28ZM304,82h0C304.33,81.08,304.93,83.48,304,82Zm-4.2-.3c0,.3-.6.3-.9.3C298.93,81.68,299.53,81.68,299.83,81.68Zm40.5.3c.3-.9.6-.3,1.5,0C341.53,82.88,340.33,82,340.33,82Zm-1.5-.6h0C339.73,80.18,339.13,82.58,338.83,81.38Zm-78.6,1.8c.9-2.4,4.2-.9,6.3-2.1v1.2c-1.5-.9-2.4,1.8-3.3,0-.9,0-.3,1.2-1.2,1.2C261.43,83.18,261.43,82.58,260.23,83.18Zm75.9-1.8v-.9c.9,0,.9.3,1.2.3C337.33,81.38,337,81.38,336.13,81.38Zm2.4-.3c-.9.3-.9-.3-.9-.9A.8.8,0,0,1,338.53,81.08Zm-3.3-.6Zm-67.8,1.2c0-1.8,2.7-.6,3.6-1.5.9.3-.3,1.2,0,1.5C270.13,80.48,268.63,81.68,267.43,81.68Zm61.8-2.4c1.5-1.5,2.7.3,5.4.6.3,1.2-1.2.3-1.5.9C331.93,79.58,331,80.18,329.23,79.28Zm-1.2.6c.3-.9-.6-1.2,0-2.1C328.93,77.78,329.23,80.18,328,79.88Zm-3.6-1.5c.9-.9,1.5,0,3,0-.3.9.6.9.3,1.8C326.23,79.28,324.43,80.78,324.43,78.38Zm-15.3.3c0-.9.6-.9,1.5-.9C310.93,79.28,309.43,79.28,309.13,78.68Zm-20.7.3c-1.5.3-.6-1.8,0-.6Zm27.3-1.2c-.6,1.2-1.8,1.5-1.8-.3C314.53,77.48,315.43,77.48,315.73,77.78ZM290.53,79c.6,0,.3-.9.6-1.5.9.6,1.5,0,2.1.3-.3,1.5-2.1,0-2.1,1.5-.6,0-1.2,0-.9-.6A.29.29,0,0,1,290.53,79Zm3-.6c.9-1.5,3.6-.9,4.5.3.6-.3-.6-.9.3-1.5.3.6,1.5.6,1.5,1.8-1.2-.3-1.5.3-3,.3.3-1.5-1.5-1.2-1.8-.3C294.43,79,294.43,78.08,293.53,78.38Zm22.8.6a2.54,2.54,0,0,1,.6-1.8c2.1.3,3.9.9,5.7.3,0,.9.6,1.5,0,1.8-.3,0-1.5-1.2-1.2,0A15,15,0,0,0,316.33,79Zm-2.7,0a10.47,10.47,0,0,1-2.7-1.8h1.8C312.73,78.08,313.93,77.78,313.63,79Zm-3.6-1.5c-.6,0-.6-.3-.6-.6a.66.66,0,0,1,.9.3A.29.29,0,0,0,310,77.48Zm-7.8-.3a26.05,26.05,0,0,0,6.9-.3c-.3.9-1.2,1.5-1.8,2.1,0-1.8-2.4.3-2.7-1.2-.9,0-1.2.6-.9,1.5A2.92,2.92,0,0,0,301,79c0-.9-.9-1.2-1.5-1.8,0-.6,1.5,0,1.8,0,0,.3.6.3.3,1.2C302.83,78.08,302.23,77.78,302.23,77.18Zm-53.1,170.7c-.6,0-.6.9-1.5.6.6-1.5,2.4-2.1,3.6-3.3.3-2.4,0-3.9,1.5-6.3-.6-.3-.9-.6-1.5-.9,3.3-2.4,4.5-6.9,5.1-11.7-.6-.6-1.2.6-1.2-.3.3-.3,0-1.8.6-2.1,0,1.2-.6,1.8.9,1.8a4.12,4.12,0,0,0,1.5-3c0-1.2-.9.9-.9-.3-.3-1.5,1.8-.6,1.5-1.8-.3-.6-.9-.9-.9-1.2.3-.6,1.8.3,1.8-1.2-.9-.9-2.1.9-2.4-.6.6-.6.9.3,1.5-.3.3-1.5,0-2.4,1.2-3.6-.3-.3-1.5,0-1.5-.9h1.8c.3-2.1.3-2.4-.3-3.9.3,0,0-.6,1.2-.3,0,.3-.6,1.5.3,1.5.3-1.5.9-3,.3-4.5,2.4-.6,2.4-3.9,1.5-5.7,2.1-1.2.6-3.6,1.5-5.7-.3.6,0,1.2.6,1.2,0-1.8,1.8-3.6-.6-3.9,0,1.2,1.5.9,0,1.5-.9-.6-.6-1.2-.3-2.4.3,0,0,.6.9.6.3-.9,1.2-2.1.6-2.7-1.2-.3-.3.9-1.5.6a18.75,18.75,0,0,1,3.9-6c0-.6-.6-.9-.6-1.5,2.4-3,.9-8.1,3.3-11.4-.3-.6-1.5-.6-1.8-1.5.6-.6,1.5.6,2.1-.9-.6.3-.6.3-.6-.3.9,0,.9-1.5,1.5-2.7-1.5.6-1.5-.9-2.1-1.8.6-.3,1.8-.3,2.7-.6,0-.9.3-2.1-.6-2.4-1.2.6.9,1.5-.6,1.5a2.56,2.56,0,0,1-.9-1.8,3.29,3.29,0,0,1,2.4,0c0-.6,0-2.1.6-2.4-.9-.3-.9.9-.9-.6,1.8-.9.6-4.8,2.1-6.3-.3-.3-1.2,0-.9-.9,2.1-1.2,1.8-4.5,1.2-6a18.87,18.87,0,0,0,1.8-10.2c1.2-.9,1.2-2.4.6-4.5a28.43,28.43,0,0,0,1.5-11.4c.6-.3.3-1.5,1.2-1.8a232.43,232.43,0,0,1,3.3-28.2c26.7-3.3,55.5-4.5,75.3,11.7a6.1,6.1,0,0,0,2.1,3.6c.9-1.8.9-2.1,1.2-4.8-1.2-8.4-8.7-11.1-14.1-15.6-6.6-2.1-13.2-5.4-21.3-5.4-14.7-3-28.2-1.5-43.2-.9,1.2-3-.3-5.4,0-8.4-2.7-3-7.2-5.4-11.4-5.1-1.5,4.2.6,10.5-.9,15.3-5.7.9-10.2,1.8-16.5,2.7-4.5.6-8.1,2.7-12.3,3.3-1.2.3-2.1-.3-3.3,0-8.4,2.1-16.8,4.8-24.9,7.5-3.9.9-7.8,3.9-10.5,3.9a7.8,7.8,0,0,0-2.1.9,38.79,38.79,0,0,1-6.3,2.1c0,.6,0,1.2-.6,1.5-5.4-.3-5.1,7.5-2.1,10.2,2.4-.3,3,1.5,3.9,1.8a241.34,241.34,0,0,1,74.1-21.9c-.9,7.2-1.2,14.4-2.7,21.9a79.37,79.37,0,0,1-2.7,18c-2.4,23.1-8.7,45.3-13.5,67.8-.6.3-.6,1.2-1.2,1.8-.3,4.5-3,9-3.3,13.5-2.1,5.7-2.7,10.5-4.8,15.6-3.6,14.7-11.1,29.7-15.9,42.9-4.2,6-7.2,13.2-11.1,19.5-.6,1.5-2.4,1.8-3,3.3a35.72,35.72,0,0,0-2.7,4.5,73.76,73.76,0,0,1-13.2,12.3,32.48,32.48,0,0,1-21.6,5.4,46.6,46.6,0,0,1-10.8-2.4c-5.11-6-8.11-13.5-9.9-22.2,0-.9.29-.9.29-1.5,0-3-.89-6.9,0-9.3-1.79-12.9,3.31-26.1,5.4-35.7,3-6,5.41-12.9,7.81-19.5,6.6-10.8,12.6-22.8,22.2-31.8.3-.6,0-1.5.6-1.8.6,1.5,3.6-2.7,1.5-3-.3,1.8-2.7,2.7-3.3,3,.3-.9,1.2-1.5,1.8-2.4-1.2-.3-.6,1.2-1.8.9,4.8-4.5,9.9-8.7,15-12.6-.6,0-.6-.6-.6-1.2-14.1,3.6-22.8,12.3-31.5,21v1.5h-.61c-6.89,8.7-12.29,18.6-17.39,28.5-2.11,5.4-3.9,10.8-6,15.3-2.41,9.3-4.5,17.7-6,27-.31.9.29.9,0,1.5a22.36,22.36,0,0,0,0,9c-.31.6-1.21.6-.61,1.5,3.61,20.7,14.4,34.5,30,43.5.61.3.61-.3,1.5-.3,5.41,4.2,18.31,4.8,24,.6,2.4.6,5.1-1.2,6.3-3.3,2.7,0,6-2.4,7.2-5.4,2.7-.9,6-3.9,7.5-7.5-.9,0-1.2,2.1-1.8.9.6-.3,0-1.8.6-2.1.9,1.2,1.2-.3,3,.6.3-1.5-1.5-.6-1.5-1.5,1.2-.3,2.1,0,3.3-.9.6-.6,0-.9,0-1.5.3-.3.6-.9,2.1-.6-.3-1.8.6-1.8,0-3.6,2.7,0,4.2-3.6,3.9-5.1.6.3,1.5.3,1.8-.3.6-1.2-.6-.9-.6-1.8,1.2-.9,3-1.5,1.5-3h1.5c.3-.9-.3-1.5.3-2.1.6-.3-.3,1.5.9.9,0-3.6,2.4-4.5,2.4-8.1.6.3,1.2.9,1.5.3.9-2.1-.9-4.5.9-5.7,0,1.2-.6,2.4.6,2.4a4.84,4.84,0,0,1,1.8-3.9c-.6-3,3-5.4,4.2-9-.9.3-1.2-.3-1.2-.9,2.4-1.5,3.9-4.5,2.7-7.2,3-2.1,3.3-5.1,4.5-9C249.13,248.78,249.13,248.48,249.13,247.88Z"/><path class="cls-2" d="M356.57,289.06c-1.7,1.89-3.32,3.84-4.84,5.88l6,9.25a40.64,40.64,0,0,0,2.19-9.94Z"/><path class="cls-2" d="M220.61,316.38a20.48,20.48,0,0,1-5.51,5,50,50,0,0,1,1.73,13.06c0,25.26-18.67,47.09-47,47.09s-46.81-21.83-46.81-47.09a47.28,47.28,0,0,1,16.36-36.31,70.72,70.72,0,0,1-2.54-7.61c-13.41,9.93-21.65,25.91-21.65,43.92,0,30.07,22.93,54.5,54.64,54.5s54.78-24.43,54.78-54.5A56.65,56.65,0,0,0,221.92,317Z"/><path class="cls-2" d="M64.45,287.38c17.7,0,27.59,7.83,33.49,13.6.83.82,1.37.82,2.06.27l3.85-3.57c.54-.55.13-1.23-1.1-2.47C92.86,285.19,79,280,64.17,280,32.6,280,8.3,303.31,8.3,334.47S32.6,389,64.17,389c14.83,0,28.69-5.21,38.58-15.23,1.23-1.24,1.64-1.93,1.1-2.48L100,367.7c-.69-.55-1.23-.55-2.06.27-5.9,5.77-15.65,13.59-33.49,13.59-30.62,0-48.33-23.61-48.33-47.09S33.83,287.38,64.45,287.38Z"/><path class="cls-2" d="M201.34,298.94c1.21-1.23,2.41-2.51,3.58-3.86l.45-.83c.19-.37.42-.78.66-1.21A54.74,54.74,0,0,0,169.88,280a59.05,59.05,0,0,0-9.22.73l.12.86-.51,1.35a20.53,20.53,0,0,0,.13,3.55c.06.59.11,1.18.15,1.78a51.29,51.29,0,0,1,9.33-.86C182.58,287.38,193.34,291.8,201.34,298.94Z"/><path class="cls-2" d="M328.72,280.93h-5.35a1.1,1.1,0,0,0-1.24,1.24v11.72a85.59,85.59,0,0,1,7.4-12.72A1.3,1.3,0,0,0,328.72,280.93Z"/><path class="cls-2" d="M514.06,381h-1.13a50.71,50.71,0,0,1-.59,7h1.72c1.1,0,1.51-.27,1.51-1.37v-4.39C515.57,381.42,515.16,381,514.06,381Z"/><path class="cls-2" d="M608.93,316.49c0-17.16-10.85-35.56-37.76-35.56H535.3c-.16.49-.31,1-.46,1.46-1.35,4.25-2.7,8.53-4,12.81v91.58a1.09,1.09,0,0,0,1.24,1.23h5.35a1.09,1.09,0,0,0,1.24-1.23V352.05h32.53c1.65,0,3.3-.14,5-.28l23.61,35a2,2,0,0,0,2.06,1.23H607c1.1,0,1.38-.68.83-1.64l-24.3-35.83C601.51,345.87,608.93,330.9,608.93,316.49ZM571.86,345H538.64V287.93h33.22c19.91,0,29.38,13.46,29.38,28.56S591.77,345,571.86,345Z"/><path class="cls-2" d="M659.59,330.08c-17.58-6.32-30.07-10.85-30.07-23.89,0-11.8,9.75-18.81,24-18.81a37.35,37.35,0,0,1,26.49,11,1.55,1.55,0,0,0,2.47-.28l2.75-3.29c.68-.83.41-1.51-.55-2.47A43,43,0,0,0,654,280c-20.46,0-32.26,12.36-32.26,26.22,0,14.69,12.76,22.24,29.65,29,13.45,4.8,30.34,9.61,30.34,24.85,0,9.88-7.28,21.41-26.36,21.41-17.85,0-26.36-10.43-30.06-14.69a1.51,1.51,0,0,0-2.06-.13l-3,3.57a1.42,1.42,0,0,0,.13,2.19c2.89,3.16,13.59,16.48,34.74,16.48s34.45-12.63,34.45-28.56C689.51,342.3,672.9,335.16,659.59,330.08Z"/><path class="cls-2" d="M483.43,381h-28V337.36h37.91q.87-3.57,1.64-7.14H455.44V287.93H501.5q.47-3.45.83-7H448.85c-1,0-1.23.28-1.23,1.24V386.78a1.09,1.09,0,0,0,1.23,1.23h33.76C482.84,385.64,483.1,383.3,483.43,381Z"/><path class="cls-2" d="M322.13,320.66v55.27L250.06,282a2.36,2.36,0,0,0-1.92-1.1H244v3.47l-2.12,0,0,0a6.48,6.48,0,0,1-1,1.49V386.78A1.09,1.09,0,0,0,242.1,388h5.35a1.09,1.09,0,0,0,1.24-1.23V292.46l72.07,94.46a2.38,2.38,0,0,0,1.92,1.09h6.18c.69,0,1.1-.41,1.1-1.23V334.49A44.12,44.12,0,0,1,322.13,320.66Z"/><path class="cls-2" d="M432.92,280.93h-5.35a2.05,2.05,0,0,0-2.06,1.24l-36.79,56-11-16.79a72.52,72.52,0,0,1-3.93,7.28l11.08,16.92v41.19c0,.82.27,1.23,1.23,1.23h5.35c1,0,1.24-.41,1.24-1.23V345.59l41.05-62.74C434.3,281.89,434.3,280.93,432.92,280.93Z"/></svg>