<svg xmlns="http://www.w3.org/2000/svg" xmlns:xlink="http://www.w3.org/1999/xlink" width="633.1" height="440.552" viewBox="0 0 633.1 440.552">
  <defs>
    <radialGradient id="radial-gradient" cx="-2.087" cy="-3.971" fx="-2.4531428813934326" r="0.621" gradientTransform="translate(-0.373 0) scale(0.696 1)" gradientUnits="objectBoundingBox">
      <stop offset="0" stop-color="#fff" stop-opacity="0.851"/>
      <stop offset="0.403" stop-color="#f6f6f6" stop-opacity="0.851"/>
      <stop offset="1" stop-color="#f2f2f2" stop-opacity="0.851"/>
    </radialGradient>
  </defs>
  <path id="Path_298" data-name="Path 298" d="M1877.745,2690.549h-2.236c-.224-2.055-.357-4.125-.7-6.159a25.79,25.79,0,0,0-1.177-3.621l-4.039,3.039.378-7.191,3.963,3.033c-.521-2.921-1.421-4.032-4.155-4.252-8.892-.716-17.865-1.286-26.594-3-26.553-5.2-42.705-21.5-48.9-48.855-5.663-25.019-.1-48.525,10.429-71.232.374-.807,1.181-1.826,1.936-1.971,2.9-.559,5.88-.693,8.791-1.209,1.4-.247,3.09-.633,3.973-1.585,2.082-2.242,4.271-4.63,5.509-7.369a75.89,75.89,0,0,0,6.471-31.495,26.209,26.209,0,0,0-1.881-8.645,6.537,6.537,0,0,0-3.325-3.124c-4.648-2.115-9.14-4.12-9.175-10.36a66.824,66.824,0,0,0-.87-7.017c-2.482-21.943,3.963-40.175,22.183-53.57,5-3.677,9.884-7.516,14.762-11.356,5.207-4.1,10.049-8.527,12.447-14.985.249-.67.668-1.572,1.227-1.779,2.3-.853,2.142-2.712,2.22-4.581,1.117-26.677,2.283-53.351,3.3-80.031.058-1.526-1.057-3.1-1.743-4.97l-3.162,3.7a63.51,63.51,0,0,0,1.083-6.774c.248-5.324-.037-10.694.547-15.973.382-3.455.063-6.96,2.549-10.41,1.612-2.237.3-6.578.3-9.7-3.774-1.075-6.066-6.962-3.908-8.4a13.9,13.9,0,0,0,6.473-10.095l3.324-.618Zm48.1-241.574c.731,0,1.043.209,1.043.94v81.361c0,12.1-7.2,17.942-15.02,20.967-.625.208-1.356.313-1.669-.209l-1.878-3.754a.906.906,0,0,1,.521-1.356c7.407-2.5,12.1-7.406,12.1-15.751v-81.257c0-.731.312-.94,1.043-.94Zm13.351,40.681c0-22.844,17.42-41.411,41.516-41.411s41.621,18.567,41.621,41.411-17.525,41.412-41.621,41.412S1939.193,2512.5,1939.193,2489.656Zm77.191,0c0-19.193-14.187-35.779-35.675-35.779-21.384,0-35.57,16.585-35.57,35.779s14.186,35.779,35.57,35.779C2002.2,2525.436,2016.384,2508.85,2016.384,2489.656Zm17.729,24.409a1.142,1.142,0,0,1,1.564.1c2.817,3.233,9.284,11.161,22.845,11.161,14.5,0,20.028-8.762,20.028-16.272,0-11.578-12.831-15.229-23.053-18.88-12.83-5.111-22.531-10.848-22.531-22.01,0-10.536,8.971-19.923,24.513-19.923a32.693,32.693,0,0,1,23.366,9.388c.73.73.938,1.252.417,1.878l-2.087,2.5a1.175,1.175,0,0,1-1.877.208,28.39,28.39,0,0,0-20.133-8.345c-10.848,0-18.255,5.32-18.255,14.291,0,9.91,9.492,13.352,22.844,18.15,10.119,3.859,22.74,9.284,22.74,22.948,0,12.1-10.015,21.7-26.183,21.7-16.064,0-24.2-10.118-26.391-12.518a1.086,1.086,0,0,1-.1-1.669Zm114.426,11.891v3.338c0,.835-.313,1.043-1.148,1.043h-49.547a.83.83,0,0,1-.94-.938v-79.485c0-.731.21-.94.94-.94h48.5c.834,0,1.043.314,1.043.94v3.442c0,.73-.209.938-1.043.938h-43.5v32.128H2135.4c.834,0,1.147.313,1.147,1.148v3.024c0,.94-.313,1.252-1.147,1.252h-32.545v33.171h44.54C2148.227,2525.018,2148.54,2525.331,2148.54,2525.956Zm70.928-49.964c0,13.143-8.136,27.016-28.686,27.016h-24.721V2529.4a.83.83,0,0,1-.939.938h-4.069a.83.83,0,0,1-.939-.938v-79.485c0-.731.208-.94.939-.94h29.729C2211.227,2448.975,2219.468,2462.953,2219.468,2475.992Zm-5.842,0c0-11.475-7.2-21.7-22.322-21.7h-25.243v43.394H2191.3C2206.429,2497.688,2213.626,2487.466,2213.626,2475.992Zm84.072-26.078V2529.4a.83.83,0,0,1-.94.938h-4.067a.83.83,0,0,1-.94-.938v-37.553h-55.077V2529.4a.829.829,0,0,1-.938.938h-4.068a.83.83,0,0,1-.94-.938v-79.485c0-.731.209-.94.94-.94h3.964c.73,0,1.042.209,1.042.94v36.508h55.077v-36.508c0-.731.21-.94,1.043-.94h3.861C2297.385,2448.975,2297.7,2449.184,2297.7,2449.915ZM1900.622,2598.4c0-23.605,18.015-41.1,42.034-41.1a41.972,41.972,0,0,1,30.024,12.113q1.4,1.4.312,2.484l-7.663,6.73c-.725.725-1.345.725-2.174-.1a27.662,27.662,0,0,0-20.291-8.282c-17.5,0-28.679,13.356-28.679,28.161s11.181,28.161,28.679,28.161a27.473,27.473,0,0,0,20.291-8.283c.829-.828,1.449-.828,2.174-.1l7.663,6.729q1.087,1.087-.312,2.485a41.971,41.971,0,0,1-30.024,12.113C1918.637,2639.507,1900.622,2622.01,1900.622,2598.4Zm79.1,0c0-22.777,17.394-41.1,41.517-41.1s41.516,18.324,41.516,41.1-17.393,41.1-41.516,41.1S1979.723,2621.182,1979.723,2598.4Zm69.471,0c0-15.53-11.285-28.264-27.954-28.161-16.67,0-27.954,12.631-27.954,28.161s11.284,28.161,27.954,28.161S2049.194,2613.934,2049.194,2598.4Zm95.665-38.824v77.752a1.333,1.333,0,0,1-1.345,1.449h-10.458a2.856,2.856,0,0,1-2.588-1.449l-42.656-58.392v58.289a1.44,1.44,0,0,1-1.449,1.552h-10.25a1.468,1.468,0,0,1-1.553-1.552v-77.753a1.415,1.415,0,0,1,1.45-1.449h10.456a2.858,2.858,0,0,1,2.589,1.449l42.551,57.15v-57.046a1.505,1.505,0,0,1,1.45-1.553h10.354A1.388,1.388,0,0,1,2144.858,2559.581Zm81.172.724-28.782,46.486v30.542a1.31,1.31,0,0,1-1.45,1.449h-10.353a1.267,1.267,0,0,1-1.45-1.449v-30.542l-28.885-46.486c-.725-1.139-.518-2.278,1.139-2.278h10.457a2.585,2.585,0,0,1,2.587,1.553l21.328,34.166,21.224-34.166a2.674,2.674,0,0,1,2.588-1.553H2225C2226.652,2558.027,2226.755,2559.166,2226.03,2560.3Zm63.468,68.021v8.9a1.416,1.416,0,0,1-1.553,1.552h-50.213a1.525,1.525,0,0,1-1.553-1.552v-77.649a1.416,1.416,0,0,1,1.553-1.553h49.075a1.551,1.551,0,0,1,1.656,1.553v8.8a1.524,1.524,0,0,1-1.656,1.656H2249.43v21.846h27.954a1.575,1.575,0,0,1,1.656,1.656v8.7a1.523,1.523,0,0,1-1.656,1.656H2249.43v22.88h38.514A1.525,1.525,0,0,1,2289.5,2628.326Zm71.126,10.456h-9.318a2.809,2.809,0,0,1-2.691-1.449l-14.8-23.294h-20.4v23.191a1.44,1.44,0,0,1-1.449,1.552h-10.25a1.467,1.467,0,0,1-1.553-1.552v-77.649a1.416,1.416,0,0,1,1.553-1.553h31.681c19.672,0,28.782,13.977,28.782,28.057,0,10.456-5.177,21.017-16.047,25.572l15.841,24.64C2362.9,2637.644,2362.385,2638.782,2360.624,2638.782Zm-47.211-36.651h19.878c10.353,0,15.737-7.247,15.737-16.047,0-8.9-5.384-16.048-15.737-16.048h-19.878Zm62.432,15.841a1.877,1.877,0,0,1,2.9-.31c2.8,2.692,8.8,9.214,19.153,9.214,9.422,0,13.666-5.281,13.666-10.664,0-6.937-7.248-9.422-14.08-12.217-15.22-6.937-25.986-12.528-25.986-24.848,0-11.492,9.731-21.845,26.3-21.845a36.005,36.005,0,0,1,23.916,9.11c.932.829,1.346,1.864.519,2.8l-5.178,6.833c-1.035,1.345-2.173,1.656-3.313.725-2.071-1.553-8.7-6.834-16.773-6.834-7.039,0-11.906,3.313-11.906,9.007,0,6.109,5.28,8.489,14.08,11.907,13.045,5.9,25.987,11.491,25.987,25.572,0,13.149-10.87,23.088-27.437,23.088-15.943,0-24.433-9.628-26.814-12.01a1.731,1.731,0,0,1-.208-2.692Z" transform="translate(-1792.026 -2249.997)" fill="url(#radial-gradient)"/>
</svg>
